<svg width="351" height="56" viewBox="0 0 351 56" fill="none" xmlns="http://www.w3.org/2000/svg">
  <rect x="0.431152" width="350" height="56" rx="12" fill="black" />
  <g clip-path="url(#clip0_368_5121)">
    <rect width="15.1111" height="16" transform="translate(99.8756 20)" fill="black" />
    <path
      d="M113.275 32.2826C113.056 32.8183 112.797 33.3114 112.496 33.7647C112.087 34.3828 111.752 34.8106 111.493 35.0482C111.093 35.4381 110.664 35.6378 110.204 35.6492C109.875 35.6492 109.477 35.5498 109.014 35.3482C108.549 35.1475 108.122 35.0482 107.732 35.0482C107.322 35.0482 106.883 35.1475 106.414 35.3482C105.943 35.5498 105.564 35.6548 105.275 35.6653C104.834 35.6851 104.395 35.4798 103.957 35.0482C103.677 34.7898 103.327 34.3468 102.908 33.7193C102.458 33.0492 102.088 32.2722 101.798 31.3863C101.488 30.4294 101.333 29.5028 101.333 28.6057C101.333 27.5781 101.542 26.6918 101.962 25.9491C102.292 25.3526 102.732 24.882 103.281 24.5365C103.831 24.1911 104.425 24.015 105.064 24.0038C105.414 24.0038 105.873 24.1184 106.444 24.3436C107.012 24.5697 107.377 24.6843 107.537 24.6843C107.657 24.6843 108.063 24.5503 108.75 24.2831C109.401 24.0353 109.95 23.9327 110.399 23.9731C111.618 24.0772 112.533 24.5858 113.142 25.5019C112.052 26.201 111.513 27.1801 111.524 28.4362C111.534 29.4146 111.869 30.2287 112.528 30.8752C112.826 31.1752 113.16 31.4071 113.531 31.5718C113.45 31.8188 113.365 32.0554 113.275 32.2826ZM110.481 20.64C110.481 21.4068 110.216 22.1228 109.689 22.7856C109.052 23.5734 108.282 24.0287 107.448 23.9568C107.437 23.8648 107.431 23.768 107.431 23.6663C107.431 22.9301 107.733 22.1422 108.271 21.4981C108.539 21.1719 108.881 20.9007 109.294 20.6844C109.707 20.4713 110.098 20.3534 110.465 20.3333C110.476 20.4358 110.481 20.5383 110.481 20.64V20.64Z"
      fill="white" />
  </g>
  <path
    d="M129.873 32.0505C127.278 32.0505 125.61 30.4555 125.61 27.1495V26.816C125.61 23.307 127.611 21.9875 130.091 21.9875C131.106 21.9875 131.889 22.1905 132.483 22.524V23.5825C131.671 23.278 130.961 23.075 129.989 23.075C128.264 23.075 126.988 24.09 126.988 26.613V27.135C126.988 29.542 127.872 30.963 130.062 30.963C131.236 30.963 131.976 30.6295 132.599 30.3395V31.427C131.918 31.8185 131.004 32.0505 129.873 32.0505ZM136.914 32.0215C134.84 32.0215 133.637 30.6875 133.637 28.44V28.1935C133.637 25.9315 134.956 24.5395 136.928 24.5395C138.987 24.5395 140.22 25.888 140.22 28.15V28.382C140.22 30.644 138.886 32.0215 136.914 32.0215ZM136.943 31.0065C138.204 31.0065 138.929 30.122 138.929 28.5125V28.121C138.929 26.178 138.016 25.5545 136.899 25.5545C135.638 25.5545 134.913 26.4535 134.913 28.063V28.469C134.913 30.412 135.826 31.0065 136.943 31.0065ZM141.733 31.891V24.6845H142.907V25.308H142.98C143.589 24.873 144.517 24.5395 145.401 24.5395C146.822 24.5395 147.489 25.134 147.489 26.526V31.891H146.271V26.787C146.271 25.9605 145.996 25.6125 144.865 25.6125C144.227 25.6125 143.487 25.8445 142.965 26.091V31.891H141.733ZM151.742 31.9635C150.596 31.9635 149.799 31.4705 149.799 30.1945V25.714H148.769V24.6845H149.799V22.9735H151.031V24.6845H152.844V25.714H151.031V30.0205C151.031 30.702 151.263 30.963 152.075 30.963C152.365 30.963 152.699 30.9195 152.989 30.847V31.688C152.684 31.8185 152.394 31.9635 151.742 31.9635ZM154.435 31.891V24.6845H155.682V31.891H154.435ZM154.435 23.2635V21.973H155.697V23.2635H154.435ZM157.691 31.891V24.6845H158.866V25.308H158.938C159.547 24.873 160.475 24.5395 161.36 24.5395C162.781 24.5395 163.448 25.134 163.448 26.526V31.891H162.23V26.787C162.23 25.9605 161.954 25.6125 160.823 25.6125C160.185 25.6125 159.446 25.8445 158.924 26.091V31.891H157.691ZM167.541 32.0215C166.105 32.0215 165.337 31.2965 165.337 29.9045V24.6845H166.555V29.7015C166.555 30.586 166.859 30.963 167.903 30.963C168.643 30.963 169.252 30.702 169.759 30.441V24.6845H171.006V31.891H169.962L169.817 31.2675H169.745C169.15 31.688 168.411 32.0215 167.541 32.0215ZM175.971 32.0215C173.695 32.0215 172.535 30.615 172.535 28.3965V28.179C172.535 25.6705 174.028 24.5395 175.71 24.5395C177.682 24.5395 178.625 25.685 178.625 27.947V28.643H173.811C173.898 30.354 174.739 30.963 176.174 30.963C177.131 30.963 177.755 30.76 178.407 30.412V31.3255C177.987 31.6445 177.16 32.0215 175.971 32.0215ZM175.652 25.54C174.84 25.54 173.927 25.9895 173.811 27.6425H177.32C177.32 26.1345 176.74 25.54 175.652 25.54ZM185.336 31.891L183.292 24.6845H184.611L186.032 30.3105H186.076L187.743 24.6845H188.816L190.498 30.3105H190.556L191.963 24.6845H193.152L191.107 31.891H189.875L188.265 26.584H188.207L186.598 31.891H185.336ZM194.48 31.891V24.6845H195.727V31.891H194.48ZM194.48 23.2635V21.973H195.742V23.2635H194.48ZM200.056 31.9635C198.911 31.9635 198.113 31.4705 198.113 30.1945V25.714H197.084V24.6845H198.113V22.9735H199.346V24.6845H201.158V25.714H199.346V30.0205C199.346 30.702 199.578 30.963 200.39 30.963C200.68 30.963 201.013 30.9195 201.303 30.847V31.688C200.999 31.8185 200.709 31.9635 200.056 31.9635ZM202.721 31.891V21.509H203.953V25.279H204.026C204.606 24.873 205.505 24.5395 206.389 24.5395C207.81 24.5395 208.477 25.134 208.477 26.526V31.891H207.259V26.787C207.259 25.9605 206.984 25.6125 205.853 25.6125C205.215 25.6125 204.475 25.8445 203.953 26.091V31.891H202.721ZM213.421 31.891L216.974 22.147H218.206L221.73 31.891H220.396L219.41 29.1505H215.611L214.639 31.891H213.421ZM217.467 23.858L215.988 28.063H219.018L217.51 23.858H217.467ZM222.899 34.0515V24.6845H224.073V25.2645H224.146C224.566 24.8585 225.335 24.5395 226.219 24.5395C227.771 24.5395 229.163 25.366 229.163 28.034V28.2225C229.163 30.8615 227.916 31.9925 225.915 31.9925C225.117 31.9925 224.508 31.7605 224.131 31.5285V34.0515H222.899ZM225.813 30.992C227.118 30.992 227.901 30.2815 227.901 28.3965V28.0775C227.901 26.1345 227.176 25.598 225.886 25.598C225.088 25.598 224.436 25.859 224.131 26.091V30.499C224.436 30.76 225.088 30.992 225.813 30.992ZM230.73 34.0515V24.6845H231.904V25.2645H231.977C232.397 24.8585 233.166 24.5395 234.05 24.5395C235.602 24.5395 236.994 25.366 236.994 28.034V28.2225C236.994 30.8615 235.747 31.9925 233.746 31.9925C232.948 31.9925 232.339 31.7605 231.962 31.5285V34.0515H230.73ZM233.644 30.992C234.949 30.992 235.732 30.2815 235.732 28.3965V28.0775C235.732 26.1345 235.007 25.598 233.717 25.598C232.919 25.598 232.267 25.859 231.962 26.091V30.499C232.267 30.76 232.919 30.992 233.644 30.992ZM238.589 31.891V21.509H239.836V31.891H238.589ZM244.832 32.0215C242.556 32.0215 241.396 30.615 241.396 28.3965V28.179C241.396 25.6705 242.889 24.5395 244.571 24.5395C246.543 24.5395 247.486 25.685 247.486 27.947V28.643H242.672C242.759 30.354 243.6 30.963 245.035 30.963C245.992 30.963 246.616 30.76 247.268 30.412V31.3255C246.848 31.6445 246.021 32.0215 244.832 32.0215ZM244.513 25.54C243.701 25.54 242.788 25.9895 242.672 27.6425H246.181C246.181 26.1345 245.601 25.54 244.513 25.54Z"
    fill="white" />
  <defs>
    <clipPath id="clip0_368_5121">
      <rect width="15.1111" height="16" fill="white" transform="translate(99.8756 20)" />
    </clipPath>
  </defs>
</svg>