<svg width="351" height="46" viewBox="0 0 351 46" fill="none" xmlns="http://www.w3.org/2000/svg">
  <rect x="0.431152" y="0.5" width="350" height="45" rx="6" fill="black" />
  <g clip-path="url(#clip0_368_5121)">
    <rect width="15.1111" height="16" transform="translate(99.8756 15)" fill="black" />
    <path
      d="M113.275 27.2826C113.056 27.8183 112.797 28.3114 112.496 28.7647C112.087 29.3828 111.752 29.8106 111.493 30.0482C111.093 30.4381 110.664 30.6378 110.204 30.6492C109.875 30.6492 109.477 30.5498 109.014 30.3482C108.549 30.1475 108.122 30.0482 107.732 30.0482C107.322 30.0482 106.883 30.1475 106.414 30.3482C105.943 30.5498 105.564 30.6548 105.275 30.6653C104.834 30.6851 104.395 30.4798 103.957 30.0482C103.677 29.7898 103.327 29.3468 102.908 28.7193C102.458 28.0492 102.088 27.2722 101.798 26.3863C101.488 25.4294 101.333 24.5028 101.333 23.6057C101.333 22.5781 101.542 21.6918 101.962 20.9491C102.292 20.3526 102.732 19.882 103.281 19.5365C103.831 19.1911 104.425 19.015 105.064 19.0038C105.414 19.0038 105.873 19.1184 106.444 19.3436C107.012 19.5697 107.377 19.6843 107.537 19.6843C107.657 19.6843 108.063 19.5503 108.75 19.2831C109.401 19.0353 109.95 18.9327 110.399 18.9731C111.618 19.0772 112.533 19.5858 113.142 20.5019C112.052 21.201 111.513 22.1801 111.524 23.4362C111.534 24.4146 111.869 25.2287 112.528 25.8752C112.826 26.1752 113.16 26.4071 113.531 26.5718C113.45 26.8188 113.365 27.0554 113.275 27.2826ZM110.481 15.64C110.481 16.4068 110.216 17.1228 109.689 17.7856C109.052 18.5734 108.282 19.0287 107.448 18.9568C107.437 18.8648 107.431 18.768 107.431 18.6663C107.431 17.9301 107.733 17.1422 108.271 16.4981C108.539 16.1719 108.881 15.9007 109.294 15.6844C109.707 15.4713 110.098 15.3534 110.465 15.3333C110.476 15.4358 110.481 15.5383 110.481 15.64V15.64Z"
      fill="white" />
  </g>
  <path
    d="M129.873 27.0505C127.278 27.0505 125.61 25.4555 125.61 22.1495V21.816C125.61 18.307 127.611 16.9875 130.091 16.9875C131.106 16.9875 131.889 17.1905 132.483 17.524V18.5825C131.671 18.278 130.961 18.075 129.989 18.075C128.264 18.075 126.988 19.09 126.988 21.613V22.135C126.988 24.542 127.872 25.963 130.062 25.963C131.236 25.963 131.976 25.6295 132.599 25.3395V26.427C131.918 26.8185 131.004 27.0505 129.873 27.0505ZM136.914 27.0215C134.84 27.0215 133.637 25.6875 133.637 23.44V23.1935C133.637 20.9315 134.956 19.5395 136.928 19.5395C138.987 19.5395 140.22 20.888 140.22 23.15V23.382C140.22 25.644 138.886 27.0215 136.914 27.0215ZM136.943 26.0065C138.204 26.0065 138.929 25.122 138.929 23.5125V23.121C138.929 21.178 138.016 20.5545 136.899 20.5545C135.638 20.5545 134.913 21.4535 134.913 23.063V23.469C134.913 25.412 135.826 26.0065 136.943 26.0065ZM141.733 26.891V19.6845H142.907V20.308H142.98C143.589 19.873 144.517 19.5395 145.401 19.5395C146.822 19.5395 147.489 20.134 147.489 21.526V26.891H146.271V21.787C146.271 20.9605 145.996 20.6125 144.865 20.6125C144.227 20.6125 143.487 20.8445 142.965 21.091V26.891H141.733ZM151.742 26.9635C150.596 26.9635 149.799 26.4705 149.799 25.1945V20.714H148.769V19.6845H149.799V17.9735H151.031V19.6845H152.844V20.714H151.031V25.0205C151.031 25.702 151.263 25.963 152.075 25.963C152.365 25.963 152.699 25.9195 152.989 25.847V26.688C152.684 26.8185 152.394 26.9635 151.742 26.9635ZM154.435 26.891V19.6845H155.682V26.891H154.435ZM154.435 18.2635V16.973H155.697V18.2635H154.435ZM157.691 26.891V19.6845H158.866V20.308H158.938C159.547 19.873 160.475 19.5395 161.36 19.5395C162.781 19.5395 163.448 20.134 163.448 21.526V26.891H162.23V21.787C162.23 20.9605 161.954 20.6125 160.823 20.6125C160.185 20.6125 159.446 20.8445 158.924 21.091V26.891H157.691ZM167.541 27.0215C166.105 27.0215 165.337 26.2965 165.337 24.9045V19.6845H166.555V24.7015C166.555 25.586 166.859 25.963 167.903 25.963C168.643 25.963 169.252 25.702 169.759 25.441V19.6845H171.006V26.891H169.962L169.817 26.2675H169.745C169.15 26.688 168.411 27.0215 167.541 27.0215ZM175.971 27.0215C173.695 27.0215 172.535 25.615 172.535 23.3965V23.179C172.535 20.6705 174.028 19.5395 175.71 19.5395C177.682 19.5395 178.625 20.685 178.625 22.947V23.643H173.811C173.898 25.354 174.739 25.963 176.174 25.963C177.131 25.963 177.755 25.76 178.407 25.412V26.3255C177.987 26.6445 177.16 27.0215 175.971 27.0215ZM175.652 20.54C174.84 20.54 173.927 20.9895 173.811 22.6425H177.32C177.32 21.1345 176.74 20.54 175.652 20.54ZM185.336 26.891L183.292 19.6845H184.611L186.032 25.3105H186.076L187.743 19.6845H188.816L190.498 25.3105H190.556L191.963 19.6845H193.152L191.107 26.891H189.875L188.265 21.584H188.207L186.598 26.891H185.336ZM194.48 26.891V19.6845H195.727V26.891H194.48ZM194.48 18.2635V16.973H195.742V18.2635H194.48ZM200.056 26.9635C198.911 26.9635 198.113 26.4705 198.113 25.1945V20.714H197.084V19.6845H198.113V17.9735H199.346V19.6845H201.158V20.714H199.346V25.0205C199.346 25.702 199.578 25.963 200.39 25.963C200.68 25.963 201.013 25.9195 201.303 25.847V26.688C200.999 26.8185 200.709 26.9635 200.056 26.9635ZM202.721 26.891V16.509H203.953V20.279H204.026C204.606 19.873 205.505 19.5395 206.389 19.5395C207.81 19.5395 208.477 20.134 208.477 21.526V26.891H207.259V21.787C207.259 20.9605 206.984 20.6125 205.853 20.6125C205.215 20.6125 204.475 20.8445 203.953 21.091V26.891H202.721ZM213.421 26.891L216.974 17.147H218.206L221.73 26.891H220.396L219.41 24.1505H215.611L214.639 26.891H213.421ZM217.467 18.858L215.988 23.063H219.018L217.51 18.858H217.467ZM222.899 29.0515V19.6845H224.073V20.2645H224.146C224.566 19.8585 225.335 19.5395 226.219 19.5395C227.771 19.5395 229.163 20.366 229.163 23.034V23.2225C229.163 25.8615 227.916 26.9925 225.915 26.9925C225.117 26.9925 224.508 26.7605 224.131 26.5285V29.0515H222.899ZM225.813 25.992C227.118 25.992 227.901 25.2815 227.901 23.3965V23.0775C227.901 21.1345 227.176 20.598 225.886 20.598C225.088 20.598 224.436 20.859 224.131 21.091V25.499C224.436 25.76 225.088 25.992 225.813 25.992ZM230.73 29.0515V19.6845H231.904V20.2645H231.977C232.397 19.8585 233.166 19.5395 234.05 19.5395C235.602 19.5395 236.994 20.366 236.994 23.034V23.2225C236.994 25.8615 235.747 26.9925 233.746 26.9925C232.948 26.9925 232.339 26.7605 231.962 26.5285V29.0515H230.73ZM233.644 25.992C234.949 25.992 235.732 25.2815 235.732 23.3965V23.0775C235.732 21.1345 235.007 20.598 233.717 20.598C232.919 20.598 232.267 20.859 231.962 21.091V25.499C232.267 25.76 232.919 25.992 233.644 25.992ZM238.589 26.891V16.509H239.836V26.891H238.589ZM244.832 27.0215C242.556 27.0215 241.396 25.615 241.396 23.3965V23.179C241.396 20.6705 242.889 19.5395 244.571 19.5395C246.543 19.5395 247.486 20.685 247.486 22.947V23.643H242.672C242.759 25.354 243.6 25.963 245.035 25.963C245.992 25.963 246.616 25.76 247.268 25.412V26.3255C246.848 26.6445 246.021 27.0215 244.832 27.0215ZM244.513 20.54C243.701 20.54 242.788 20.9895 242.672 22.6425H246.181C246.181 21.1345 245.601 20.54 244.513 20.54Z"
    fill="white" />
  <defs>
    <clipPath id="clip0_368_5121">
      <rect width="15.1111" height="16" fill="white" transform="translate(99.8756 15)" />
    </clipPath>
  </defs>
</svg>