<svg width="32" height="32" viewBox="0 0 32 32" fill="none" xmlns="http://www.w3.org/2000/svg">
<path fill-rule="evenodd" clip-rule="evenodd" d="M5.87581 24.0782C6.89027 26.7326 9.46087 28.6177 12.4718 28.6177H22.0078C25.9063 28.6177 29.0666 25.4573 29.0666 21.5588V10.4641C29.0666 6.56562 25.9063 3.40528 22.0078 3.40528L12.4718 3.40527C9.46969 3.40527 6.90534 5.27934 5.88477 7.92138H4.33902C3.55932 7.92138 2.92725 8.55345 2.92725 9.33315C2.92725 10.1128 3.55932 10.7449 4.33901 10.7449L5.41293 10.7449V14.588H4.33901C3.55932 14.588 2.92725 15.2201 2.92725 15.9998C2.92725 16.7795 3.55932 17.4116 4.33901 17.4116H5.41293L5.41293 21.2547H4.33901C3.55932 21.2547 2.92725 21.8868 2.92725 22.6665C2.92725 23.4462 3.55932 24.0782 4.33901 24.0782H5.87581ZM13.5389 7.99981C12.508 7.99981 11.6722 8.83555 11.6722 9.86648V11.4665C11.6722 12.4974 12.508 13.3331 13.5389 13.3331L21.8056 13.3331C22.8365 13.3331 23.6722 12.4974 23.6722 11.4665V9.86648C23.6722 8.83555 22.8365 7.99981 21.8056 7.99981L13.5389 7.99981Z" fill="#1F1F20"/>
</svg>
