<svg width="28" height="28" viewBox="0 0 28 28" fill="none" xmlns="http://www.w3.org/2000/svg">
<path fill-rule="evenodd" clip-rule="evenodd" d="M7.24449 5.2456C4.75867 6.04452 2.95972 8.37568 2.95972 11.127L2.95972 19.4893C2.95972 22.9005 5.72502 25.6658 9.13619 25.6658L18.8636 25.6658C22.2748 25.6658 25.0401 22.9005 25.0401 19.4893V11.127C25.0401 8.37567 23.2411 6.04451 20.7553 5.2456L20.7553 3.56916C20.7553 2.88692 20.2022 2.33386 19.52 2.33386C18.8378 2.33386 18.2847 2.88692 18.2847 3.56916L18.2847 4.95053L9.71508 4.95053V3.56916C9.71508 2.88692 9.16202 2.33386 8.47978 2.33386C7.79755 2.33386 7.24449 2.88692 7.24449 3.56916V5.2456ZM16.0626 10.2719C16.0626 9.75642 15.6447 9.33856 15.1292 9.33856H13.7921C13.617 9.33856 13.4455 9.3878 13.2971 9.48067L11.1048 10.8524C10.8321 11.023 10.6665 11.322 10.6665 11.6436L10.6665 12.5242C10.6665 13.2538 11.466 13.7013 12.0879 13.3198L13.2568 12.6027C13.2646 12.5979 13.2736 12.5953 13.2828 12.5953C13.3103 12.5953 13.3326 12.6176 13.3326 12.6451V20.6661C13.3326 21.1815 13.7505 21.5994 14.266 21.5994H15.1292C15.6447 21.5994 16.0626 21.1815 16.0626 20.6661V10.2719Z" fill="#8D959A"/>
</svg>
