<svg width="48" height="48" viewBox="0 0 48 48" fill="none" xmlns="http://www.w3.org/2000/svg">
<rect width="48" height="48" fill="#EFFAF8"/>
<path fill-rule="evenodd" clip-rule="evenodd" d="M35.6346 23.7866C33.2729 26.1483 29.8125 26.7415 26.8988 25.5662L26.0761 26.389C25.5675 26.8976 24.7896 26.9726 24.2015 26.6141L20.9173 29.8984L21.554 30.5351C22.2065 31.1875 22.2065 32.2453 21.554 32.8977C20.9016 33.5501 19.8438 33.5501 19.1914 32.8977L18.5547 32.261L17.048 33.7677L17.6847 34.4045C18.3372 35.0569 18.3372 36.1147 17.6847 36.7671C17.0323 37.4195 15.9745 37.4195 15.3221 36.7671L14.6853 36.1303L13.4328 37.3829C12.6808 38.1349 11.4615 38.1349 10.7094 37.3829L10.6172 37.2906C9.86517 36.5386 9.86517 35.3193 10.6172 34.5673L21.3859 23.7986C21.0273 23.2105 21.1023 22.4324 21.6109 21.9238L22.4337 21.101C21.2585 18.1874 21.8518 14.727 24.2134 12.3654C27.3673 9.21153 32.4807 9.21153 35.6346 12.3654C38.7885 15.5193 38.7885 20.6327 35.6346 23.7866ZM30.1556 17.8444C30.9909 18.6797 32.3451 18.6797 33.1804 17.8444C34.0156 17.0091 34.0156 15.6549 33.1804 14.8196C32.3451 13.9844 30.9909 13.9844 30.1556 14.8196C29.3204 15.6549 29.3204 17.0091 30.1556 17.8444Z" fill="url(#paint0_linear_1018_10309)"/>
<path fill-rule="evenodd" clip-rule="evenodd" d="M23.211 27.6057L20.393 24.7876L21.3869 23.7937L24.2049 26.6118L23.211 27.6057Z" fill="#C7F3EC"/>
<defs>
<linearGradient id="paint0_linear_1018_10309" x1="32.9508" y1="14.7684" x2="10.0529" y2="37.6657" gradientUnits="userSpaceOnUse">
<stop stop-color="#00DEBD"/>
<stop offset="1" stop-color="#2CC3A9"/>
</linearGradient>
</defs>
</svg>
