<svg width="48" height="48" viewBox="0 0 48 48" fill="none" xmlns="http://www.w3.org/2000/svg">
<rect width="48" height="48" rx="12" fill="#EFFAF8"/>
<path fill-rule="evenodd" clip-rule="evenodd" d="M36.4656 23.7713C33.9353 26.3017 30.2277 26.9373 27.1059 25.6781L26.2244 26.5597C25.6795 27.1045 24.8461 27.185 24.216 26.8009L20.6971 30.3198L21.3793 31.002C22.0783 31.701 22.0783 32.8344 21.3793 33.5334C20.6803 34.2324 19.547 34.2324 18.8479 33.5334L18.1657 32.8512L16.5514 34.4655L17.2336 35.1477C17.9327 35.8467 17.9327 36.98 17.2336 37.6791C16.5346 38.3781 15.4013 38.3781 14.7023 37.6791L14.02 36.9969L12.5807 38.4362C11.8287 39.1882 10.6094 39.1882 9.85737 38.4362L9.56403 38.1428C8.81199 37.3908 8.81199 36.1715 9.56403 35.4194L21.1992 23.7843C20.8149 23.1542 20.8953 22.3205 21.4403 21.7755L22.3218 20.8939C21.0627 17.7722 21.6983 14.0647 24.2286 11.5344C27.6078 8.15521 33.0865 8.15521 36.4656 11.5344C39.8448 14.9135 39.8448 20.3922 36.4656 23.7713ZM30.5953 17.4047C31.4902 18.2996 32.9412 18.2996 33.8361 17.4047C34.731 16.5098 34.731 15.0588 33.8361 14.1639C32.9412 13.269 31.4902 13.269 30.5953 14.1639C29.7004 15.0588 29.7004 16.5098 30.5953 17.4047Z" fill="url(#paint0_linear_1018_10309)"/>
<path fill-rule="evenodd" clip-rule="evenodd" d="M23.1547 27.8633L20.1353 24.8439L21.2002 23.7791L24.2196 26.7984L23.1547 27.8633Z" fill="#C7F3EC"/>
<defs>
<linearGradient id="paint0_linear_1018_10309" x1="33.5798" y1="14.1188" x2="8.9996" y2="38.6982" gradientUnits="userSpaceOnUse">
<stop stop-color="#00DEBD"/>
<stop offset="1" stop-color="#2CC3A9"/>
</linearGradient>
</defs>
</svg>
