<svg width="24" height="24" viewBox="0 0 24 24" fill="none" xmlns="http://www.w3.org/2000/svg">
<path fill-rule="evenodd" clip-rule="evenodd" d="M21.75 12C21.75 17.3848 17.3848 21.75 12 21.75C10.4264 21.75 8.93978 21.3772 7.62378 20.7151L3.24083 21.5917C2.68105 21.7036 2.18751 21.2101 2.29947 20.6503L3.19218 16.1868C2.5881 14.9182 2.25 13.4986 2.25 12C2.25 6.61522 6.61522 2.25 12 2.25C17.3848 2.25 21.75 6.61522 21.75 12ZM9.81619 11.4309C10.1305 12.0143 9.91234 12.7421 9.32888 13.0564L9.31913 13.0617C8.73567 13.376 8.00787 13.1578 7.69354 12.5744C7.37922 11.9909 7.5974 11.2631 8.18086 10.9488L8.19061 10.9436C8.77407 10.6292 9.50187 10.8474 9.81619 11.4309ZM16.7496 11.4309C17.0639 12.0143 16.8457 12.7421 16.2622 13.0565L16.2525 13.0617C15.669 13.376 14.9412 13.1578 14.6269 12.5744C14.3126 11.9909 14.5308 11.2631 15.1142 10.9488L15.124 10.9435C15.7074 10.6292 16.4352 10.8474 16.7496 11.4309Z" fill="white"/>
</svg>
