<svg width="32" height="33" viewBox="0 0 32 33" fill="none" xmlns="http://www.w3.org/2000/svg">
<path fill-rule="evenodd" clip-rule="evenodd" d="M5.49123 24.7918C6.48414 27.5392 9.11544 29.5028 12.2054 29.5028H22.3295C26.2712 29.5028 29.4665 26.3074 29.4665 22.3658V10.6339C29.4665 6.69219 26.2712 3.49683 22.3295 3.49683L12.2054 3.49683C9.12441 3.49683 6.49943 5.44904 5.49992 8.18394H3.96061C3.17228 8.18394 2.5332 8.82302 2.5332 9.61135C2.5332 10.3997 3.17228 11.0388 3.96061 11.0388L5.06832 11.0388L5.06832 15.0605H3.96061C3.17228 15.0605 2.5332 15.6995 2.5332 16.4879C2.5332 17.2762 3.17228 17.9153 3.96061 17.9153H5.06832L5.06832 21.937H3.96061C3.17228 21.937 2.5332 22.576 2.5332 23.3644C2.5332 24.1527 3.17228 24.7918 3.96061 24.7918H5.49123ZM19.7423 24.0936C21.3852 24.0936 22.6801 23.3527 22.7177 20.5551C22.7177 18.1944 20.6114 15.0748 17.2343 15.0748C13.9416 15.0749 11.7861 18.0647 11.7861 20.598C11.7861 22.3135 12.7801 24.0936 14.3893 24.0936C15.5241 24.0936 15.9841 23.7817 16.3577 23.5284C16.6134 23.355 16.8286 23.209 17.192 23.209C17.5718 23.209 17.7927 23.3685 18.0469 23.552C18.3913 23.8007 18.797 24.0936 19.7423 24.0936ZM16.684 11.4176C16.684 12.8178 15.8275 13.9529 14.7709 13.9529C13.7144 13.9529 12.8579 12.8178 12.8579 11.4176C12.8579 10.0174 13.7144 8.88232 14.7709 8.88232C15.8275 8.88232 16.684 10.0174 16.684 11.4176ZM19.7329 13.9526C20.7894 13.9526 21.6459 12.8175 21.6459 11.4173C21.6459 10.0171 20.7894 8.88199 19.7329 8.88199C18.6763 8.88199 17.8198 10.0171 17.8198 11.4173C17.8198 12.8175 18.6763 13.9526 19.7329 13.9526ZM25.9724 15.2016C25.8515 16.5965 24.9003 17.6519 23.8477 17.559C22.7952 17.466 22.04 16.2599 22.1609 14.865C22.2819 13.4701 23.2331 12.4147 24.2856 12.5076C25.3381 12.6006 26.0933 13.8067 25.9724 15.2016ZM10.656 17.5592C11.7086 17.4663 12.4638 16.2602 12.3428 14.8653C12.2219 13.4704 11.2707 12.415 10.2182 12.5079C9.16566 12.6009 8.41045 13.807 8.53137 15.2019C8.65228 16.5967 9.60353 17.6522 10.656 17.5592Z" fill="#1F1F20"/>
</svg>
