<svg width="40" height="40" viewBox="0 0 40 40" fill="none" xmlns="http://www.w3.org/2000/svg">
<path d="M37.5993 20.7935C37.5993 11.5072 30.0714 3.97925 20.7851 3.97925C11.4989 3.97925 3.97092 11.5072 3.97092 20.7935C3.97092 30.0797 11.4989 37.6077 20.7851 37.6077C30.0714 37.6077 37.5993 30.0797 37.5993 20.7935Z" fill="#F8DFCB"/>
<path d="M27.7234 10.845C27.7014 10.62 27.606 10.4205 27.4642 10.2655C27.5433 10.1032 27.5809 9.91816 27.5619 9.7255C27.5201 9.30407 27.2248 8.96929 26.8418 8.85681C26.7639 8.32747 26.2839 7.9467 25.7459 7.9999C25.6775 8.00674 25.6113 8.02004 25.5479 8.0398C25.3408 7.79318 25.0197 7.64916 24.675 7.68336C24.4014 7.71034 24.1647 7.84448 24.0009 8.0398C23.9902 8.03638 23.9792 8.03448 23.9686 8.03144C23.8443 7.94138 23.7056 7.87184 23.5559 7.82776C23.4514 7.11829 22.8084 6.60833 22.0872 6.67939C21.9956 6.68851 21.9067 6.70675 21.8219 6.73259C21.5445 6.40199 21.1144 6.20933 20.6523 6.25493C20.2856 6.29103 19.9683 6.47115 19.749 6.73297C19.5822 6.68129 19.4025 6.66153 19.2174 6.67977C18.587 6.74209 18.1021 7.2285 18.0139 7.82852C17.8627 7.87298 17.724 7.94252 17.6009 8.0322C17.5906 8.03486 17.58 8.03714 17.5697 8.04018C17.3626 7.79356 17.0415 7.64954 16.6968 7.68374C16.4232 7.71072 16.1865 7.84486 16.0227 8.04018C15.8981 8.0018 15.7639 7.9866 15.626 8.00028C15.1555 8.04664 14.7938 8.40993 14.728 8.85757C14.2717 8.99133 13.9597 9.43366 14.0083 9.92424C14.0205 10.0466 14.0551 10.1614 14.106 10.2659C13.9205 10.4699 13.8176 10.7477 13.8468 11.0437C13.8787 11.3664 14.06 11.6377 14.3146 11.798C14.3028 11.8778 14.2998 11.9595 14.3078 12.0431C14.3591 12.5637 14.7972 12.9525 15.3094 12.9529C15.4831 13.3359 15.8855 13.5848 16.3271 13.5411C16.5015 13.524 16.6611 13.4632 16.796 13.3709C16.9849 13.4993 17.2178 13.5654 17.4629 13.5411C17.7491 13.513 17.9949 13.3671 18.1587 13.1569C18.3491 13.2588 18.5653 13.3165 18.7929 13.3165C19.0255 13.8299 19.5647 14.1632 20.1568 14.1047C20.3905 14.0815 20.604 14.0002 20.7853 13.8767C21.0384 14.0492 21.3504 14.1373 21.6791 14.1047C22.1772 14.0556 22.5842 13.7414 22.7769 13.3162C22.8198 13.3162 22.8632 13.3143 22.9065 13.3101C23.0889 13.2922 23.2587 13.2383 23.4107 13.1569C23.6163 13.4203 23.9477 13.5765 24.3049 13.5411C24.4793 13.524 24.6389 13.4632 24.7738 13.3709C24.9627 13.4993 25.1956 13.5654 25.4407 13.5411C25.8124 13.5043 26.116 13.2698 26.26 12.9529C26.2919 12.9529 26.3242 12.9513 26.3569 12.9483C26.9113 12.8936 27.3164 12.3996 27.2617 11.8452C27.2602 11.8292 27.2571 11.814 27.2549 11.7984C27.5684 11.6012 27.7618 11.2391 27.723 10.8454L27.7234 10.845Z" fill="#FFF5E4"/>
<path d="M27.8595 10.792C28.0031 10.6951 28.1312 10.4458 28.0711 10.2737C28.0236 10.1376 27.8427 10.0077 27.7025 9.99361C27.3928 9.96207 27.1489 10.1726 27.0941 10.4633C27.0542 10.6757 27.161 11.0025 27.424 11.0097C27.5745 11.0139 27.7071 10.9113 27.8595 10.792Z" fill="#E8BDA8"/>
<path d="M27.6911 10.6594C27.4977 10.6172 27.1907 10.708 27.096 10.8931C27.0212 11.0397 27.0565 11.2917 27.1553 11.4186C27.3734 11.6994 27.7394 11.7348 28.0233 11.5509C28.2304 11.4163 28.4158 11.0705 28.2144 10.8475C28.0993 10.7198 27.9096 10.6913 27.6911 10.6594Z" fill="#E8BDA8"/>
<path d="M27.7743 11.5622C27.7265 11.3601 27.5011 11.1108 27.283 11.1051C27.1101 11.1005 26.8878 11.2487 26.8126 11.3996C26.6457 11.7336 26.7784 12.0961 27.0816 12.2812C27.3031 12.4161 27.7147 12.4347 27.8344 12.1429C27.9028 11.9761 27.8439 11.7838 27.7747 11.5622H27.7743Z" fill="#E8BDA8"/>
<path d="M27.5794 12.6425C27.6812 12.4692 27.6904 12.1439 27.5418 11.9938C27.424 11.8753 27.1694 11.8297 27.0155 11.8848C26.6754 12.0068 26.5256 12.3492 26.6138 12.6813C26.6784 12.9237 26.9535 13.2121 27.2328 13.0883C27.3924 13.0172 27.4798 12.8435 27.5798 12.6421L27.5794 12.6425Z" fill="#E8BDA8"/>
<path d="M26.5348 12.3883C26.3444 12.3552 26.0484 12.4563 25.9636 12.641C25.8964 12.7873 25.9416 13.0316 26.043 13.1517C26.2676 13.417 26.6263 13.4363 26.8958 13.2448C27.0926 13.105 27.259 12.7599 27.0535 12.5506C26.9357 12.4308 26.7498 12.4107 26.5351 12.3887L26.5348 12.3883Z" fill="#E8BDA8"/>
<path d="M26.4447 13.5185C26.5564 13.3502 26.5838 13.0241 26.4428 12.8657C26.3311 12.7399 26.078 12.6806 25.9207 12.7273C25.5726 12.8311 25.4031 13.1662 25.4734 13.5044C25.5247 13.7514 25.7854 14.0562 26.0723 13.9468C26.2365 13.8844 26.3337 13.7146 26.4451 13.5185H26.4447Z" fill="#E8BDA8"/>
<path d="M25.7527 13.7593C25.8796 13.6 25.9355 13.2755 25.8078 13.1041C25.7067 12.9681 25.4582 12.8864 25.296 12.9194C24.9376 12.9928 24.7385 13.3143 24.7791 13.6597C24.8088 13.912 25.0436 14.2403 25.3408 14.1564C25.511 14.1081 25.6235 13.9466 25.7523 13.7593H25.7527Z" fill="#E8BDA8"/>
<path d="M24.7936 13.8614C24.9699 13.8097 25.18 13.5992 25.1751 13.4061C25.1713 13.2534 25.0303 13.0638 24.8931 13.0037C24.5907 12.8715 24.276 13.0056 24.1267 13.2819C24.0176 13.4837 24.0199 13.8481 24.2832 13.9404C24.4337 13.9932 24.6009 13.9324 24.7936 13.8614Z" fill="#E8BDA8"/>
<path d="M24.3209 13.5108C24.3634 13.3425 24.2928 13.0704 24.1328 12.9819C24.0062 12.912 23.7843 12.9355 23.6699 13.0187C23.4172 13.2019 23.3754 13.5222 23.5289 13.7765C23.641 13.9623 23.9393 14.1348 24.1408 13.9646C24.2559 13.8673 24.2867 13.7016 24.3209 13.5108Z" fill="#E8BDA8"/>
<path d="M23.5438 12.7869C23.4009 12.649 23.0908 12.5642 22.9122 12.6725C22.7708 12.758 22.6682 12.9917 22.6853 13.1525C22.7233 13.5074 23.0171 13.7309 23.3568 13.7233C23.6046 13.7179 23.9454 13.5203 23.8915 13.2235C23.8603 13.0537 23.7136 12.9294 23.5441 12.7869H23.5438Z" fill="#E8BDA8"/>
<path d="M22.753 13.9979C22.9509 13.9789 23.2177 13.798 23.2519 13.5917C23.2789 13.4283 23.1679 13.1976 23.0342 13.1061C22.7393 12.9039 22.3775 12.9818 22.1617 13.2451C22.0043 13.4374 21.9325 13.8258 22.194 13.9778C22.3433 14.0648 22.5337 14.034 22.753 13.9979Z" fill="#E8BDA8"/>
<path d="M22.3365 13.5334C22.1906 13.4046 21.8828 13.3354 21.7129 13.449C21.578 13.5391 21.4879 13.7728 21.5119 13.9293C21.5647 14.2751 21.8626 14.4815 22.1947 14.4591C22.4372 14.4427 22.7629 14.2341 22.6964 13.9457C22.6584 13.7808 22.5094 13.6656 22.3365 13.5334Z" fill="#E8BDA8"/>
<path d="M21.3439 13.5911C21.1539 13.5679 20.8662 13.6827 20.7918 13.8693C20.7325 14.0171 20.7891 14.2565 20.8959 14.3701C21.1311 14.6209 21.4868 14.6224 21.7437 14.4199C21.9314 14.2717 22.0788 13.9221 21.8649 13.7252C21.7425 13.6128 21.5575 13.6021 21.3443 13.5907L21.3439 13.5911Z" fill="#E8BDA8"/>
<path d="M21.06 14.166C21.1805 14.0338 21.2485 13.7518 21.1463 13.5938C21.0654 13.4687 20.8518 13.3825 20.7074 13.4022C20.3886 13.4459 20.1948 13.7169 20.2107 14.0228C20.2221 14.2462 20.4095 14.5479 20.6755 14.4913C20.8275 14.4586 20.9358 14.3234 21.0597 14.1664L21.06 14.166Z" fill="#E8BDA8"/>
<path d="M20.1389 13.5794C19.9546 13.4841 19.6187 13.4924 19.4724 13.6539C19.3565 13.782 19.3238 14.0468 19.3892 14.2026C19.5336 14.5466 19.895 14.6822 20.2324 14.5732C20.479 14.4934 20.7614 14.1935 20.6177 13.9127C20.5356 13.752 20.3517 13.6718 20.1389 13.5794Z" fill="#E8BDA8"/>
<path d="M19.249 13.424C19.0776 13.4118 18.8245 13.5281 18.766 13.6991C18.7196 13.8344 18.7815 14.0468 18.8822 14.1441C19.1049 14.3588 19.4241 14.3436 19.6457 14.1502C19.8072 14.0088 19.9238 13.6881 19.7228 13.5212C19.6077 13.4259 19.4412 13.4247 19.2493 13.4243L19.249 13.424Z" fill="#E8BDA8"/>
<path d="M18.7645 12.8525C18.579 12.8365 18.3035 12.9581 18.2378 13.1424C18.1857 13.2883 18.2492 13.519 18.3563 13.6254C18.5935 13.861 18.9393 13.8496 19.1817 13.6436C19.3588 13.4932 19.4899 13.1481 19.2752 12.9646C19.1524 12.8597 18.9723 12.8559 18.7645 12.8525Z" fill="#E8BDA8"/>
<path d="M18.5543 13.1934C18.579 13.0201 18.4795 12.7549 18.31 12.6831C18.1758 12.6261 17.9558 12.6736 17.8498 12.7689C17.6157 12.9795 17.6077 13.3047 17.7886 13.5438C17.9205 13.7182 18.2378 13.8599 18.4217 13.6677C18.527 13.5578 18.5399 13.3887 18.5543 13.1938V13.1934Z" fill="#E8BDA8"/>
<path d="M17.8559 13.7962C17.9794 13.6628 18.0512 13.3774 17.9486 13.2163C17.8676 13.0886 17.6518 12.999 17.5051 13.0176C17.181 13.059 16.9822 13.3322 16.9952 13.6427C17.0047 13.8696 17.192 14.1777 17.4626 14.1223C17.6172 14.0907 17.7282 13.9539 17.8555 13.7958L17.8559 13.7962Z" fill="#E8BDA8"/>
<path d="M17.2494 13.4907C17.3212 13.3072 17.2802 12.991 17.113 12.8686C16.9807 12.7717 16.7273 12.7672 16.5867 12.8443C16.2762 13.0146 16.1839 13.3691 16.3203 13.6773C16.4198 13.9023 16.7311 14.139 16.9819 13.976C17.1255 13.8825 17.1833 13.7009 17.249 13.4907H17.2494Z" fill="#E8BDA8"/>
<path d="M16.4973 13.6559C16.5927 13.4959 16.6037 13.1946 16.4669 13.0543C16.3586 12.9434 16.123 12.8997 15.9798 12.9498C15.6636 13.0604 15.5223 13.377 15.6021 13.6851C15.6602 13.9105 15.9133 14.1795 16.1728 14.0667C16.3214 14.0021 16.4035 13.8413 16.4973 13.6559Z" fill="#E8BDA8"/>
<path d="M15.8988 13.0707C15.9095 12.897 15.7894 12.6421 15.6157 12.5847C15.4782 12.5391 15.2639 12.6037 15.1666 12.7067C14.9515 12.9339 14.9701 13.2573 15.1681 13.4792C15.3129 13.6415 15.6385 13.7562 15.8054 13.551C15.9007 13.4336 15.9004 13.2653 15.8988 13.0707Z" fill="#E8BDA8"/>
<path d="M14.7828 12.3428C14.5988 12.325 14.3237 12.4432 14.2565 12.6252C14.2029 12.7696 14.2637 12.9991 14.3693 13.1063C14.6026 13.3426 14.9462 13.3354 15.1894 13.1333C15.3668 12.9858 15.501 12.6442 15.2893 12.4595C15.1685 12.3539 14.9895 12.3482 14.7831 12.3428H14.7828Z" fill="#E8BDA8"/>
<path d="M14.7691 11.8849C14.6547 11.7124 14.3579 11.5566 14.152 11.6265C13.989 11.682 13.8316 11.8967 13.8134 12.0643C13.7724 12.434 14.0213 12.7277 14.3686 12.7961C14.622 12.8463 15.0134 12.7217 15.0248 12.4074C15.0313 12.2277 14.9101 12.0681 14.7691 11.8849Z" fill="#E8BDA8"/>
<path d="M14.2975 12.0433C14.4788 12.0018 14.7041 11.8019 14.711 11.6066C14.7163 11.452 14.5856 11.2513 14.4507 11.1825C14.1527 11.0305 13.8271 11.1464 13.6587 11.4162C13.536 11.6135 13.5158 11.9821 13.7765 12.0915C13.9255 12.1542 14.0984 12.1029 14.2971 12.0429L14.2975 12.0433Z" fill="#E8BDA8"/>
<path d="M14.2572 10.6141C14.1558 10.4397 13.8757 10.2709 13.6709 10.3272C13.509 10.3716 13.3437 10.5719 13.316 10.7342C13.2548 11.0917 13.4805 11.3919 13.8149 11.4786C14.0589 11.5421 14.4472 11.4432 14.4761 11.1377C14.4928 10.9629 14.3838 10.8007 14.2569 10.6141H14.2572Z" fill="#E8BDA8"/>
<path d="M14.3845 9.86865C14.2489 9.73603 13.9528 9.65357 13.7818 9.75579C13.6462 9.83673 13.547 10.0598 13.5626 10.2133C13.5972 10.5527 13.8768 10.7677 14.201 10.7624C14.4377 10.7586 14.7649 10.5717 14.7144 10.2878C14.6855 10.1255 14.546 10.0058 14.3845 9.86865Z" fill="#E8BDA8"/>
<path d="M15.8581 17.7654C16.198 17.4256 16.198 16.8746 15.8583 16.5349C15.5185 16.1951 14.9676 16.1952 14.6277 16.535L14.1062 17.0566C13.7663 17.3964 13.7663 17.9473 14.106 18.2871C14.4458 18.6268 14.9967 18.6268 15.3366 18.287L15.8581 17.7654Z" fill="#EFC1A9"/>
<path d="M26.2342 18.2872C26.574 18.627 27.1249 18.6271 27.4647 18.2873C27.8044 17.9476 27.8044 17.3966 27.4646 17.0568L26.943 16.5352C26.6032 16.1954 26.0522 16.1953 25.7125 16.5351C25.3727 16.8749 25.3728 17.4258 25.7126 17.7656L26.2342 18.2872Z" fill="#EFC1A9"/>
<path d="M9.65272 28.7167C9.68844 29.0777 9.8412 29.3977 10.0684 29.6466C9.94153 29.9069 9.88111 30.2036 9.91189 30.513C9.97877 31.1894 10.453 31.7259 11.0675 31.9064C11.1925 32.7561 11.9624 33.3668 12.8261 33.2813C12.936 33.2707 13.042 33.2486 13.1438 33.2175C13.4759 33.6134 13.9912 33.8441 14.5441 33.7897C14.983 33.7464 15.363 33.531 15.6256 33.2175C15.6427 33.2228 15.6606 33.2262 15.6777 33.2308C15.8768 33.3755 16.0999 33.4873 16.3396 33.5576C16.5072 34.696 17.5389 35.5142 18.6964 35.4002C18.8435 35.3858 18.986 35.3565 19.122 35.3147C19.567 35.8452 20.2575 36.1545 20.9985 36.0815C21.5867 36.0234 22.0959 35.735 22.4478 35.3147C22.7157 35.3975 23.0041 35.4295 23.3005 35.4002C24.3121 35.3003 25.09 34.5197 25.2313 33.5572C25.4742 33.4861 25.6968 33.374 25.8945 33.23C25.9108 33.2254 25.9279 33.2224 25.9442 33.2175C26.2764 33.6134 26.7916 33.8441 27.3445 33.7897C27.7834 33.7464 28.1635 33.531 28.426 33.2175C28.6259 33.2794 28.8414 33.3033 29.0625 33.2813C29.8176 33.2068 30.3979 32.6243 30.5035 31.9061C31.2358 31.6917 31.7362 30.9815 31.6583 30.1945C31.639 29.9981 31.5835 29.8141 31.5018 29.6462C31.7997 29.319 31.9642 28.8729 31.9175 28.3982C31.8662 27.8807 31.5759 27.4452 31.167 27.1879C31.1856 27.0603 31.1909 26.9288 31.1776 26.7946C31.0952 25.9598 30.3922 25.3358 29.5706 25.335C29.2924 24.7202 28.6464 24.3212 27.9377 24.3915C27.658 24.4192 27.4019 24.5165 27.1853 24.6647C26.8825 24.4584 26.5085 24.3527 26.1156 24.3915C25.6562 24.4367 25.2621 24.6708 24.9992 25.0082C24.6936 24.8445 24.3463 24.7525 23.9819 24.7521C23.6087 23.9283 22.7435 23.3936 21.7938 23.4875C21.4188 23.5243 21.076 23.655 20.7853 23.8534C20.3795 23.5768 19.8786 23.4354 19.3516 23.4875C18.5524 23.5665 17.8996 24.0704 17.5899 24.7525C17.5211 24.7525 17.4515 24.7555 17.3816 24.7624C17.089 24.7913 16.8162 24.8775 16.5722 25.0082C16.242 24.5857 15.7104 24.3349 15.1373 24.3915C14.8576 24.4192 14.6015 24.5165 14.3849 24.6647C14.082 24.4584 13.7081 24.3527 13.3152 24.3915C12.719 24.4504 12.2314 24.8266 12.0008 25.3354C11.9495 25.3354 11.8978 25.3377 11.8453 25.343C10.9558 25.4308 10.3056 26.2235 10.3934 27.1131C10.396 27.1385 10.401 27.1629 10.4044 27.1879C9.90163 27.5045 9.59116 28.0855 9.65348 28.7171L9.65272 28.7167Z" fill="#FFF5E4"/>
<path d="M18.8632 27.3353C19.7665 28.2663 20.7853 28.2253 20.7853 28.2253C20.7853 28.2253 21.8041 28.2663 22.7074 27.3353C23.6106 26.4043 23.307 25.5691 23.1801 25.3225C23.0532 25.0758 22.7355 24.6445 21.8748 24.6445C21.4499 24.6445 21.2611 24.7228 21.0669 24.7848C20.8837 24.8433 20.6869 24.8433 20.5041 24.7848C20.3099 24.7228 20.121 24.6445 19.6962 24.6445C18.8351 24.6445 18.5178 25.0758 18.3909 25.3225C18.264 25.5691 17.9603 26.4043 18.8636 27.3353H18.8632Z" fill="#FF3855"/>
<path d="M14.9819 24.0438C15.7676 24.0438 16.4046 23.2842 16.4046 22.3471C16.4046 21.41 15.7676 20.6504 14.9819 20.6504C14.1961 20.6504 13.5591 21.41 13.5591 22.3471C13.5591 23.2842 14.1961 24.0438 14.9819 24.0438Z" fill="#1F1F20"/>
<path d="M26.5883 24.0438C27.3741 24.0438 28.0111 23.2842 28.0111 22.3471C28.0111 21.41 27.3741 20.6504 26.5883 20.6504C25.8026 20.6504 25.1656 21.41 25.1656 22.3471C25.1656 23.2842 25.8026 24.0438 26.5883 24.0438Z" fill="#1F1F20"/>
<path d="M20.7853 31.8413C21.3217 31.8413 21.7566 31.2979 21.7566 30.6275C21.7566 29.9572 21.3217 29.4138 20.7853 29.4138C20.2489 29.4138 19.814 29.9572 19.814 30.6275C19.814 31.2979 20.2489 31.8413 20.7853 31.8413Z" fill="#1F1F20"/>
<path d="M15.2403 21.8611C15.0491 21.9424 14.9367 22.0553 14.855 22.2464C14.7976 22.3809 14.6102 22.3809 14.5529 22.2464C14.4715 22.0553 14.3587 21.9428 14.1675 21.8611C14.033 21.8037 14.033 21.6163 14.1675 21.559C14.3587 21.4776 14.4712 21.3648 14.5529 21.1736C14.6102 21.0391 14.7976 21.0391 14.855 21.1736C14.9363 21.3648 15.0491 21.4773 15.2403 21.559C15.3748 21.6163 15.3748 21.8037 15.2403 21.8611Z" fill="white"/>
<path d="M26.8353 21.8611C26.6442 21.9424 26.5317 22.0553 26.45 22.2464C26.3926 22.3809 26.2053 22.3809 26.1479 22.2464C26.0666 22.0553 25.9537 21.9428 25.7626 21.8611C25.6281 21.8037 25.6281 21.6163 25.7626 21.559C25.9537 21.4776 26.0662 21.3648 26.1479 21.1736C26.2053 21.0391 26.3926 21.0391 26.45 21.1736C26.5313 21.3648 26.6442 21.4773 26.8353 21.559C26.9699 21.6163 26.9699 21.8037 26.8353 21.8611Z" fill="white"/>
<path d="M36.6588 7.78491C34.9096 8.53085 33.8798 9.56066 33.1339 11.3098C32.6087 12.5414 30.8945 12.5414 30.3694 11.3098C29.6234 9.56066 28.5936 8.53085 26.8444 7.78491C25.6129 7.25974 25.6129 5.54555 26.8444 5.02038C28.5936 4.27444 29.6234 3.24463 30.3694 1.49547C30.8945 0.26388 32.6087 0.26388 33.1339 1.49547C33.8798 3.24463 34.9096 4.27444 36.6588 5.02038C37.8904 5.54555 37.8904 7.25974 36.6588 7.78491Z" fill="#FFC200"/>
<path d="M36.1754 33.9441C35.0514 34.4237 34.3894 35.0853 33.9099 36.2097C33.5724 37.0012 32.4708 37.0012 32.1333 36.2097C31.6538 35.0856 30.9922 34.4237 29.8678 33.9441C29.0762 33.6067 29.0762 32.505 29.8678 32.1676C30.9918 31.688 31.6538 31.0264 32.1333 29.902C32.4708 29.1105 33.5724 29.1105 33.9099 29.902C34.3894 31.0261 35.051 31.688 36.1754 32.1676C36.967 32.505 36.967 33.6067 36.1754 33.9441Z" fill="#FFC200"/>
<path d="M11.2016 28.758C13.0308 28.758 14.5137 27.6802 14.5137 26.3507C14.5137 25.0212 13.0308 23.9434 11.2016 23.9434C9.37239 23.9434 7.88951 25.0212 7.88951 26.3507C7.88951 27.6802 9.37239 28.758 11.2016 28.758Z" fill="#FF94C5"/>
<path d="M30.369 28.7578C32.1982 28.7578 33.6811 27.68 33.6811 26.3504C33.6811 25.0209 32.1982 23.9431 30.369 23.9431C28.5398 23.9431 27.0569 25.0209 27.0569 26.3504C27.0569 27.68 28.5398 28.7578 30.369 28.7578Z" fill="#FF94C5"/>
<path d="M9.56988 20.7027C8.40175 21.2009 7.71432 21.8884 7.21652 23.0561C6.86577 23.8784 5.72158 23.8784 5.37084 23.0561C4.87266 21.888 4.18523 21.2006 3.01748 20.7027C2.19515 20.352 2.19515 19.2078 3.01748 18.8571C4.18561 18.3589 4.87304 17.6715 5.37084 16.5037C5.72158 15.6814 6.86577 15.6814 7.21652 16.5037C7.7147 17.6718 8.40213 18.3593 9.56988 18.8571C10.3922 19.2078 10.3922 20.352 9.56988 20.7027Z" fill="#FFC200"/>
<path d="M28.7806 6.6969C28.4925 6.6969 28.2182 6.5278 28.0981 6.24621C27.9373 5.86963 28.1125 5.43377 28.4891 5.27341C29.5873 4.80486 30.198 4.19458 30.6662 3.09637C30.8269 2.71978 31.2624 2.5446 31.639 2.70496C32.0155 2.8657 32.1907 3.30119 32.03 3.67777C31.4098 5.13204 30.5248 6.01707 29.0705 6.63724C28.9755 6.67752 28.8771 6.6969 28.7798 6.6969H28.7806Z" fill="white"/>
<path d="M4.38702 20.05C4.18562 20.05 3.99409 19.9318 3.91011 19.735C3.79801 19.4717 3.92037 19.1673 4.18334 19.0552C4.95094 18.728 5.37731 18.3012 5.70449 17.534C5.81659 17.2707 6.12097 17.1483 6.38432 17.2608C6.64766 17.3729 6.77002 17.6773 6.65754 17.9406C6.22433 18.9567 5.60569 19.575 4.58956 20.0086C4.52306 20.0367 4.45428 20.0504 4.38664 20.0504L4.38702 20.05Z" fill="white"/>
<path d="M31.1822 33.219C31.0017 33.219 30.8303 33.1133 30.7551 32.937C30.6544 32.7014 30.7642 32.4286 30.9998 32.3283C31.6872 32.0353 32.0691 31.653 32.3621 30.9659C32.4628 30.7303 32.7353 30.6205 32.9709 30.7212C33.2065 30.8219 33.3163 31.0944 33.2156 31.33C32.8276 32.2401 32.2736 32.7938 31.3634 33.1821C31.3042 33.2076 31.2422 33.2194 31.1818 33.2194L31.1822 33.219Z" fill="white"/>
</svg>
