<svg width="40" height="41" viewBox="0 0 40 41" fill="none" xmlns="http://www.w3.org/2000/svg">
<path fill-rule="evenodd" clip-rule="evenodd" d="M18.6603 2.45361C19.0513 2.42835 19.4456 2.41553 19.8427 2.41553C20.2398 2.41553 20.634 2.42835 21.025 2.45361C21.5499 2.48753 21.9479 2.94054 21.914 3.46543C21.8801 3.99032 21.4271 4.38833 20.9022 4.35441C20.552 4.33179 20.1988 4.32029 19.8427 4.32029C19.4866 4.32029 19.1333 4.33179 18.7832 4.35441C18.2583 4.38833 17.8053 3.99032 17.7714 3.46543C17.7374 2.94054 18.1354 2.48753 18.6603 2.45361ZM15.2388 3.96627C15.4078 4.46436 15.1411 5.00517 14.643 5.17421C13.9711 5.40223 13.319 5.67327 12.6899 5.98408C12.2184 6.21707 11.6472 6.02367 11.4142 5.5521C11.1812 5.08053 11.3746 4.50938 11.8462 4.27638C12.5497 3.9288 13.2791 3.62561 14.0308 3.37049C14.5289 3.20145 15.0697 3.46819 15.2388 3.96627ZM24.4466 3.96627C24.6156 3.46819 25.1564 3.20145 25.6545 3.37049C26.4062 3.62561 27.1357 3.92881 27.8391 4.27638C28.3107 4.50938 28.5041 5.08053 28.2711 5.5521C28.0381 6.02367 27.467 6.21707 26.9954 5.98408C26.3664 5.67327 25.7143 5.40223 25.0424 5.17421C24.5443 5.00517 24.2775 4.46436 24.4466 3.96627ZM9.26891 6.98851C9.61587 7.38383 9.57667 7.98557 9.18135 8.33253C8.65071 8.79826 8.15079 9.29817 7.68507 9.82881C7.3381 10.2241 6.73637 10.2633 6.34104 9.91637C5.94572 9.56941 5.90652 8.96767 6.25348 8.57235C6.77373 7.9796 7.33214 7.42119 7.92489 6.90094C8.32021 6.55398 8.92195 6.59318 9.26891 6.98851ZM4.90464 12.0617C5.37621 12.2947 5.56961 12.8658 5.33662 13.3374C5.02581 13.9664 4.75477 14.6185 4.52675 15.2904C4.35771 15.7885 3.8169 16.0553 3.31881 15.8862C2.82073 15.7172 2.55399 15.1764 2.72303 14.6783C2.97815 13.9266 3.28134 13.1971 3.62892 12.4936C3.86192 12.0221 4.43307 11.8287 4.90464 12.0617ZM34.7807 12.0617C35.2523 11.8287 35.8234 12.0221 36.0564 12.4936C36.404 13.1971 36.7072 13.9266 36.9623 14.6783C37.1313 15.1764 36.8646 15.7172 36.3665 15.8862C35.8684 16.0553 35.3276 15.7885 35.1586 15.2904C34.9306 14.6185 34.6595 13.9664 34.3487 13.3374C34.1157 12.8658 34.3091 12.2947 34.7807 12.0617ZM36.8674 18.4188C37.3923 18.3849 37.8453 18.7829 37.8792 19.3078C37.9044 19.6988 37.9173 20.093 37.9173 20.4901C37.9173 20.8872 37.9044 21.2815 37.8792 21.6725C37.8453 22.1974 37.3923 22.5954 36.8674 22.5614C36.3425 22.5275 35.9445 22.0745 35.9784 21.5496C36.001 21.1995 36.0125 20.8462 36.0125 20.4901C36.0125 20.134 36.001 19.7808 35.9784 19.4306C35.9445 18.9057 36.3425 18.4527 36.8674 18.4188ZM2.81797 18.4188C3.34286 18.4527 3.74087 18.9057 3.70695 19.4306C3.68432 19.7808 3.67283 20.134 3.67283 20.4901C3.67283 20.8462 3.68432 21.1995 3.70695 21.5496C3.74087 22.0745 3.34286 22.5275 2.81797 22.5614C2.29308 22.5954 1.84007 22.1974 1.80615 21.6725C1.78089 21.2815 1.76807 20.8872 1.76807 20.4901C1.76807 20.093 1.78089 19.6988 1.80615 19.3078C1.84007 18.7829 2.29308 18.3849 2.81797 18.4188ZM3.31881 25.094C3.8169 24.925 4.35771 25.1917 4.52675 25.6898C4.75477 26.3617 5.02581 27.0138 5.33662 27.6429C5.56961 28.1144 5.37621 28.6856 4.90464 28.9186C4.43307 29.1516 3.86192 28.9582 3.62892 28.4866C3.28134 27.7831 2.97815 27.0537 2.72303 26.302C2.55399 25.8039 2.82073 25.2631 3.31881 25.094ZM36.3665 25.094C36.8646 25.2631 37.1313 25.8039 36.9623 26.302C36.7072 27.0537 36.404 27.7831 36.0564 28.4866C35.8234 28.9582 35.2523 29.1516 34.7807 28.9186C34.3091 28.6856 34.1157 28.1144 34.3487 27.6429C34.6595 27.0138 34.9306 26.3617 35.1586 25.6898C35.3276 25.1917 35.8684 24.925 36.3665 25.094ZM6.34104 31.0639C6.73637 30.7169 7.3381 30.7561 7.68507 31.1514C8.15079 31.6821 8.65071 32.182 9.18135 32.6477C9.57667 32.9947 9.61587 33.5964 9.26891 33.9918C8.92195 34.3871 8.32021 34.4263 7.92489 34.0793C7.33214 33.5591 6.77373 33.0007 6.25348 32.4079C5.90652 32.0126 5.94572 31.4108 6.34104 31.0639ZM33.3443 31.0639C33.7396 31.4108 33.7788 32.0126 33.4319 32.4079C32.9116 33.0007 32.3532 33.5591 31.7604 34.0793C31.3651 34.4263 30.7634 34.3871 30.4164 33.9918C30.0695 33.5964 30.1087 32.9947 30.504 32.6477C31.0346 32.182 31.5345 31.6821 32.0003 31.1514C32.3472 30.7561 32.949 30.7169 33.3443 31.0639ZM11.4142 35.4282C11.6472 34.9566 12.2184 34.7632 12.6899 34.9962C13.319 35.307 13.9711 35.578 14.643 35.8061C15.1411 35.9751 15.4078 36.5159 15.2388 37.014C15.0697 37.5121 14.5289 37.7788 14.0308 37.6098C13.2791 37.3546 12.5497 37.0515 11.8462 36.7039C11.3746 36.4709 11.1812 35.8997 11.4142 35.4282ZM28.2711 35.4282C28.5041 35.8997 28.3107 36.4709 27.8391 36.7039C27.1357 37.0515 26.4062 37.3546 25.6545 37.6098C25.1564 37.7788 24.6156 37.5121 24.4466 37.014C24.2775 36.5159 24.5443 35.9751 25.0424 35.8061C25.7143 35.578 26.3664 35.307 26.9954 34.9962C27.467 34.7632 28.0381 34.9566 28.2711 35.4282ZM17.7714 37.5148C17.8053 36.9899 18.2583 36.5919 18.7832 36.6259C19.1333 36.6485 19.4866 36.66 19.8427 36.66C20.1988 36.66 20.552 36.6485 20.9022 36.6259C21.4271 36.5919 21.8801 36.9899 21.914 37.5148C21.9479 38.0397 21.5499 38.4927 21.025 38.5266C20.634 38.5519 20.2398 38.5647 19.8427 38.5647C19.4456 38.5647 19.0513 38.5519 18.6603 38.5266C18.1354 38.4927 17.7374 38.0397 17.7714 37.5148Z" fill="#D6DDE2"/>
<path d="M28.9107 14.9149C28.9107 15.3483 29.0663 15.7457 29.324 16.0541C29.0659 15.7457 28.9107 15.3483 28.9107 14.9149Z" fill="#EDF1F4"/>
<path d="M29.4325 16.1732C29.4325 16.1732 29.4298 16.1705 29.4287 16.1694C29.4298 16.1705 29.4314 16.1721 29.4325 16.1732Z" fill="#EDF1F4"/>
<path d="M14.3957 15.749H13.6447C13.1553 15.749 12.7585 16.1457 12.7585 16.6349C12.7585 17.1242 13.1553 17.5208 13.6447 17.5208H14.3957C14.8851 17.5208 15.2819 17.1242 15.2819 16.6349C15.2819 16.1457 14.8851 15.749 14.3957 15.749Z" fill="#D6DDE2"/>
<path d="M26.2141 15.749H25.463C24.9736 15.749 24.5769 16.1457 24.5769 16.6349C24.5769 17.1242 24.9736 17.5208 25.463 17.5208H26.2141C26.7035 17.5208 27.1002 17.1242 27.1002 16.6349C27.1002 16.1457 26.7035 15.749 26.2141 15.749Z" fill="#D6DDE2"/>
<path d="M21.039 24.0005C20.6064 24.0005 20.414 24.0802 20.2163 24.1433C20.0298 24.2029 19.8294 24.2029 19.6432 24.1433C19.4455 24.0802 19.2532 24.0005 18.8206 24.0005C17.9437 24.0005 17.6206 24.4397 17.4914 24.6908C17.3622 24.9419 17.053 25.7924 17.9728 26.7404C18.8925 27.6884 19.93 27.6467 19.93 27.6467C19.93 27.6467 20.9674 27.6884 21.8872 26.7404C22.8069 25.7924 22.4978 24.9419 22.3685 24.6908C22.2393 24.4397 21.9154 24.0005 21.039 24.0005Z" fill="#BFC9D0"/>
<path d="M14.02 23.388C14.8202 23.388 15.4688 22.6145 15.4688 21.6603C15.4688 20.7061 14.8202 19.9326 14.02 19.9326C13.2199 19.9326 12.5713 20.7061 12.5713 21.6603C12.5713 22.6145 13.2199 23.388 14.02 23.388Z" fill="#BFC9D0"/>
<path d="M25.8386 23.388C26.6388 23.388 27.2874 22.6145 27.2874 21.6603C27.2874 20.7061 26.6388 19.9326 25.8386 19.9326C25.0385 19.9326 24.3899 20.7061 24.3899 21.6603C24.3899 22.6145 25.0385 23.388 25.8386 23.388Z" fill="#BFC9D0"/>
<path d="M21.0162 29.0263L19.9358 29.5014L18.8411 29.0255C18.5996 28.9206 18.3187 29.0309 18.2135 29.2727C18.1086 29.5142 18.2189 29.7951 18.4607 29.9004L19.7466 30.4595C19.8073 30.4858 19.8719 30.499 19.9369 30.499C20.002 30.499 20.0677 30.4854 20.1289 30.4587L21.4 29.8996C21.6411 29.7936 21.7506 29.5123 21.6446 29.2712C21.5385 29.0301 21.2572 28.9206 21.0162 29.0266V29.0263Z" fill="#BFC9D0"/>
<path d="M33.8003 9.08502H35.0989C35.3626 9.08502 35.6015 8.97815 35.7742 8.80537C35.947 8.63259 36.0539 8.3939 36.0539 8.13004C36.0539 7.60255 35.6264 7.17506 35.0989 7.17506H33.1993V5.27529C33.1993 4.83034 32.8949 4.45629 32.483 4.35046C32.4525 4.34256 32.4215 4.33632 32.3899 4.33133C32.3425 4.32406 32.2938 4.32031 32.2445 4.32031C32.1292 4.32031 32.0185 4.34069 31.9163 4.37832C31.8431 4.40514 31.7743 4.44049 31.7106 4.48353C31.6853 4.50079 31.6607 4.51908 31.637 4.53842C31.6252 4.54819 31.6137 4.55817 31.6023 4.56836C31.5797 4.58895 31.558 4.61057 31.5374 4.63323C31.3834 4.8029 31.2894 5.02807 31.2894 5.27529V7.17506H29.3897C29.1854 7.17506 28.996 7.23952 28.8407 7.34889C28.824 7.36053 28.808 7.37259 28.7922 7.38527C28.7768 7.39775 28.7616 7.41043 28.7469 7.42374C28.5552 7.59839 28.4348 7.85018 28.4348 8.12984C28.4348 8.65733 28.8623 9.08482 29.3897 9.08482H31.2894V10.9846C31.2894 11.2175 31.373 11.431 31.5115 11.5967C31.5293 11.6181 31.5481 11.6387 31.5676 11.6583L31.569 11.6597C31.7418 11.8325 31.9805 11.9394 32.2443 11.9394C32.7718 11.9394 33.1993 11.5119 33.1993 10.9844V9.08461L33.8003 9.08502Z" fill="#D6DDE2"/>
<path d="M12.2494 11.2357C12.2738 10.9905 12.3785 10.7729 12.5338 10.6041C12.4468 10.4272 12.4059 10.2257 12.4267 10.0155C12.4723 9.55614 12.7968 9.19123 13.2168 9.06882C13.3022 8.49171 13.8291 8.07691 14.4194 8.13485C14.4944 8.14214 14.567 8.1571 14.6366 8.17821C14.8637 7.90922 15.2161 7.75228 15.5943 7.7895C15.8944 7.81905 16.1544 7.96524 16.3341 8.17821C16.3457 8.17476 16.358 8.17245 16.3696 8.169C16.5056 8.07077 16.6582 7.99479 16.8224 7.94683C16.9368 7.17363 17.6426 6.61762 18.4342 6.69514C18.535 6.70511 18.632 6.72468 18.7251 6.75308C19.0295 6.39277 19.5016 6.18249 20.0085 6.23237C20.4107 6.27189 20.7591 6.46797 20.9998 6.75308C21.1829 6.69705 21.3803 6.67518 21.5832 6.69514C22.2751 6.76305 22.8071 7.29335 22.9036 7.94721C23.0698 7.99556 23.222 8.07154 23.3572 8.16938C23.3684 8.17245 23.3804 8.17476 23.3912 8.17821C23.6184 7.90922 23.9707 7.75228 24.3489 7.7895C24.6491 7.81905 24.9091 7.96525 25.0887 8.17821C25.2255 8.13638 25.3727 8.11988 25.5241 8.13485C26.0406 8.1855 26.4374 8.58111 26.5097 9.0692C27.0107 9.21502 27.3526 9.69735 27.2997 10.2319C27.2866 10.3654 27.2483 10.4905 27.1927 10.6045C27.3963 10.8266 27.5091 11.1298 27.477 11.4525C27.4419 11.8044 27.2433 12.0998 26.9636 12.2748C26.9763 12.3615 26.9802 12.4509 26.9709 12.5422C26.9145 13.1094 26.4335 13.5334 25.8718 13.5338C25.6814 13.9513 25.2398 14.2225 24.7549 14.175C24.5637 14.1562 24.3887 14.0902 24.2403 13.9892C24.0333 14.1293 23.7775 14.2011 23.5086 14.175C23.1945 14.1443 22.9249 13.985 22.7449 13.7559C22.5359 13.8672 22.2986 13.9298 22.0491 13.9302C21.7941 14.4896 21.2022 14.853 20.5524 14.7893C20.2959 14.764 20.0614 14.6753 19.8628 14.5407C19.5854 14.7287 19.2428 14.8246 18.8823 14.7893C18.3357 14.7356 17.8891 14.3933 17.6774 13.9298C17.6302 13.9298 17.5827 13.9279 17.5348 13.9229C17.3347 13.9033 17.1481 13.8446 16.9812 13.7559C16.7556 14.043 16.3917 14.2133 15.9999 14.175C15.8087 14.1562 15.6337 14.0902 15.4853 13.9892C15.2782 14.1293 15.0225 14.2011 14.7536 14.175C14.3456 14.1351 14.0126 13.8795 13.8546 13.5338C13.8195 13.5338 13.7839 13.5322 13.7484 13.5288C13.1399 13.4689 12.6952 12.9306 12.7555 12.3262C12.7571 12.3089 12.7605 12.2924 12.7632 12.2756C12.4194 12.0607 12.2069 11.6658 12.2498 11.2368L12.2494 11.2357Z" fill="#EFF2F5"/>
</svg>
