<svg width="40" height="40" viewBox="0 0 40 40" fill="none" xmlns="http://www.w3.org/2000/svg">
<path d="M36.3692 20.7937C36.3692 11.5075 28.8412 3.97949 19.555 3.97949C10.2688 3.97949 2.7408 11.5075 2.7408 20.7937C2.7408 30.0799 10.2688 37.6079 19.555 37.6079C28.8412 37.6079 36.3692 30.0799 36.3692 20.7937Z" fill="#F8DFCB"/>
<path d="M8.42299 28.7167C8.45871 29.0777 8.61147 29.3977 8.83871 29.6466C8.71179 29.9069 8.65137 30.2036 8.68215 30.513C8.74903 31.1894 9.22328 31.7259 9.83774 31.9064C9.96276 32.7561 10.7326 33.3668 11.5964 33.2813C11.7062 33.2707 11.8122 33.2486 11.9141 33.2175C12.2462 33.6134 12.7615 33.8441 13.3144 33.7897C13.7533 33.7464 14.1333 33.531 14.3959 33.2175C14.413 33.2228 14.4308 33.2262 14.4479 33.2308C14.6471 33.3755 14.8701 33.4873 15.1099 33.5576C15.2775 34.696 16.3092 35.5142 17.4667 35.4002C17.6138 35.3858 17.7563 35.3565 17.8923 35.3147C18.3373 35.8452 19.0277 36.1545 19.7688 36.0815C20.357 36.0234 20.8662 35.735 21.2181 35.3147C21.486 35.3975 21.7744 35.4295 22.0708 35.4002C23.0824 35.3003 23.8602 34.5197 24.0016 33.5572C24.2444 33.4861 24.4671 33.374 24.6647 33.23C24.6811 33.2254 24.6982 33.2224 24.7145 33.2175C25.0466 33.6134 25.5619 33.8441 26.1148 33.7897C26.5537 33.7464 26.9337 33.531 27.1963 33.2175C27.3962 33.2794 27.6116 33.3033 27.8328 33.2813C28.5879 33.2068 29.1681 32.6243 29.2738 31.9061C30.006 31.6917 30.5065 30.9815 30.4286 30.1945C30.4092 29.9981 30.3537 29.8141 30.272 29.6462C30.57 29.319 30.7345 28.8729 30.6878 28.3983C30.6365 27.8807 30.3461 27.4452 29.9373 27.1879C29.9559 27.0603 29.9612 26.9288 29.9479 26.7946C29.8654 25.9598 29.1624 25.3358 28.3409 25.335C28.0627 24.7202 27.4167 24.3212 26.708 24.3915C26.4283 24.4192 26.1722 24.5165 25.9556 24.6647C25.6527 24.4584 25.2788 24.3527 24.8859 24.3915C24.4265 24.4367 24.0324 24.6708 23.7694 25.0082C23.4639 24.8445 23.1166 24.7525 22.7522 24.7521C22.379 23.9283 21.5137 23.3936 20.5641 23.4875C20.189 23.5243 19.8463 23.655 19.5556 23.8534C19.1497 23.5768 18.6489 23.4354 18.1218 23.4875C17.3227 23.5665 16.6698 24.0704 16.3601 24.7525C16.2913 24.7525 16.2218 24.7555 16.1519 24.7624C15.8593 24.7913 15.5864 24.8775 15.3425 25.0082C15.0122 24.5857 14.4806 24.3349 13.9076 24.3915C13.6279 24.4192 13.3718 24.5165 13.1552 24.6647C12.8523 24.4584 12.4784 24.3527 12.0855 24.3915C11.4892 24.4504 11.0017 24.8266 10.771 25.3354C10.7197 25.3354 10.668 25.3377 10.6156 25.343C9.72602 25.4308 9.07583 26.2235 9.16361 27.1131C9.16627 27.1385 9.17121 27.1629 9.17463 27.1879C8.67189 27.5045 8.36143 28.0855 8.42375 28.7171L8.42299 28.7167Z" fill="#FFF5E4"/>
<path d="M26.4933 10.845C26.4713 10.62 26.3759 10.4205 26.2341 10.2655C26.3132 10.1032 26.3508 9.91816 26.3318 9.7255C26.29 9.30407 25.9947 8.96929 25.6117 8.85681C25.5338 8.32747 25.0538 7.9467 24.5158 7.9999C24.4474 8.00674 24.3812 8.02004 24.3178 8.0398C24.1107 7.79318 23.7896 7.64916 23.4449 7.68336C23.1713 7.71034 22.9346 7.84448 22.7708 8.0398C22.7601 8.03638 22.7491 8.03448 22.7385 8.03144C22.6142 7.94138 22.4755 7.87184 22.3258 7.82776C22.2213 7.1183 21.5783 6.60833 20.8571 6.67939C20.7655 6.68851 20.6766 6.70675 20.5918 6.73259C20.3144 6.40199 19.8843 6.20933 19.4222 6.25493C19.0555 6.29103 18.7382 6.47115 18.5189 6.73297C18.3521 6.68129 18.1724 6.66153 17.9873 6.67977C17.3569 6.74209 16.872 7.2285 16.7838 7.82852C16.6326 7.87298 16.4939 7.94252 16.3708 8.0322C16.3605 8.03486 16.3499 8.03714 16.3396 8.04018C16.1325 7.79356 15.8114 7.64954 15.4667 7.68374C15.1931 7.71072 14.9564 7.84486 14.7926 8.04018C14.668 8.0018 14.5338 7.9866 14.3959 8.00028C13.9254 8.04664 13.5637 8.40993 13.4979 8.85757C13.0416 8.99133 12.7296 9.43366 12.7782 9.92424C12.7904 10.0466 12.825 10.1614 12.8759 10.2659C12.6904 10.4699 12.5875 10.7477 12.6167 11.0437C12.6486 11.3664 12.8299 11.6377 13.0845 11.798C13.0727 11.8778 13.0697 11.9595 13.0777 12.0431C13.129 12.5637 13.5671 12.9525 14.0793 12.9529C14.253 13.3359 14.6554 13.5848 15.097 13.5411C15.2714 13.524 15.431 13.4632 15.5659 13.3709C15.7548 13.4993 15.9877 13.5654 16.2328 13.5411C16.519 13.513 16.7648 13.3671 16.9286 13.1569C17.119 13.2588 17.3352 13.3165 17.5628 13.3165C17.7954 13.8299 18.3346 14.1632 18.9267 14.1047C19.1604 14.0815 19.3739 14.0002 19.5552 13.8767C19.8083 14.0492 20.1203 14.1373 20.449 14.1047C20.9471 14.0556 21.3541 13.7414 21.5468 13.3162C21.5897 13.3162 21.6331 13.3143 21.6764 13.3101C21.8588 13.2922 22.0286 13.2383 22.1806 13.1569C22.3862 13.4203 22.7176 13.5765 23.0748 13.5411C23.2492 13.524 23.4088 13.4632 23.5437 13.3709C23.7326 13.4993 23.9655 13.5654 24.2106 13.5411C24.5823 13.5043 24.8859 13.2698 25.0299 12.9529C25.0618 12.9529 25.0941 12.9513 25.1268 12.9483C25.6812 12.8936 26.0863 12.3996 26.0316 11.8452C26.0301 11.8292 26.027 11.814 26.0248 11.7984C26.3383 11.6012 26.5317 11.2391 26.4929 10.8454L26.4933 10.845Z" fill="#FFF5E4"/>
<path d="M26.6293 10.7917C26.773 10.6948 26.901 10.4456 26.841 10.2734C26.7935 10.1374 26.6126 10.0074 26.4724 9.99336C26.1627 9.96182 25.9187 10.1723 25.864 10.463C25.8241 10.6755 25.9309 11.0023 26.1939 11.0095C26.3443 11.0137 26.477 10.9111 26.6293 10.7917Z" fill="#E8BDA8"/>
<path d="M26.461 10.6594C26.2676 10.6172 25.9605 10.708 25.8659 10.8931C25.7911 11.0397 25.8264 11.2917 25.9252 11.4186C26.1433 11.6994 26.5093 11.7348 26.7931 11.5509C27.0002 11.4163 27.1857 11.0705 26.9843 10.8475C26.8691 10.7198 26.6795 10.6913 26.461 10.6594Z" fill="#E8BDA8"/>
<path d="M26.5442 11.5625C26.4963 11.3603 26.271 11.111 26.0529 11.1053C25.88 11.1008 25.6577 11.249 25.5824 11.3998C25.4156 11.7339 25.5482 12.0964 25.8515 12.2814C26.073 12.4163 26.4846 12.435 26.6043 12.1431C26.6727 11.9763 26.6138 11.784 26.5446 11.5625H26.5442Z" fill="#E8BDA8"/>
<path d="M26.3493 12.6423C26.4511 12.469 26.4602 12.1437 26.3117 11.9936C26.1939 11.875 25.9393 11.8294 25.7854 11.8845C25.4453 12.0065 25.2955 12.3489 25.3837 12.681C25.4483 12.9235 25.7234 13.2119 26.0027 13.088C26.1623 13.017 26.2497 12.8433 26.3497 12.6419L26.3493 12.6423Z" fill="#E8BDA8"/>
<path d="M25.3047 12.3885C25.1143 12.3555 24.8183 12.4566 24.7335 12.6412C24.6662 12.7875 24.7115 13.0319 24.8129 13.152C25.0375 13.4172 25.3962 13.4366 25.6657 13.2451C25.8625 13.1052 26.0289 12.7602 25.8234 12.5508C25.7056 12.4311 25.5197 12.411 25.305 12.3889L25.3047 12.3885Z" fill="#E8BDA8"/>
<path d="M25.2146 13.5185C25.3263 13.3502 25.3537 13.0241 25.2127 12.8657C25.101 12.7399 24.8479 12.6806 24.6906 12.7273C24.3425 12.8311 24.173 13.1662 24.2433 13.5044C24.2946 13.7514 24.5553 14.0562 24.8422 13.9468C25.0063 13.8844 25.1036 13.7146 25.215 13.5185H25.2146Z" fill="#E8BDA8"/>
<path d="M24.5226 13.7588C24.6495 13.5995 24.7054 13.275 24.5777 13.1036C24.4766 12.9676 24.2281 12.8859 24.0658 12.919C23.7075 12.9923 23.5084 13.3138 23.549 13.6592C23.5787 13.9115 23.8135 14.2398 24.1107 14.1559C24.2809 14.1076 24.3934 13.9461 24.5222 13.7588H24.5226Z" fill="#E8BDA8"/>
<path d="M23.5635 13.8614C23.7398 13.8097 23.9499 13.5992 23.945 13.4061C23.9412 13.2534 23.8002 13.0638 23.663 13.0037C23.3606 12.8715 23.0459 13.0056 22.8966 13.2819C22.7875 13.4837 22.7898 13.8481 23.0531 13.9404C23.2036 13.9932 23.3708 13.9324 23.5635 13.8614Z" fill="#E8BDA8"/>
<path d="M23.0908 13.5113C23.1333 13.343 23.0626 13.0709 22.9027 12.9824C22.7761 12.9124 22.5542 12.936 22.4398 13.0192C22.1871 13.2024 22.1453 13.5227 22.2988 13.777C22.4109 13.9628 22.7092 14.1353 22.9106 13.9651C23.0258 13.8678 23.0566 13.7021 23.0908 13.5113Z" fill="#E8BDA8"/>
<path d="M22.3136 12.7872C22.1708 12.6492 21.8607 12.5645 21.6821 12.6728C21.5407 12.7583 21.4381 12.992 21.4552 13.1527C21.4932 13.5077 21.787 13.7311 22.1267 13.7235C22.3744 13.7182 22.7153 13.5206 22.6613 13.2238C22.6302 13.0539 22.4835 12.9297 22.314 12.7872H22.3136Z" fill="#E8BDA8"/>
<path d="M21.5229 13.9974C21.7208 13.9784 21.9876 13.7976 22.0218 13.5912C22.0488 13.4278 21.9378 13.1972 21.8041 13.1056C21.5092 12.9034 21.1474 12.9813 20.9316 13.2447C20.7743 13.4369 20.7024 13.8253 20.9639 13.9773C21.1132 14.0643 21.3036 14.0335 21.5229 13.9974Z" fill="#E8BDA8"/>
<path d="M21.1064 13.5331C20.9604 13.4043 20.6526 13.3351 20.4828 13.4488C20.3479 13.5388 20.2578 13.7725 20.2818 13.9291C20.3346 14.2749 20.6325 14.4812 20.9646 14.4588C21.2071 14.4425 21.5327 14.2339 21.4662 13.9454C21.4282 13.7805 21.2793 13.6654 21.1064 13.5331Z" fill="#E8BDA8"/>
<path d="M20.1138 13.5909C19.9238 13.5677 19.6361 13.6824 19.5617 13.869C19.5024 14.0168 19.559 14.2562 19.6658 14.3699C19.901 14.6207 20.2567 14.6222 20.5136 14.4196C20.7013 14.2714 20.8487 13.9218 20.6348 13.725C20.5124 13.6125 20.3274 13.6019 20.1142 13.5905L20.1138 13.5909Z" fill="#E8BDA8"/>
<path d="M19.8299 14.166C19.9504 14.0338 20.0184 13.7518 19.9162 13.5938C19.8353 13.4687 19.6217 13.3825 19.4773 13.4022C19.1585 13.4459 18.9647 13.7169 18.9806 14.0228C18.992 14.2462 19.1794 14.5479 19.4454 14.4913C19.5974 14.4586 19.7057 14.3234 19.8296 14.1664L19.8299 14.166Z" fill="#E8BDA8"/>
<path d="M18.9088 13.579C18.7245 13.4836 18.3886 13.4919 18.2423 13.6534C18.1264 13.7815 18.0937 14.0464 18.1591 14.2022C18.3035 14.5461 18.6649 14.6817 19.0023 14.5727C19.2489 14.4929 19.5313 14.193 19.3876 13.9122C19.3055 13.7515 19.1216 13.6713 18.9088 13.579Z" fill="#E8BDA8"/>
<path d="M18.0188 13.4237C17.8475 13.4116 17.5944 13.5278 17.5359 13.6988C17.4895 13.8341 17.5514 14.0465 17.6521 14.1438C17.8748 14.3585 18.194 14.3433 18.4156 14.1499C18.5771 14.0085 18.6937 13.6878 18.4927 13.521C18.3776 13.4256 18.2111 13.4245 18.0192 13.4241L18.0188 13.4237Z" fill="#E8BDA8"/>
<path d="M17.5343 12.8522C17.3489 12.8363 17.0734 12.9579 17.0076 13.1422C16.9556 13.2881 17.019 13.5188 17.1262 13.6252C17.3633 13.8608 17.7091 13.8494 17.9516 13.6434C18.1287 13.4929 18.2598 13.1479 18.0451 12.9643C17.9223 12.8595 17.7422 12.8557 17.5343 12.8522Z" fill="#E8BDA8"/>
<path d="M17.3242 13.1937C17.3489 13.0204 17.2493 12.7551 17.0799 12.6833C16.9457 12.6263 16.7257 12.6738 16.6197 12.7692C16.3856 12.9797 16.3776 13.305 16.5585 13.544C16.6904 13.7184 17.0077 13.8602 17.1916 13.6679C17.2968 13.5581 17.3098 13.389 17.3242 13.194V13.1937Z" fill="#E8BDA8"/>
<path d="M16.6258 13.7962C16.7493 13.6628 16.8211 13.3774 16.7185 13.2163C16.6375 13.0886 16.4217 12.999 16.275 13.0176C15.9509 13.059 15.7521 13.3322 15.765 13.6427C15.7745 13.8696 15.9619 14.1777 16.2325 14.1223C16.3871 14.0907 16.4981 13.9539 16.6254 13.7958L16.6258 13.7962Z" fill="#E8BDA8"/>
<path d="M16.0193 13.491C16.0911 13.3074 16.05 12.9913 15.8828 12.8689C15.7506 12.772 15.4971 12.7674 15.3565 12.8446C15.0461 13.0148 14.9537 13.3694 15.0902 13.6775C15.1897 13.9025 15.5009 14.1392 15.7517 13.9762C15.8954 13.8827 15.9531 13.7011 16.0189 13.491H16.0193Z" fill="#E8BDA8"/>
<path d="M15.2672 13.6559C15.3626 13.4959 15.3736 13.1946 15.2368 13.0543C15.1285 12.9434 14.8929 12.8997 14.7497 12.9498C14.4335 13.0604 14.2921 13.377 14.3719 13.6851C14.4301 13.9105 14.6832 14.1795 14.9427 14.0667C15.0913 14.0021 15.1734 13.8413 15.2672 13.6559Z" fill="#E8BDA8"/>
<path d="M14.6687 13.0707C14.6794 12.897 14.5593 12.6421 14.3856 12.5847C14.2481 12.5391 14.0338 12.6037 13.9365 12.7067C13.7214 12.9339 13.74 13.2573 13.938 13.4792C14.0828 13.6415 14.4084 13.7562 14.5753 13.551C14.6706 13.4336 14.6703 13.2653 14.6687 13.0707Z" fill="#E8BDA8"/>
<path d="M13.5527 12.3426C13.3687 12.3247 13.0936 12.4429 13.0264 12.6249C12.9728 12.7693 13.0336 12.9989 13.1392 13.106C13.3725 13.3424 13.7161 13.3352 13.9593 13.133C14.1367 12.9856 14.2709 12.6439 14.0592 12.4593C13.9384 12.3536 13.7594 12.3479 13.5531 12.3426H13.5527Z" fill="#E8BDA8"/>
<path d="M13.539 11.8849C13.4246 11.7124 13.1278 11.5566 12.9219 11.6265C12.7588 11.682 12.6015 11.8967 12.5833 12.0643C12.5422 12.434 12.7911 12.7277 13.1385 12.7961C13.3919 12.8463 13.7833 12.7217 13.7947 12.4074C13.8012 12.2277 13.68 12.0681 13.539 11.8849Z" fill="#E8BDA8"/>
<path d="M13.0674 12.0435C13.2487 12.0021 13.474 11.8022 13.4808 11.6069C13.4862 11.4522 13.3554 11.2516 13.2205 11.1828C12.9226 11.0308 12.5969 11.1467 12.4286 11.4165C12.3059 11.6137 12.2857 11.9823 12.5464 12.0918C12.6954 12.1545 12.8683 12.1032 13.067 12.0431L13.0674 12.0435Z" fill="#E8BDA8"/>
<path d="M13.0271 10.6141C12.9257 10.4397 12.6456 10.2709 12.4408 10.3272C12.2789 10.3716 12.1136 10.5719 12.0858 10.7342C12.0247 11.0917 12.2504 11.3919 12.5848 11.4786C12.8288 11.5421 13.2171 11.4432 13.246 11.1377C13.2627 10.9629 13.1537 10.8007 13.0267 10.6141H13.0271Z" fill="#E8BDA8"/>
<path d="M13.1544 9.86817C13.0188 9.73554 12.7227 9.65308 12.5517 9.7553C12.4161 9.83624 12.3169 10.0593 12.3325 10.2128C12.3671 10.5522 12.6467 10.7673 12.9709 10.7619C13.2076 10.7581 13.5348 10.5712 13.4843 10.2873C13.4554 10.125 13.3159 10.0053 13.1544 9.86817Z" fill="#E8BDA8"/>
<path d="M19.5624 30.7805C19.499 30.7805 19.4351 30.7675 19.3755 30.7417L18.1127 30.1926C17.8756 30.0896 17.7669 29.8134 17.8699 29.5762C17.9729 29.3391 18.2491 29.2304 18.4862 29.3334L19.5613 29.8008L20.6222 29.3342C20.859 29.2301 21.1352 29.3376 21.2394 29.5743C21.3435 29.8111 21.2359 30.0873 20.9992 30.1915L19.7509 30.7406C19.6909 30.7672 19.6266 30.7801 19.5624 30.7801V30.7805Z" fill="#1F1F20"/>
<path d="M17.6331 27.3358C18.5364 28.2668 19.5552 28.2258 19.5552 28.2258C19.5552 28.2258 20.574 28.2668 21.4773 27.3358C22.3805 26.4048 22.0769 25.5696 21.95 25.3229C21.8231 25.0763 21.5054 24.645 20.6447 24.645C20.2198 24.645 20.031 24.7233 19.8368 24.7852C19.6536 24.8438 19.4568 24.8438 19.274 24.7852C19.0798 24.7233 18.891 24.645 18.4661 24.645C17.605 24.645 17.2877 25.0763 17.1608 25.3229C17.0339 25.5696 16.7303 26.4048 17.6335 27.3358H17.6331Z" fill="#FF3855"/>
<path d="M13.9536 18.2808C14.4342 18.2808 14.8238 17.8913 14.8238 17.4108C14.8238 16.9303 14.4342 16.5408 13.9536 16.5408H13.216C12.7354 16.5408 12.3458 16.9303 12.3458 17.4108C12.3458 17.8913 12.7354 18.2808 13.216 18.2808H13.9536Z" fill="#EFC1A9"/>
<path d="M25.9932 18.2806C26.4738 18.2806 26.8634 17.891 26.8634 17.4105C26.8634 16.93 26.4738 16.5405 25.9932 16.5405H25.2556C24.775 16.5405 24.3854 16.93 24.3854 17.4105C24.3854 17.891 24.775 18.2806 25.2556 18.2806H25.9932Z" fill="#EFC1A9"/>
<path d="M10.841 21.4436C10.8478 20.5882 11.5364 19.8403 12.3849 19.8369C12.8717 19.8403 13.303 20.063 13.5812 20.4214C13.8662 20.063 14.2975 19.8407 14.7915 19.8369C15.6332 19.8403 16.3252 20.5882 16.3286 21.4436C16.3252 22.0732 16.0922 22.6014 15.6332 23.0643L14.318 24.3749C13.911 24.7804 13.2525 24.78 12.8462 24.3738L11.5367 23.0643C11.0777 22.6018 10.8482 22.0732 10.8413 21.4436H10.841Z" fill="#FF3855"/>
<path d="M11.6002 21.7141C11.4121 21.7141 11.2593 21.5613 11.2593 21.3732C11.2593 20.7196 11.791 20.188 12.4446 20.188C12.6327 20.188 12.7854 20.3404 12.7854 20.5289C12.7854 20.7173 12.633 20.8697 12.4446 20.8697C12.1668 20.8697 11.9411 21.0958 11.9411 21.3732C11.9411 21.5613 11.7887 21.7141 11.6002 21.7141Z" fill="white"/>
<path d="M22.7818 21.4436C22.7886 20.5882 23.4772 19.8403 24.3258 19.8369C24.8125 19.8403 25.2438 20.063 25.522 20.4214C25.807 20.063 26.2383 19.8407 26.7323 19.8369C27.574 19.8403 28.266 20.5882 28.2694 21.4436C28.266 22.0732 28.0331 22.6014 27.574 23.0643L26.2588 24.3749C25.8519 24.7804 25.1933 24.78 24.7871 24.3738L23.4776 23.0643C23.0185 22.6018 22.789 22.0732 22.7822 21.4436H22.7818Z" fill="#FF3855"/>
<path d="M23.5407 21.7141C23.3526 21.7141 23.1998 21.5613 23.1998 21.3732C23.1998 20.7196 23.7314 20.188 24.385 20.188C24.5731 20.188 24.7259 20.3404 24.7259 20.5289C24.7259 20.7173 24.5731 20.8697 24.385 20.8697C24.1073 20.8697 23.8815 21.0958 23.8815 21.3732C23.8815 21.5613 23.7288 21.7141 23.5407 21.7141Z" fill="white"/>
<path d="M25.7112 5.98765C25.7272 4.03063 27.3023 2.32024 29.2434 2.31226C30.3572 2.32024 31.3437 2.82944 31.9802 3.64873C32.6326 2.82944 33.6191 2.32024 34.7485 2.31226C36.6736 2.32024 38.2567 4.03063 38.2647 5.98765C38.2567 7.42748 37.7239 8.63665 36.6736 9.69496L33.6647 12.6936C32.7337 13.6215 31.227 13.62 30.2979 12.6905L27.3023 9.69496C26.2524 8.63665 25.7272 7.42786 25.7112 5.98765Z" fill="#FF55B2"/>
<path d="M1.73531 31.8961C1.74747 30.3996 2.9517 29.092 4.43599 29.0859C5.28758 29.092 6.04189 29.4815 6.52829 30.1078C7.02686 29.4811 7.78116 29.092 8.64491 29.0859C10.1167 29.092 11.3274 30.3996 11.3334 31.8961C11.3274 32.9969 10.92 33.9215 10.117 34.7305L7.81688 37.0231C7.10514 37.7325 5.95335 37.7314 5.24274 37.0208L2.95246 34.7305C2.14951 33.9215 1.74823 32.9969 1.73607 31.8961H1.73531Z" fill="#FF92CE"/>
<path d="M27.5467 6.75208C27.137 6.75208 26.8053 6.41996 26.8053 6.0107C26.8053 4.56288 27.9833 3.38525 29.4307 3.38525C29.8404 3.38525 30.1721 3.71738 30.1721 4.12664C30.1721 4.5359 29.84 4.86803 29.4307 4.86803C28.8007 4.86803 28.2881 5.38065 28.2881 6.0107C28.2881 6.42034 27.9559 6.75208 27.5467 6.75208Z" fill="white"/>
<path d="M3.0296 32.3063C2.72902 32.3063 2.48506 32.0623 2.48506 31.7617C2.48506 30.6989 3.34995 29.834 4.41282 29.834C4.7134 29.834 4.95736 30.0779 4.95736 30.3785C4.95736 30.6791 4.7134 30.9231 4.41282 30.9231C3.95035 30.9231 3.57377 31.2993 3.57377 31.7621C3.57377 32.0627 3.32981 32.3067 3.02922 32.3067L3.0296 32.3063Z" fill="white"/>
<path d="M8.47429 26.1907C8.29493 26.1907 8.12469 26.0839 8.05211 25.9076L7.49198 24.5422C7.39622 24.3093 7.50794 24.0429 7.74089 23.9471C7.97383 23.8514 8.24021 23.9631 8.33597 24.196L8.8961 25.5614C8.99186 25.7943 8.88014 26.0607 8.64719 26.1565C8.59057 26.1797 8.53205 26.1907 8.47429 26.1907Z" fill="#FF94C5"/>
<path d="M10.5784 26.0305C10.399 26.0305 10.2288 25.9237 10.1562 25.7474L9.59605 24.3821C9.50029 24.1491 9.61201 23.8827 9.84495 23.787C10.0779 23.6912 10.3443 23.8029 10.44 24.0359L11.0002 25.4012C11.0959 25.6342 10.9842 25.9006 10.7513 25.9963C10.6946 26.0195 10.6361 26.0305 10.5784 26.0305Z" fill="#FF94C5"/>
<path d="M29.3373 26.1907C29.1579 26.1907 28.9876 26.0839 28.9151 25.9076L28.3549 24.5422C28.2592 24.3093 28.3709 24.0429 28.6038 23.9471C28.8368 23.8514 29.1032 23.9631 29.1989 24.196L29.7591 25.5614C29.8548 25.7943 29.7431 26.0607 29.5102 26.1565C29.4535 26.1797 29.395 26.1907 29.3373 26.1907Z" fill="#FF94C5"/>
<path d="M31.4413 26.0305C31.262 26.0305 31.0917 25.9237 31.0192 25.7474L30.459 24.3821C30.3633 24.1491 30.475 23.8827 30.7079 23.787C30.9409 23.6912 31.2073 23.8029 31.303 24.0359L31.8631 25.4012C31.9589 25.6342 31.8472 25.9006 31.6142 25.9963C31.5576 26.0195 31.4991 26.0305 31.4413 26.0305Z" fill="#FF94C5"/>
</svg>
