<svg width="24" height="24" viewBox="0 0 24 24" fill="none" xmlns="http://www.w3.org/2000/svg">
  <path fill-rule="evenodd" clip-rule="evenodd"
    d="M22 12C22 17.5228 17.5228 22 12 22C6.47715 22 2 17.5228 2 12C2 6.47715 6.47715 2 12 2C17.5228 2 22 6.47715 22 12ZM8.79706 13.396C8.46488 12.9577 7.84064 12.8698 7.4002 13.2001C6.95838 13.5315 6.86883 14.1583 7.2002 14.6001L8.0002 14.0001C7.2002 14.6001 7.19996 14.5998 7.2002 14.6001L7.20121 14.6015L7.20237 14.603L7.20511 14.6066L7.21232 14.616L7.23361 14.6433C7.25085 14.6651 7.27421 14.694 7.30357 14.7289C7.36221 14.7988 7.4452 14.8935 7.55165 15.0045C7.76373 15.2258 8.07364 15.5173 8.47453 15.8089C9.27247 16.3892 10.4747 17.0001 12.0002 17.0001C13.5257 17.0001 14.7279 16.3892 15.5259 15.8089C15.9268 15.5173 16.2367 15.2258 16.4488 15.0045C16.5552 14.8935 16.6382 14.7988 16.6968 14.7289C16.7262 14.694 16.7496 14.6651 16.7668 14.6433L16.7881 14.616L16.7953 14.6066L16.798 14.603L16.7992 14.6015C16.7994 14.6012 16.8002 14.6001 16.0002 14.0001L16.8002 14.6001C17.1316 14.1583 17.042 13.5315 16.6002 13.2001C16.1598 12.8698 15.5355 12.9577 15.2033 13.396L15.1987 13.4019C15.1927 13.4094 15.1814 13.4235 15.1649 13.4432C15.1317 13.4827 15.078 13.5443 15.0048 13.6207C14.8575 13.7744 14.6361 13.983 14.3495 14.1914C13.7725 14.6111 12.9747 15.0001 12.0002 15.0001C11.0257 15.0001 10.2279 14.6111 9.65088 14.1914C9.36427 13.983 9.14293 13.7744 8.99563 13.6207C8.92239 13.5443 8.86867 13.4827 8.83551 13.4432C8.81897 13.4235 8.80766 13.4094 8.80171 13.4019L8.79706 13.396ZM9.64157 10.5141C10.2899 10.1648 10.5323 9.35614 10.183 8.70785C9.83379 8.05956 9.02512 7.81714 8.37683 8.16639L8.36783 8.17124C7.71954 8.52049 7.47712 9.32915 7.82637 9.97744C8.17562 10.6257 8.98428 10.8682 9.63257 10.5189L9.64157 10.5141ZM16.0416 10.5141C16.6899 10.1648 16.9323 9.35615 16.5831 8.70786C16.2338 8.05957 15.4252 7.81714 14.7769 8.16639L14.7679 8.17124C14.1196 8.52048 13.8772 9.32915 14.2264 9.97744C14.5756 10.6257 15.3843 10.8682 16.0326 10.5189L16.0416 10.5141Z"
    fill="#BFC9D0" />
</svg>