<svg width="40" height="40" viewBox="0 0 40 40" fill="none" xmlns="http://www.w3.org/2000/svg">
<path d="M36.7701 20.7934C36.7701 11.5072 29.2422 3.97925 19.9559 3.97925C10.6697 3.97925 3.14174 11.5072 3.14174 20.7934C3.14174 30.0797 10.6697 37.6077 19.9559 37.6077C29.2422 37.6077 36.7701 30.0797 36.7701 20.7934Z" fill="#F8DFCB"/>
<path d="M26.8942 10.8452C26.8722 10.6203 26.7768 10.4208 26.6351 10.2657C26.7141 10.1035 26.7517 9.9184 26.7327 9.72574C26.6909 9.30432 26.3957 8.96954 26.0126 8.85706C25.9347 8.32771 25.4548 7.94695 24.9167 8.00015C24.8483 8.00699 24.7822 8.02029 24.7187 8.04005C24.5116 7.79343 24.1905 7.6494 23.8458 7.6836C23.5722 7.71058 23.3355 7.84473 23.1717 8.04005C23.1611 8.03663 23.15 8.03473 23.1394 8.03169C23.0151 7.94163 22.8764 7.87209 22.7267 7.82801C22.6222 7.11854 21.9793 6.60857 21.258 6.67964C21.1664 6.68876 21.0775 6.707 20.9928 6.73284C20.7154 6.40223 20.2852 6.20957 19.8231 6.25517C19.4564 6.29127 19.1391 6.47139 18.9198 6.73322C18.753 6.68154 18.5733 6.66177 18.3882 6.68001C17.7578 6.74234 17.2729 7.22874 17.1848 7.82877C17.0335 7.87323 16.8948 7.94277 16.7717 8.03245C16.7614 8.03511 16.7508 8.03739 16.7405 8.04043C16.5334 7.79381 16.2123 7.64978 15.8677 7.68398C15.5941 7.71096 15.3573 7.84511 15.1935 8.04043C15.0689 8.00205 14.9348 7.98685 14.7968 8.00053C14.3264 8.04689 13.9646 8.41017 13.8989 8.85782C13.4425 8.99158 13.1305 9.4339 13.1791 9.92448C13.1913 10.0468 13.2259 10.1616 13.2768 10.2661C13.0914 10.4702 12.9884 10.748 13.0176 11.044C13.0496 11.3666 13.2308 11.6379 13.4854 11.7983C13.4736 11.8781 13.4706 11.9598 13.4786 12.0434C13.5299 12.564 13.968 12.9527 14.4803 12.9531C14.6539 13.3362 15.0564 13.5851 15.4979 13.5414C15.6723 13.5243 15.8319 13.4635 15.9668 13.3711C16.1557 13.4996 16.3886 13.5657 16.6337 13.5414C16.9199 13.5132 17.1658 13.3673 17.3295 13.1572C17.5199 13.259 17.7361 13.3168 17.9638 13.3168C18.1963 13.8302 18.7355 14.1634 19.3276 14.1049C19.5613 14.0817 19.7749 14.0004 19.9561 13.8769C20.2092 14.0494 20.5212 14.1376 20.8499 14.1049C21.3481 14.0559 21.7551 13.7416 21.9477 13.3164C21.9907 13.3164 22.034 13.3145 22.0773 13.3103C22.2597 13.2925 22.4296 13.2385 22.5816 13.1572C22.7871 13.4205 23.1185 13.5767 23.4757 13.5414C23.6501 13.5243 23.8097 13.4635 23.9446 13.3711C24.1335 13.4996 24.3664 13.5657 24.6115 13.5414C24.9832 13.5045 25.2868 13.27 25.4308 12.9531C25.4627 12.9531 25.495 12.9516 25.5277 12.9486C26.0822 12.8938 26.4872 12.3998 26.4325 11.8454C26.431 11.8294 26.428 11.8142 26.4257 11.7987C26.7392 11.6014 26.9326 11.2393 26.8938 10.8456L26.8942 10.8452Z" fill="#FFF5E4"/>
<path d="M27.0303 10.7922C27.1739 10.6953 27.302 10.4461 27.2419 10.2739C27.1944 10.1379 27.0136 10.0079 26.8733 9.99385C26.5636 9.96231 26.3197 10.1728 26.265 10.4635C26.2251 10.676 26.3318 11.0028 26.5948 11.01C26.7453 11.0142 26.8779 10.9116 27.0303 10.7922Z" fill="#E8BDA8"/>
<path d="M26.8619 10.6596C26.6685 10.6174 26.3615 10.7082 26.2669 10.8933C26.192 11.04 26.2273 11.2919 26.3261 11.4189C26.5443 11.6997 26.9102 11.735 27.1941 11.5511C27.4012 11.4166 27.5866 11.0708 27.3852 10.8477C27.2701 10.72 27.0804 10.6915 26.8619 10.6596Z" fill="#E8BDA8"/>
<path d="M26.9452 11.5627C26.8973 11.3606 26.6719 11.1113 26.4538 11.1056C26.2809 11.101 26.0586 11.2492 25.9834 11.4001C25.8165 11.7341 25.9492 12.0966 26.2524 12.2817C26.474 12.4166 26.8855 12.4352 27.0052 12.1434C27.0736 11.9765 27.0147 11.7843 26.9455 11.5627H26.9452Z" fill="#E8BDA8"/>
<path d="M26.7502 12.6428C26.8521 12.4695 26.8612 12.1442 26.7126 11.9941C26.5948 11.8755 26.3402 11.8299 26.1863 11.885C25.8462 12.007 25.6965 12.3494 25.7846 12.6815C25.8492 12.924 26.1244 13.2124 26.4037 13.0885C26.5633 13.0174 26.6507 12.8438 26.7506 12.6424L26.7502 12.6428Z" fill="#E8BDA8"/>
<path d="M25.7056 12.389C25.5152 12.356 25.2192 12.457 25.1345 12.6417C25.0672 12.788 25.1124 13.0324 25.2139 13.1524C25.4385 13.4177 25.7972 13.4371 26.0666 13.2455C26.2634 13.1057 26.4299 12.7607 26.2243 12.5513C26.1065 12.4316 25.9207 12.4114 25.706 12.3894L25.7056 12.389Z" fill="#E8BDA8"/>
<path d="M25.6155 13.5192C25.7273 13.3509 25.7546 13.0248 25.6136 12.8664C25.5019 12.7406 25.2488 12.6813 25.0915 12.7281C24.7434 12.8318 24.5739 13.167 24.6442 13.5052C24.6955 13.7522 24.9562 14.0569 25.2431 13.9475C25.4073 13.8852 25.5046 13.7153 25.6159 13.5192H25.6155Z" fill="#E8BDA8"/>
<path d="M24.9235 13.7593C25.0505 13.6 25.1063 13.2755 24.9786 13.1041C24.8776 12.9681 24.629 12.8864 24.4668 12.9194C24.1084 12.9928 23.9093 13.3143 23.95 13.6597C23.9796 13.912 24.2145 14.2403 24.5116 14.1564C24.6819 14.1081 24.7943 13.9466 24.9232 13.7593H24.9235Z" fill="#E8BDA8"/>
<path d="M23.9644 13.8614C24.1407 13.8097 24.3509 13.5992 24.3459 13.4061C24.3421 13.2534 24.2012 13.0638 24.064 13.0037C23.7615 12.8715 23.4469 13.0056 23.2975 13.2819C23.1885 13.4837 23.1907 13.8481 23.4541 13.9404C23.6046 13.9932 23.7718 13.9324 23.9644 13.8614Z" fill="#E8BDA8"/>
<path d="M23.4917 13.5113C23.5343 13.343 23.4636 13.0709 23.3036 12.9824C23.1771 12.9124 22.9551 12.936 22.8408 13.0192C22.5881 13.2024 22.5463 13.5227 22.6998 13.777C22.8119 13.9628 23.1102 14.1353 23.3116 13.9651C23.4267 13.8678 23.4575 13.7021 23.4917 13.5113Z" fill="#E8BDA8"/>
<path d="M22.7146 12.7872C22.5717 12.6492 22.2616 12.5645 22.083 12.6728C21.9417 12.7583 21.8391 12.992 21.8562 13.1527C21.8942 13.5077 22.1879 13.7311 22.5276 13.7235C22.7754 13.7182 23.1162 13.5206 23.0623 13.2238C23.0311 13.0539 22.8844 12.9297 22.715 12.7872H22.7146Z" fill="#E8BDA8"/>
<path d="M21.9238 13.9979C22.1218 13.9789 22.3885 13.798 22.4227 13.5917C22.4497 13.4283 22.3388 13.1976 22.205 13.1061C21.9101 12.9039 21.5484 12.9818 21.3325 13.2451C21.1752 13.4374 21.1034 13.8258 21.3648 13.9778C21.5142 14.0648 21.7045 14.034 21.9238 13.9979Z" fill="#E8BDA8"/>
<path d="M21.5073 13.5336C21.3614 13.4048 21.0536 13.3356 20.8837 13.4493C20.7488 13.5393 20.6588 13.773 20.6827 13.9296C20.7355 14.2754 21.0334 14.4817 21.3656 14.4593C21.608 14.443 21.9337 14.2343 21.8672 13.9459C21.8292 13.781 21.6802 13.6659 21.5073 13.5336Z" fill="#E8BDA8"/>
<path d="M20.5148 13.5913C20.3248 13.5682 20.0371 13.6829 19.9626 13.8695C19.9033 14.0173 19.96 14.2567 20.0667 14.3703C20.302 14.6212 20.6576 14.6227 20.9145 14.4201C21.1022 14.2719 21.2497 13.9223 21.0357 13.7255C20.9134 13.613 20.7283 13.6024 20.5151 13.591L20.5148 13.5913Z" fill="#E8BDA8"/>
<path d="M20.2309 14.1663C20.3514 14.034 20.4194 13.7521 20.3172 13.594C20.2362 13.469 20.0227 13.3827 19.8783 13.4025C19.5594 13.4462 19.3656 13.7171 19.3816 14.023C19.393 14.2465 19.5803 14.5482 19.8463 14.4916C19.9983 14.4589 20.1066 14.3236 20.2305 14.1667L20.2309 14.1663Z" fill="#E8BDA8"/>
<path d="M19.3098 13.5794C19.1255 13.4841 18.7895 13.4924 18.6432 13.6539C18.5273 13.782 18.4947 14.0468 18.56 14.2026C18.7044 14.5466 19.0658 14.6822 19.4032 14.5732C19.6499 14.4934 19.9322 14.1935 19.7886 13.9127C19.7065 13.752 19.5226 13.6718 19.3098 13.5794Z" fill="#E8BDA8"/>
<path d="M18.4198 13.4242C18.2484 13.4121 17.9953 13.5283 17.9368 13.6993C17.8904 13.8346 17.9524 14.047 18.0531 14.1443C18.2758 14.359 18.595 14.3438 18.8165 14.1504C18.978 14.009 19.0947 13.6883 18.8937 13.5215C18.7785 13.4261 18.6121 13.425 18.4202 13.4246L18.4198 13.4242Z" fill="#E8BDA8"/>
<path d="M17.9353 12.8525C17.7498 12.8365 17.4743 12.9581 17.4086 13.1424C17.3565 13.2883 17.42 13.519 17.5272 13.6254C17.7643 13.861 18.1101 13.8496 18.3525 13.6436C18.5296 13.4932 18.6607 13.1481 18.446 12.9646C18.3233 12.8597 18.1431 12.8559 17.9353 12.8525Z" fill="#E8BDA8"/>
<path d="M17.7251 13.1937C17.7498 13.0204 17.6503 12.7551 17.4808 12.6833C17.3467 12.6263 17.1266 12.6738 17.0206 12.7692C16.7865 12.9797 16.7786 13.305 16.9594 13.544C17.0913 13.7184 17.4086 13.8602 17.5925 13.6679C17.6978 13.5581 17.7107 13.389 17.7251 13.194V13.1937Z" fill="#E8BDA8"/>
<path d="M17.0267 13.7965C17.1502 13.6631 17.222 13.3777 17.1194 13.2166C17.0385 13.0889 16.8226 12.9992 16.676 13.0178C16.3518 13.0592 16.1531 13.3325 16.166 13.6429C16.1755 13.8698 16.3628 14.178 16.6334 14.1225C16.7881 14.091 16.899 13.9542 17.0263 13.7961L17.0267 13.7965Z" fill="#E8BDA8"/>
<path d="M16.4202 13.4912C16.492 13.3077 16.451 12.9915 16.2838 12.8691C16.1515 12.7722 15.8981 12.7677 15.7575 12.8448C15.447 13.0151 15.3547 13.3696 15.4911 13.6778C15.5907 13.9027 15.9019 14.1395 16.1527 13.9765C16.2963 13.883 16.3541 13.7013 16.4198 13.4912H16.4202Z" fill="#E8BDA8"/>
<path d="M15.6682 13.6561C15.7636 13.4962 15.7746 13.1948 15.6378 13.0546C15.5295 12.9436 15.2939 12.8999 15.1506 12.9501C14.8344 13.0607 14.6931 13.3772 14.7729 13.6854C14.831 13.9107 15.0841 14.1798 15.3436 14.0669C15.4922 14.0023 15.5743 13.8416 15.6682 13.6561Z" fill="#E8BDA8"/>
<path d="M15.0697 13.071C15.0803 12.8973 14.9602 12.6423 14.7866 12.5849C14.649 12.5393 14.4347 12.6039 14.3374 12.7069C14.1223 12.9342 14.141 13.2575 14.3389 13.4795C14.4837 13.6417 14.8094 13.7565 14.9762 13.5513C15.0716 13.4339 15.0712 13.2655 15.0697 13.071Z" fill="#E8BDA8"/>
<path d="M13.9536 12.3431C13.7697 12.3252 13.4946 12.4434 13.4273 12.6254C13.3737 12.7698 13.4345 12.9994 13.5402 13.1065C13.7735 13.3429 14.117 13.3357 14.3602 13.1335C14.5377 12.9861 14.6718 12.6444 14.4601 12.4597C14.3393 12.3541 14.1603 12.3484 13.954 12.3431H13.9536Z" fill="#E8BDA8"/>
<path d="M13.9399 11.8851C13.8256 11.7126 13.5288 11.5568 13.3228 11.6267C13.1598 11.6822 13.0025 11.8969 12.9842 12.0645C12.9432 12.4342 13.1921 12.728 13.5394 12.7964C13.7929 12.8465 14.1843 12.7219 14.1957 12.4076C14.2021 12.2279 14.0809 12.0683 13.9399 11.8851Z" fill="#E8BDA8"/>
<path d="M13.4683 12.0437C13.6496 12.0023 13.8749 11.8024 13.8818 11.6071C13.8871 11.4525 13.7564 11.2518 13.6215 11.183C13.3235 11.031 12.9979 11.1469 12.8295 11.4167C12.7068 11.614 12.6867 11.9826 12.9473 12.092C13.0963 12.1547 13.2692 12.1034 13.4679 12.0434L13.4683 12.0437Z" fill="#E8BDA8"/>
<path d="M13.4281 10.6143C13.3266 10.4399 13.0465 10.2712 12.8417 10.3274C12.6798 10.3719 12.5145 10.5721 12.4868 10.7344C12.4256 11.092 12.6513 11.3922 12.9857 11.4788C13.2297 11.5423 13.6181 11.4435 13.6469 11.138C13.6637 10.9632 13.5546 10.8009 13.4277 10.6143H13.4281Z" fill="#E8BDA8"/>
<path d="M13.5554 9.86865C13.4197 9.73603 13.1237 9.65357 12.9527 9.75579C12.817 9.83673 12.7178 10.0598 12.7334 10.2133C12.768 10.5527 13.0477 10.7677 13.3718 10.7624C13.6086 10.7586 13.9358 10.5717 13.8852 10.2878C13.8563 10.1255 13.7169 10.0058 13.5554 9.86865Z" fill="#E8BDA8"/>
<path d="M13.7986 18.2872C14.1384 18.627 14.6894 18.6271 15.0291 18.2873C15.3689 17.9476 15.3688 17.3966 15.029 17.0568L14.5075 16.5352C14.1676 16.1954 13.6167 16.1953 13.2769 16.5351C12.9372 16.8749 12.9372 17.4258 13.2771 17.7656L13.7986 18.2872Z" fill="#EFC1A9"/>
<path d="M26.6354 17.7654C26.9752 17.4256 26.9753 16.8746 26.6355 16.5349C26.2958 16.1951 25.7448 16.1952 25.405 16.535L24.8834 17.0566C24.5436 17.3964 24.5435 17.9473 24.8833 18.2871C25.2231 18.6268 25.774 18.6268 26.1138 18.287L26.6354 17.7654Z" fill="#EFC1A9"/>
<path d="M19.9561 27.2145C25.06 27.2145 29.1974 26.0765 29.1974 24.6727C29.1974 23.2689 25.06 22.1309 19.9561 22.1309C14.8523 22.1309 10.7148 23.2689 10.7148 24.6727C10.7148 26.0765 14.8523 27.2145 19.9561 27.2145Z" fill="#EFC1A9"/>
<path d="M8.82393 28.7169C8.85966 29.0779 9.01242 29.3979 9.23966 29.6468C9.11274 29.9071 9.05232 30.2039 9.0831 30.5132C9.14998 31.1896 9.62422 31.7262 10.2387 31.9067C10.3637 32.7564 11.1336 33.367 11.9973 33.2815C12.1072 33.2709 12.2132 33.2489 12.315 33.2177C12.6472 33.6137 13.1624 33.8443 13.7153 33.79C14.1542 33.7467 14.5342 33.5312 14.7968 33.2177C14.8139 33.223 14.8318 33.2264 14.8489 33.231C15.048 33.3758 15.2711 33.4875 15.5109 33.5578C15.6784 34.6963 16.7101 35.5144 17.8676 35.4004C18.0147 35.386 18.1572 35.3567 18.2932 35.3149C18.7382 35.8454 19.4287 36.1547 20.1697 36.0818C20.7579 36.0236 21.2671 35.7352 21.619 35.3149C21.8869 35.3978 22.1754 35.4297 22.4718 35.4004C23.4833 35.3005 24.2612 34.52 24.4026 33.5574C24.6454 33.4864 24.8681 33.3743 25.0657 33.2302C25.082 33.2257 25.0991 33.2226 25.1154 33.2177C25.4476 33.6137 25.9629 33.8443 26.5158 33.79C26.9547 33.7467 27.3347 33.5312 27.5972 33.2177C27.7971 33.2796 28.0126 33.3036 28.2338 33.2815C28.9888 33.2071 29.5691 32.6245 29.6747 31.9063C30.407 31.692 30.9075 30.9818 30.8296 30.1948C30.8102 29.9983 30.7547 29.8144 30.673 29.6464C30.9709 29.3192 31.1355 28.8731 31.0887 28.3985C31.0374 27.8809 30.7471 27.4454 30.3382 27.1882C30.3568 27.0605 30.3622 26.929 30.3489 26.7949C30.2664 25.96 29.5634 25.336 28.7418 25.3353C28.4637 24.7204 27.8176 24.3214 27.1089 24.3917C26.8293 24.4195 26.5731 24.5168 26.3565 24.665C26.0537 24.4586 25.6797 24.353 25.2868 24.3917C24.8274 24.437 24.4333 24.671 24.1704 25.0085C23.8649 24.8447 23.5175 24.7527 23.1531 24.7524C22.7799 23.9285 21.9147 23.3938 20.965 23.4877C20.59 23.5246 20.2472 23.6553 19.9565 23.8537C19.5507 23.577 19.0498 23.4356 18.5228 23.4877C17.7236 23.5667 17.0708 24.0706 16.7611 24.7527C16.6923 24.7527 16.6227 24.7558 16.5528 24.7626C16.2602 24.7915 15.9874 24.8778 15.7434 25.0085C15.4132 24.5859 14.8816 24.3351 14.3085 24.3917C14.0288 24.4195 13.7727 24.5168 13.5561 24.665C13.2533 24.4586 12.8793 24.353 12.4864 24.3917C11.8902 24.4506 11.4026 24.8268 11.172 25.3357C11.1207 25.3357 11.069 25.3379 11.0166 25.3433C10.127 25.431 9.47678 26.2237 9.56456 27.1133C9.56722 27.1388 9.57216 27.1631 9.57558 27.1882C9.07284 27.5047 8.76237 28.0858 8.8247 28.7173L8.82393 28.7169Z" fill="#FFF5E4"/>
<path d="M18.0341 27.3356C18.9373 28.2666 19.9561 28.2255 19.9561 28.2255C19.9561 28.2255 20.9749 28.2666 21.8782 27.3356C22.7815 26.4046 22.4778 25.5693 22.3509 25.3227C22.224 25.0761 21.9063 24.6448 21.0456 24.6448C20.6207 24.6448 20.4319 24.7231 20.2377 24.785C20.0545 24.8435 19.8577 24.8435 19.6749 24.785C19.4807 24.7231 19.2919 24.6448 18.867 24.6448C18.0059 24.6448 17.6886 25.0761 17.5617 25.3227C17.4348 25.5693 17.1312 26.4046 18.0344 27.3356H18.0341Z" fill="#1F1F20"/>
<path d="M21.2117 31.0259C21.1493 31.0259 21.0859 31.0134 21.0251 30.9868L19.95 30.5194L18.8891 30.986C18.6523 31.0901 18.3761 30.9826 18.2719 30.7458C18.1678 30.5091 18.2754 30.2328 18.5121 30.1287L19.7608 29.5796C19.8805 29.5272 20.0165 29.5268 20.1362 29.5788L21.399 30.128C21.6361 30.2309 21.7448 30.5072 21.6418 30.7443C21.5651 30.9206 21.3929 31.0259 21.212 31.0259H21.2117Z" fill="#1F1F20"/>
<path d="M14.1527 24.1341C14.8944 24.1341 15.4957 23.4171 15.4957 22.5327C15.4957 21.6483 14.8944 20.9314 14.1527 20.9314C13.4111 20.9314 12.8098 21.6483 12.8098 22.5327C12.8098 23.4171 13.4111 24.1341 14.1527 24.1341Z" fill="#1F1F20"/>
<path d="M15.4409 22.0813C15.4006 22.0813 15.3596 22.0756 15.3186 22.0635L12.9823 21.3726C12.7543 21.3054 12.6243 21.066 12.6916 20.838C12.7589 20.61 12.9986 20.48 13.2263 20.5473L15.5625 21.2381C15.7905 21.3054 15.9205 21.5448 15.8532 21.7728C15.7978 21.9601 15.6264 22.0813 15.4405 22.0813H15.4409Z" fill="#1F1F20"/>
<path d="M25.7591 24.1341C26.5008 24.1341 27.1021 23.4171 27.1021 22.5327C27.1021 21.6483 26.5008 20.9314 25.7591 20.9314C25.0175 20.9314 24.4162 21.6483 24.4162 22.5327C24.4162 23.4171 25.0175 24.1341 25.7591 24.1341Z" fill="#1F1F20"/>
<path d="M24.4713 22.0813C24.2855 22.0813 24.1141 21.9601 24.0587 21.7728C23.9914 21.5448 24.1214 21.3054 24.3494 21.2381L26.6856 20.5473C26.9136 20.48 27.153 20.61 27.2203 20.838C27.2875 21.066 27.1576 21.3054 26.9296 21.3726L24.5933 22.0635C24.5527 22.0756 24.5116 22.0813 24.471 22.0813H24.4713Z" fill="#1F1F20"/>
<path d="M29.3076 6.78753H28.6373C28.2489 6.78753 27.9343 6.47289 27.9343 6.08452C27.9343 5.69616 28.2489 5.38152 28.6373 5.38152H29.3076C29.7427 5.38152 30.0965 5.02773 30.0965 4.59263V3.87024C30.0965 3.48188 30.4112 3.16724 30.7995 3.16724C31.1879 3.16724 31.5025 3.48188 31.5025 3.87024V4.59263C31.5025 5.80294 30.5179 6.78753 29.3076 6.78753Z" fill="#FF3855"/>
<path d="M36.1553 6.78753H35.485C34.2747 6.78753 33.2901 5.80294 33.2901 4.59263V3.87024C33.2901 3.48188 33.6047 3.16724 33.9931 3.16724C34.3814 3.16724 34.6961 3.48188 34.6961 3.87024V4.59263C34.6961 5.02773 35.0499 5.38152 35.485 5.38152H36.1553C36.5437 5.38152 36.8583 5.69616 36.8583 6.08452C36.8583 6.47289 36.5437 6.78753 36.1553 6.78753Z" fill="#FF3855"/>
<path d="M33.9927 12.2035C33.6043 12.2035 33.2897 11.8889 33.2897 11.5005V10.7782C33.2897 9.56784 34.2743 8.58325 35.4846 8.58325H36.1549C36.5433 8.58325 36.8579 8.89789 36.8579 9.28626C36.8579 9.67462 36.5433 9.98926 36.1549 9.98926H35.4846C35.0495 9.98926 34.6957 10.343 34.6957 10.7782V11.5005C34.6957 11.8889 34.3811 12.2035 33.9927 12.2035Z" fill="#FF3855"/>
<path d="M30.7995 12.2035C30.4112 12.2035 30.0965 11.8889 30.0965 11.5005V10.7782C30.0965 10.343 29.7427 9.98926 29.3076 9.98926H28.6373C28.2489 9.98926 27.9343 9.67462 27.9343 9.28626C27.9343 8.89789 28.2489 8.58325 28.6373 8.58325H29.3076C30.5179 8.58325 31.5025 9.56784 31.5025 10.7782V11.5005C31.5025 11.8889 31.1879 12.2035 30.7995 12.2035Z" fill="#FF3855"/>
</svg>
