<svg width="40" height="40" viewBox="0 0 40 40" fill="none" xmlns="http://www.w3.org/2000/svg">
<path d="M35.5552 20.7937C35.5552 11.5075 28.0272 3.97949 18.741 3.97949C9.45472 3.97949 1.92675 11.5075 1.92675 20.7937C1.92675 30.0799 9.45472 37.6079 18.741 37.6079C28.0272 37.6079 35.5552 30.0799 35.5552 20.7937Z" fill="#F8DFCB"/>
<path d="M25.6792 10.8455C25.6572 10.6205 25.5618 10.421 25.4201 10.266C25.4991 10.1037 25.5367 9.91865 25.5177 9.72599C25.4759 9.30456 25.1807 8.96978 24.7976 8.8573C24.7197 8.32795 24.2398 7.94719 23.7017 8.00039C23.6333 8.00723 23.5672 8.02053 23.5037 8.04029C23.2966 7.79367 22.9755 7.64965 22.6309 7.68385C22.3573 7.71083 22.1205 7.84497 21.9567 8.04029C21.9461 8.03687 21.9351 8.03497 21.9244 8.03193C21.8002 7.94187 21.6615 7.87233 21.5118 7.82825C21.4073 7.11878 20.7643 6.60882 20.043 6.67988C19.9515 6.689 19.8625 6.70724 19.7778 6.73308C19.5004 6.40248 19.0702 6.20982 18.6081 6.25542C18.2414 6.29152 17.9241 6.47164 17.7049 6.73346C17.5381 6.68178 17.3583 6.66202 17.1733 6.68026C16.5428 6.74258 16.0579 7.22898 15.9698 7.82901C15.8185 7.87347 15.6798 7.94301 15.5567 8.03269C15.5465 8.03535 15.5358 8.03763 15.5256 8.04067C15.3185 7.79405 14.9974 7.65003 14.6527 7.68423C14.3791 7.71121 14.1423 7.84535 13.9786 8.04067C13.8539 8.00229 13.7198 7.98709 13.5818 8.00077C13.1114 8.04713 12.7496 8.41042 12.6839 8.85806C12.2275 8.99182 11.9155 9.43414 11.9642 9.92473C11.9763 10.0471 12.0109 10.1619 12.0618 10.2664C11.8764 10.4704 11.7734 10.7482 11.8027 11.0442C11.8346 11.3668 12.0158 11.6382 12.2705 11.7985C12.2587 11.8783 12.2556 11.96 12.2636 12.0436C12.3149 12.5642 12.7531 12.953 13.2653 12.9534C13.439 13.3364 13.8414 13.5853 14.2829 13.5416C14.4574 13.5245 14.617 13.4637 14.7519 13.3714C14.9407 13.4998 15.1737 13.5659 15.4188 13.5416C15.7049 13.5135 15.9508 13.3676 16.1146 13.1574C16.3049 13.2593 16.5212 13.317 16.7488 13.317C16.9814 13.8304 17.5206 14.1637 18.1126 14.1051C18.3463 14.082 18.5599 14.0006 18.7411 13.8771C18.9942 14.0497 19.3062 14.1378 19.6349 14.1051C20.1331 14.0561 20.5401 13.7419 20.7327 13.3166C20.7757 13.3166 20.819 13.3147 20.8623 13.3106C21.0447 13.2927 21.2146 13.2387 21.3666 13.1574C21.5722 13.4208 21.9035 13.5769 22.2607 13.5416C22.4352 13.5245 22.5948 13.4637 22.7297 13.3714C22.9185 13.4998 23.1515 13.5659 23.3966 13.5416C23.7682 13.5047 24.0718 13.2703 24.2159 12.9534C24.2478 12.9534 24.2801 12.9518 24.3128 12.9488C24.8672 12.8941 25.2723 12.4001 25.2175 11.8456C25.216 11.8297 25.213 11.8145 25.2107 11.7989C25.5242 11.6017 25.7176 11.2395 25.6789 10.8459L25.6792 10.8455Z" fill="#FFF5E4"/>
<path d="M25.8153 10.792C25.9589 10.6951 26.087 10.4458 26.0269 10.2737C25.9794 10.1376 25.7986 10.0077 25.6583 9.99361C25.3486 9.96207 25.1047 10.1726 25.05 10.4633C25.0101 10.6757 25.1168 11.0025 25.3798 11.0097C25.5303 11.0139 25.6629 10.9113 25.8153 10.792Z" fill="#E8BDA8"/>
<path d="M25.6466 10.6594C25.4531 10.6172 25.1461 10.708 25.0515 10.8931C24.9766 11.0397 25.012 11.2917 25.1108 11.4186C25.3289 11.6994 25.6948 11.7348 25.9787 11.5509C26.1858 11.4163 26.3712 11.0705 26.1698 10.8475C26.0547 10.7198 25.8651 10.6913 25.6466 10.6594Z" fill="#E8BDA8"/>
<path d="M25.7302 11.5625C25.6823 11.3603 25.4569 11.111 25.2388 11.1053C25.0659 11.1008 24.8436 11.249 24.7684 11.3998C24.6016 11.7339 24.7342 12.0964 25.0374 12.2814C25.259 12.4163 25.6705 12.435 25.7902 12.1431C25.8586 11.9763 25.7997 11.784 25.7305 11.5625H25.7302Z" fill="#E8BDA8"/>
<path d="M25.5352 12.6428C25.6371 12.4695 25.6462 12.1442 25.4976 11.9941C25.3798 11.8755 25.1252 11.8299 24.9713 11.885C24.6312 12.007 24.4815 12.3494 24.5696 12.6815C24.6342 12.924 24.9094 13.2124 25.1887 13.0885C25.3483 13.0174 25.4357 12.8438 25.5356 12.6424L25.5352 12.6428Z" fill="#E8BDA8"/>
<path d="M24.4902 12.3885C24.2998 12.3555 24.0038 12.4566 23.9191 12.6412C23.8518 12.7875 23.897 13.0319 23.9985 13.152C24.2231 13.4172 24.5818 13.4366 24.8512 13.2451C25.0481 13.1052 25.2145 12.7602 25.0089 12.5508C24.8911 12.4311 24.7053 12.411 24.4906 12.3889L24.4902 12.3885Z" fill="#E8BDA8"/>
<path d="M24.4005 13.5187C24.5122 13.3504 24.5396 13.0244 24.3986 12.8659C24.2869 12.7401 24.0338 12.6808 23.8765 12.7276C23.5284 12.8313 23.3589 13.1665 23.4292 13.5047C23.4805 13.7517 23.7412 14.0564 24.0281 13.947C24.1923 13.8847 24.2896 13.7148 24.4009 13.5187H24.4005Z" fill="#E8BDA8"/>
<path d="M23.7082 13.7593C23.8351 13.6 23.8909 13.2755 23.7633 13.1041C23.6622 12.9681 23.4137 12.8864 23.2514 12.9194C22.8931 12.9928 22.6939 13.3143 22.7346 13.6597C22.7642 13.912 22.9991 14.2403 23.2962 14.1564C23.4665 14.1081 23.579 13.9466 23.7078 13.7593H23.7082Z" fill="#E8BDA8"/>
<path d="M22.7494 13.8614C22.9257 13.8097 23.1359 13.5992 23.1309 13.4061C23.1271 13.2534 22.9861 13.0638 22.849 13.0037C22.5465 12.8715 22.2318 13.0056 22.0825 13.2819C21.9734 13.4837 21.9757 13.8481 22.2391 13.9404C22.3895 13.9932 22.5567 13.9324 22.7494 13.8614Z" fill="#E8BDA8"/>
<path d="M22.2763 13.5108C22.3189 13.3425 22.2482 13.0704 22.0882 12.9819C21.9617 12.912 21.7398 12.9355 21.6254 13.0187C21.3727 13.2019 21.3309 13.5222 21.4844 13.7765C21.5965 13.9623 21.8948 14.1348 22.0962 13.9646C22.2113 13.8673 22.2421 13.7016 22.2763 13.5108Z" fill="#E8BDA8"/>
<path d="M21.4992 12.7872C21.3563 12.6492 21.0462 12.5645 20.8676 12.6728C20.7263 12.7583 20.6237 12.992 20.6408 13.1527C20.6788 13.5077 20.9725 13.7311 21.3122 13.7235C21.56 13.7182 21.9009 13.5206 21.8469 13.2238C21.8157 13.0539 21.6691 12.9297 21.4996 12.7872H21.4992Z" fill="#E8BDA8"/>
<path d="M20.7088 13.9977C20.9068 13.9787 21.1735 13.7978 21.2077 13.5915C21.2347 13.4281 21.1238 13.1974 20.99 13.1058C20.6951 12.9037 20.3334 12.9816 20.1175 13.2449C19.9602 13.4372 19.8884 13.8255 20.1498 13.9775C20.2992 14.0646 20.4895 14.0338 20.7088 13.9977Z" fill="#E8BDA8"/>
<path d="M20.2919 13.5336C20.146 13.4048 19.8382 13.3356 19.6683 13.4493C19.5334 13.5393 19.4434 13.773 19.4673 13.9296C19.5201 14.2754 19.8181 14.4817 20.1502 14.4593C20.3926 14.443 20.7183 14.2343 20.6518 13.9459C20.6138 13.781 20.4648 13.6659 20.2919 13.5336Z" fill="#E8BDA8"/>
<path d="M19.2997 13.5913C19.1097 13.5682 18.8221 13.6829 18.7476 13.8695C18.6883 14.0173 18.7449 14.2567 18.8517 14.3703C19.0869 14.6212 19.4426 14.6227 19.6995 14.4201C19.8872 14.2719 20.0347 13.9223 19.8207 13.7255C19.6984 13.613 19.5133 13.6024 19.3001 13.591L19.2997 13.5913Z" fill="#E8BDA8"/>
<path d="M19.0159 14.166C19.1363 14.0338 19.2044 13.7518 19.1021 13.5938C19.0212 13.4687 18.8076 13.3825 18.6632 13.4022C18.3444 13.4459 18.1506 13.7169 18.1666 14.0228C18.178 14.2462 18.3653 14.5479 18.6313 14.4913C18.7833 14.4586 18.8916 14.3234 19.0155 14.1664L19.0159 14.166Z" fill="#E8BDA8"/>
<path d="M18.0944 13.5794C17.9101 13.4841 17.5741 13.4924 17.4278 13.6539C17.3119 13.782 17.2793 14.0468 17.3446 14.2026C17.489 14.5466 17.8504 14.6822 18.1878 14.5732C18.4345 14.4934 18.7168 14.1935 18.5732 13.9127C18.4911 13.752 18.3072 13.6718 18.0944 13.5794Z" fill="#E8BDA8"/>
<path d="M17.2044 13.424C17.033 13.4118 16.7799 13.5281 16.7214 13.6991C16.6751 13.8344 16.737 14.0468 16.8377 14.1441C17.0604 14.3588 17.3796 14.3436 17.6011 14.1502C17.7626 14.0088 17.8793 13.6881 17.6783 13.5212C17.5631 13.4259 17.3967 13.4247 17.2048 13.4243L17.2044 13.424Z" fill="#E8BDA8"/>
<path d="M16.7203 12.8527C16.5348 12.8368 16.2593 12.9584 16.1936 13.1427C16.1415 13.2886 16.205 13.5192 16.3122 13.6256C16.5493 13.8613 16.8951 13.8499 17.1375 13.6439C17.3146 13.4934 17.4457 13.1484 17.231 12.9648C17.1083 12.8599 16.9281 12.8561 16.7203 12.8527Z" fill="#E8BDA8"/>
<path d="M16.5098 13.1937C16.5345 13.0204 16.4349 12.7551 16.2654 12.6833C16.1313 12.6263 15.9113 12.6738 15.8052 12.7692C15.5711 12.9797 15.5632 13.305 15.7441 13.544C15.8759 13.7184 16.1932 13.8602 16.3771 13.6679C16.4824 13.5581 16.4953 13.389 16.5098 13.194V13.1937Z" fill="#E8BDA8"/>
<path d="M15.8117 13.7965C15.9352 13.6631 16.007 13.3777 15.9044 13.2166C15.8235 13.0889 15.6076 12.9992 15.4609 13.0178C15.1368 13.0592 14.9381 13.3325 14.951 13.6429C14.9605 13.8698 15.1478 14.178 15.4184 14.1225C15.573 14.091 15.684 13.9542 15.8113 13.7961L15.8117 13.7965Z" fill="#E8BDA8"/>
<path d="M15.2048 13.491C15.2766 13.3074 15.2356 12.9913 15.0684 12.8689C14.9362 12.772 14.6827 12.7674 14.5421 12.8446C14.2316 13.0148 14.1393 13.3694 14.2757 13.6775C14.3753 13.9025 14.6865 14.1392 14.9373 13.9762C15.0809 13.8827 15.1387 13.7011 15.2044 13.491H15.2048Z" fill="#E8BDA8"/>
<path d="M14.4528 13.6564C14.5482 13.4964 14.5592 13.1951 14.4224 13.0548C14.3141 12.9439 14.0785 12.9002 13.9352 12.9503C13.6191 13.0609 13.4777 13.3775 13.5575 13.6856C13.6156 13.911 13.8687 14.18 14.1283 14.0672C14.2769 14.0026 14.3589 13.8418 14.4528 13.6564Z" fill="#E8BDA8"/>
<path d="M13.8543 13.071C13.8649 12.8973 13.7449 12.6423 13.5712 12.5849C13.4336 12.5393 13.2193 12.6039 13.122 12.7069C12.907 12.9342 12.9256 13.2575 13.1236 13.4795C13.2683 13.6417 13.594 13.7565 13.7608 13.5513C13.8562 13.4339 13.8558 13.2655 13.8543 13.071Z" fill="#E8BDA8"/>
<path d="M12.7382 12.3428C12.5543 12.325 12.2792 12.4432 12.2119 12.6252C12.1583 12.7696 12.2191 12.9991 12.3248 13.1063C12.5581 13.3426 12.9016 13.3354 13.1448 13.1333C13.3223 12.9858 13.4564 12.6442 13.2448 12.4595C13.1239 12.3539 12.9449 12.3482 12.7386 12.3428H12.7382Z" fill="#E8BDA8"/>
<path d="M12.7245 11.8849C12.6102 11.7124 12.3134 11.5566 12.1074 11.6265C11.9444 11.682 11.7871 11.8967 11.7688 12.0643C11.7278 12.434 11.9767 12.7277 12.324 12.7961C12.5775 12.8463 12.9689 12.7217 12.9803 12.4074C12.9867 12.2277 12.8655 12.0681 12.7245 11.8849Z" fill="#E8BDA8"/>
<path d="M12.2533 12.0435C12.4346 12.0021 12.6599 11.8022 12.6668 11.6069C12.6721 11.4522 12.5414 11.2516 12.4065 11.1828C12.1086 11.0308 11.7829 11.1467 11.6145 11.4165C11.4918 11.6137 11.4717 11.9823 11.7324 12.0918C11.8813 12.1545 12.0542 12.1032 12.253 12.0431L12.2533 12.0435Z" fill="#E8BDA8"/>
<path d="M12.2131 10.6143C12.1116 10.4399 11.8315 10.2712 11.6267 10.3274C11.4648 10.3719 11.2995 10.5721 11.2718 10.7344C11.2106 11.092 11.4363 11.3922 11.7707 11.4788C12.0147 11.5423 12.4031 11.4435 12.4319 11.138C12.4487 10.9632 12.3396 10.8009 12.2127 10.6143H12.2131Z" fill="#E8BDA8"/>
<path d="M12.3403 9.86865C12.2047 9.73603 11.9087 9.65357 11.7377 9.75579C11.602 9.83673 11.5028 10.0598 11.5184 10.2133C11.553 10.5527 11.8327 10.7677 12.1568 10.7624C12.3935 10.7586 12.7207 10.5717 12.6702 10.2878C12.6413 10.1255 12.5018 10.0058 12.3403 9.86865Z" fill="#E8BDA8"/>
<path d="M13.1395 18.2811C13.6201 18.2811 14.0097 17.8915 14.0097 17.411C14.0097 16.9305 13.6201 16.541 13.1395 16.541H12.4019C11.9213 16.541 11.5317 16.9305 11.5317 17.411C11.5317 17.8915 11.9213 18.2811 12.4019 18.2811H13.1395Z" fill="#EFC1A9"/>
<path d="M25.1792 18.2815C25.6598 18.2815 26.0494 17.892 26.0494 17.4115C26.0494 16.931 25.6598 16.5415 25.1792 16.5415H24.4416C23.961 16.5415 23.5714 16.931 23.5714 17.4115C23.5714 17.892 23.961 18.2815 24.4416 18.2815H25.1792Z" fill="#EFC1A9"/>
<path d="M14.6865 22.9524C14.4862 22.9524 14.2936 22.8418 14.1978 22.6507C13.9455 22.1475 13.385 21.8222 12.7694 21.8222C12.1538 21.8222 11.5937 22.1475 11.3413 22.6507C11.2061 22.9205 10.8777 23.0295 10.6079 22.8942C10.3381 22.759 10.2291 22.4306 10.3643 22.1608C10.8002 21.2914 11.7445 20.7297 12.7694 20.7297C13.7943 20.7297 14.7386 21.2914 15.1744 22.1608C15.3097 22.4306 15.2007 22.759 14.9308 22.8942C14.8522 22.9338 14.7686 22.9524 14.6865 22.9524Z" fill="#1F1F20"/>
<path d="M26.7269 22.9665C26.5267 22.9665 26.334 22.856 26.2382 22.6648C25.9859 22.1617 25.4254 21.8364 24.8098 21.8364C24.1942 21.8364 23.6341 22.1617 23.3817 22.6648C23.2465 22.9346 22.9181 23.0437 22.6483 22.9084C22.3785 22.7731 22.2695 22.4448 22.4048 22.175C22.8406 21.3055 23.7849 20.7439 24.8098 20.7439C25.8347 20.7439 26.779 21.3055 27.2148 22.175C27.3501 22.4448 27.2411 22.7731 26.9713 22.9084C26.8926 22.9479 26.809 22.9665 26.7269 22.9665Z" fill="#1F1F20"/>
<path d="M9.45843 27.3513C11.2877 27.3513 12.7705 26.484 12.7705 25.4141C12.7705 24.3441 11.2877 23.4768 9.45843 23.4768C7.6292 23.4768 6.14632 24.3441 6.14632 25.4141C6.14632 26.484 7.6292 27.3513 9.45843 27.3513Z" fill="#EFC1A9"/>
<path d="M28.6258 27.3513C30.455 27.3513 31.9379 26.484 31.9379 25.4141C31.9379 24.3441 30.455 23.4768 28.6258 23.4768C26.7965 23.4768 25.3137 24.3441 25.3137 25.4141C25.3137 26.484 26.7965 27.3513 28.6258 27.3513Z" fill="#EFC1A9"/>
<path d="M7.60856 28.7169C7.64428 29.0779 7.79704 29.3979 8.02428 29.6468C7.89736 29.9071 7.83694 30.2039 7.86772 30.5132C7.9346 31.1896 8.40885 31.7262 9.02331 31.9067C9.14833 32.7564 9.91822 33.367 10.782 33.2815C10.8918 33.2709 10.9978 33.2489 11.0997 33.2177C11.4318 33.6137 11.9471 33.8443 12.5 33.79C12.9389 33.7467 13.3189 33.5312 13.5815 33.2177C13.5986 33.223 13.6164 33.2264 13.6335 33.231C13.8326 33.3758 14.0557 33.4875 14.2955 33.5578C14.4631 34.6963 15.4948 35.5144 16.6523 35.4004C16.7993 35.386 16.9418 35.3567 17.0779 35.3149C17.5229 35.8454 18.2133 36.1547 18.9543 36.0818C19.5426 36.0236 20.0518 35.7352 20.4037 35.3149C20.6716 35.3978 20.96 35.4297 21.2564 35.4004C22.268 35.3005 23.0458 34.52 23.1872 33.5574C23.43 33.4864 23.6527 33.3743 23.8503 33.2302C23.8666 33.2257 23.8837 33.2226 23.9001 33.2177C24.2322 33.6137 24.7475 33.8443 25.3004 33.79C25.7393 33.7467 26.1193 33.5312 26.3819 33.2177C26.5818 33.2796 26.7972 33.3036 27.0184 33.2815C27.7734 33.2071 28.3537 32.6245 28.4594 31.9063C29.1916 31.692 29.6921 30.9818 29.6142 30.1948C29.5948 29.9983 29.5393 29.8144 29.4576 29.6464C29.7555 29.3192 29.9201 28.8731 29.8733 28.3985C29.822 27.8809 29.5317 27.4454 29.1228 27.1882C29.1415 27.0605 29.1468 26.929 29.1335 26.7949C29.051 25.96 28.348 25.336 27.5264 25.3353C27.2483 24.7204 26.6023 24.3214 25.8936 24.3917C25.6139 24.4195 25.3578 24.5168 25.1412 24.665C24.8383 24.4586 24.4644 24.353 24.0714 24.3917C23.612 24.437 23.218 24.671 22.955 25.0085C22.6495 24.8447 22.3022 24.7527 21.9377 24.7524C21.5646 23.9285 20.6993 23.3938 19.7497 23.4877C19.3746 23.5246 19.0318 23.6553 18.7411 23.8537C18.3353 23.577 17.8345 23.4356 17.3074 23.4877C16.5082 23.5667 15.8554 24.0706 15.5457 24.7527C15.4769 24.7527 15.4074 24.7558 15.3375 24.7626C15.0448 24.7915 14.772 24.8778 14.528 25.0085C14.1978 24.5859 13.6662 24.3351 13.0932 24.3917C12.8135 24.4195 12.5573 24.5168 12.3407 24.665C12.0379 24.4586 11.664 24.353 11.271 24.3917C10.6748 24.4506 10.1873 24.8268 9.9566 25.3357C9.9053 25.3357 9.85362 25.3379 9.80118 25.3433C8.91159 25.431 8.26141 26.2237 8.34919 27.1133C8.35185 27.1388 8.35679 27.1631 8.36021 27.1882C7.85746 27.5047 7.547 28.0858 7.60932 28.7173L7.60856 28.7169Z" fill="#FFF5E4"/>
<path d="M31.9034 6.05564L32.0608 3.35986C31.7294 3.14932 31.3879 2.92232 31.0415 2.68098C30.6951 2.43963 30.364 2.19774 30.052 1.9593L27.5767 3.03914C28.1618 3.5464 28.8752 4.10107 29.6666 4.65282C30.4579 5.20457 31.2248 5.68233 31.9034 6.05597L31.9034 6.05564Z" fill="#FF9100"/>
<path d="M32.0612 3.3596L32.1381 2.04128C32.1653 1.57501 31.6909 1.24432 31.263 1.43111L30.0524 1.95904C30.3647 2.19718 30.6958 2.43941 31.0419 2.68072C31.3883 2.92206 31.7297 3.14939 32.0612 3.3596Z" fill="#FF6700"/>
<path d="M31.7532 8.62931L31.9038 6.05546C31.2256 5.68184 30.4586 5.20409 29.667 4.65231C28.8756 4.10056 28.1622 3.54589 27.5771 3.03862L25.2141 4.06954C25.8663 4.77342 26.9704 5.70278 28.292 6.62448C29.6136 7.54618 30.867 8.26061 31.7532 8.62931Z" fill="#FF6700"/>
<path d="M31.6402 10.5603L31.7532 8.6295C30.867 8.2608 29.6136 7.54605 28.2919 6.62467C26.9704 5.70297 25.8665 4.77397 25.2141 4.06973L23.4412 4.8432C23.3424 4.85011 23.272 4.87917 23.2342 4.93344C22.9505 5.34027 24.5994 6.98028 26.917 8.59652C29.2346 10.2128 31.3436 11.1929 31.6273 10.7861C31.6651 10.7318 31.6683 10.6554 31.6405 10.5607L31.6402 10.5603Z" fill="#FF9100"/>
<path d="M29.8809 20.7282C30.4046 20.7282 30.829 20.3038 30.829 19.7801C30.829 19.2565 30.4046 18.832 29.8809 18.832C29.3573 18.832 28.9328 19.2565 28.9328 19.7801C28.9328 20.3038 29.3573 20.7282 29.8809 20.7282Z" fill="#FF6EB7"/>
<path d="M33.9852 9.70994C34.5088 9.70994 34.9333 9.28545 34.9333 8.76183C34.9333 8.2382 34.5088 7.81372 33.9852 7.81372C33.4615 7.81372 33.0371 8.2382 33.0371 8.76183C33.0371 9.28545 33.4615 9.70994 33.9852 9.70994Z" fill="#FF6EB7"/>
<path d="M34.2115 33.1257C34.7351 33.1257 35.1596 32.7012 35.1596 32.1776C35.1596 31.654 34.7351 31.2295 34.2115 31.2295C33.6878 31.2295 33.2634 31.654 33.2634 32.1776C33.2634 32.7012 33.6878 33.1257 34.2115 33.1257Z" fill="#00D1FF"/>
<path d="M37.1251 8.76218C37.6488 8.76218 38.0733 8.3377 38.0733 7.81408C38.0733 7.29045 37.6488 6.86597 37.1251 6.86597C36.6015 6.86597 36.177 7.29045 36.177 7.81408C36.177 8.3377 36.6015 8.76218 37.1251 8.76218Z" fill="#00D1FF"/>
<path d="M31.6236 35.8701C32.1473 35.8701 32.5717 35.4456 32.5717 34.922C32.5717 34.3984 32.1473 33.9739 31.6236 33.9739C31.1 33.9739 30.6755 34.3984 30.6755 34.922C30.6755 35.4456 31.1 35.8701 31.6236 35.8701Z" fill="#FF9100"/>
<path d="M25.101 2.92747C25.6247 2.92747 26.0491 2.50298 26.0491 1.97936C26.0491 1.45573 25.6247 1.03125 25.101 1.03125C24.5774 1.03125 24.1529 1.45573 24.1529 1.97936C24.1529 2.50298 24.5774 2.92747 25.101 2.92747Z" fill="#FF9100"/>
<path d="M16.8187 27.2767C17.722 28.2077 18.7408 28.1667 18.7408 28.1667C18.7408 28.1667 19.7596 28.2077 20.6628 27.2767C21.5661 26.3457 21.2625 25.5105 21.1356 25.2639C21.0086 25.0172 20.6909 24.5859 19.8302 24.5859C19.4054 24.5859 19.2165 24.6642 19.0224 24.7262C18.8392 24.7847 18.6423 24.7847 18.4596 24.7262C18.2654 24.6642 18.0765 24.5859 17.6517 24.5859C16.7906 24.5859 16.4733 25.0172 16.3464 25.2639C16.2194 25.5105 15.9158 26.3457 16.8191 27.2767H16.8187Z" fill="#FF3855"/>
<path d="M18.7408 31.7368C19.2772 31.7368 19.7121 31.1934 19.7121 30.5231C19.7121 29.8527 19.2772 29.3093 18.7408 29.3093C18.2043 29.3093 17.7695 29.8527 17.7695 30.5231C17.7695 31.1934 18.2043 31.7368 18.7408 31.7368Z" fill="#1F1F20"/>
<path d="M30.9833 31.1736H19.1755C18.816 31.1736 18.5245 30.8822 18.5245 30.5227C18.5245 30.1632 18.816 29.8717 19.1755 29.8717H30.9833C30.986 29.8717 31.5237 29.8645 32.1579 29.6384C32.9582 29.353 33.5427 28.8621 33.8949 28.1788C34.3866 27.2258 34.3114 25.7058 33.9215 25.0825C33.2877 24.0695 32.0679 23.1894 30.5467 23.7579C29.6868 24.0793 29.287 24.9047 29.3976 25.5169C29.5066 26.1203 30.0626 26.2473 30.5095 26.2473C30.869 26.2473 31.1604 26.5387 31.1604 26.8982C31.1604 27.2577 30.869 27.5491 30.5095 27.5491C28.9849 27.5491 28.2735 26.6189 28.1162 25.7483C28.0052 25.1331 28.1348 24.47 28.481 23.8806C28.8413 23.268 29.4128 22.7911 30.0907 22.538C31.9489 21.8438 33.8858 22.5715 35.0247 24.3917C35.7045 25.4781 35.7167 27.4857 35.0513 28.7754C33.8284 31.1463 31.0977 31.1736 30.9822 31.1736H30.9833Z" fill="#FF9100"/>
</svg>
