<svg width="40" height="40" viewBox="0 0 40 40" fill="none" xmlns="http://www.w3.org/2000/svg">
<path d="M27.3308 11.6289C26.9425 11.6289 26.6278 11.3142 26.6278 10.9259V4.25794C26.6278 3.86957 26.9425 3.55493 27.3308 3.55493C27.7192 3.55493 28.0338 3.86957 28.0338 4.25794V10.9259C28.0338 11.3142 27.7192 11.6289 27.3308 11.6289Z" fill="#BCC8D0"/>
<path d="M33.3429 12.3012C32.9545 12.3012 32.6399 11.9866 32.6399 11.5982V4.9303C32.6399 4.54194 32.9545 4.22729 33.3429 4.22729C33.7312 4.22729 34.0459 4.54194 34.0459 4.9303V11.5982C34.0459 11.9866 33.7312 12.3012 33.3429 12.3012Z" fill="#BCC8D0"/>
<path d="M30.3371 10.5595C29.9487 10.5595 29.634 10.2449 29.634 9.85652V3.1886C29.634 2.80024 29.9487 2.4856 30.3371 2.4856C30.7254 2.4856 31.0401 2.80024 31.0401 3.1886V9.85652C31.0401 10.2449 30.7254 10.5595 30.3371 10.5595Z" fill="#BCC8D0"/>
<path d="M36.3491 10.5595C35.9607 10.5595 35.6461 10.2449 35.6461 9.85652V3.1886C35.6461 2.80024 35.9607 2.4856 36.3491 2.4856C36.7374 2.4856 37.0521 2.80024 37.0521 3.1886V9.85652C37.0521 10.2449 36.7374 10.5595 36.3491 10.5595Z" fill="#BCC8D0"/>
<path d="M36.5763 20.6999C36.5763 11.4137 29.0484 3.88574 19.7621 3.88574C10.4759 3.88574 2.94792 11.4137 2.94792 20.6999C2.94792 29.9862 10.4759 37.5141 19.7621 37.5141C29.0484 37.5141 36.5763 29.9862 36.5763 20.6999Z" fill="#F8DFCB"/>
<path d="M26.7004 10.7517C26.6784 10.5268 26.583 10.3273 26.4413 10.1722C26.5203 10.01 26.5579 9.8249 26.5389 9.63224C26.4971 9.21081 26.2019 8.87603 25.8188 8.76355C25.7409 8.2342 25.261 7.85344 24.7229 7.90664C24.6545 7.91348 24.5884 7.92678 24.5249 7.94654C24.3178 7.69992 23.9967 7.5559 23.652 7.5901C23.3784 7.61708 23.1417 7.75122 22.9779 7.94654C22.9673 7.94312 22.9562 7.94122 22.9456 7.93818C22.8213 7.84812 22.6826 7.77858 22.5329 7.7345C22.4284 7.02503 21.7855 6.51507 21.0642 6.58613C20.9726 6.59525 20.8837 6.61349 20.799 6.63933C20.5216 6.30873 20.0914 6.11607 19.6293 6.16167C19.2626 6.19777 18.9453 6.37789 18.726 6.63971C18.5592 6.58803 18.3795 6.56827 18.1944 6.58651C17.564 6.64883 17.0791 7.13523 16.991 7.73526C16.8397 7.77972 16.701 7.84926 16.5779 7.93894C16.5676 7.9416 16.557 7.94388 16.5467 7.94692C16.3396 7.7003 16.0185 7.55628 15.6739 7.59048C15.4003 7.61746 15.1635 7.7516 14.9997 7.94692C14.8751 7.90854 14.741 7.89334 14.603 7.90702C14.1326 7.95338 13.7708 8.31667 13.7051 8.76431C13.2487 8.89807 12.9367 9.34039 12.9853 9.83098C12.9975 9.95334 13.0321 10.0681 13.083 10.1726C12.8976 10.3767 12.7946 10.6544 12.8238 10.9505C12.8558 11.2731 13.037 11.5444 13.2916 11.7048C13.2798 11.7846 13.2768 11.8663 13.2848 11.9499C13.3361 12.4705 13.7742 12.8592 14.2865 12.8596C14.4601 13.2427 14.8626 13.4916 15.3041 13.4479C15.4785 13.4308 15.6381 13.37 15.773 13.2776C15.9619 13.4061 16.1948 13.4722 16.4399 13.4479C16.7261 13.4197 16.972 13.2738 17.1357 13.0637C17.3261 13.1655 17.5423 13.2233 17.77 13.2233C18.0025 13.7367 18.5417 14.0699 19.1338 14.0114C19.3675 13.9882 19.5811 13.9069 19.7623 13.7834C20.0154 13.9559 20.3274 14.0441 20.6561 14.0114C21.1543 13.9624 21.5613 13.6481 21.7539 13.2229C21.7969 13.2229 21.8402 13.221 21.8835 13.2168C22.0659 13.1989 22.2358 13.145 22.3878 13.0637C22.5933 13.327 22.9247 13.4832 23.2819 13.4479C23.4563 13.4308 23.6159 13.37 23.7508 13.2776C23.9397 13.4061 24.1726 13.4722 24.4177 13.4479C24.7894 13.411 25.093 13.1765 25.237 12.8596C25.2689 12.8596 25.3012 12.8581 25.3339 12.855C25.8884 12.8003 26.2934 12.3063 26.2387 11.7519C26.2372 11.7359 26.2342 11.7207 26.2319 11.7052C26.5454 11.5079 26.7388 11.1458 26.7 10.7521L26.7004 10.7517Z" fill="#FFF5E4"/>
<path d="M26.8364 10.6985C26.9801 10.6016 27.1081 10.3523 27.0481 10.1802C27.0006 10.0441 26.8197 9.91416 26.6795 9.9001C26.3698 9.86856 26.1258 10.0791 26.0711 10.3698C26.0312 10.5822 26.138 10.909 26.4009 10.9162C26.5514 10.9204 26.6841 10.8178 26.8364 10.6985Z" fill="#E8BDA8"/>
<path d="M26.6681 10.5659C26.4747 10.5237 26.1676 10.6145 26.073 10.7996C25.9981 10.9462 26.0335 11.1982 26.1323 11.3251C26.3504 11.6059 26.7164 11.6413 27.0002 11.4573C27.2073 11.3228 27.3928 10.977 27.1914 10.754C27.0762 10.6263 26.8866 10.5978 26.6681 10.5659Z" fill="#E8BDA8"/>
<path d="M26.7513 11.469C26.7034 11.2668 26.4781 11.0175 26.26 11.0118C26.0871 11.0073 25.8648 11.1555 25.7895 11.3063C25.6227 11.6403 25.7553 12.0029 26.0586 12.1879C26.2801 12.3228 26.6917 12.3415 26.8114 12.0496C26.8798 11.8828 26.8209 11.6905 26.7517 11.469H26.7513Z" fill="#E8BDA8"/>
<path d="M26.5564 12.549C26.6582 12.3757 26.6673 12.0504 26.5187 11.9003C26.4009 11.7818 26.1463 11.7362 25.9924 11.7913C25.6523 11.9133 25.5026 12.2556 25.5908 12.5878C25.6554 12.8302 25.9305 13.1186 26.2098 12.9948C26.3694 12.9237 26.4568 12.75 26.5567 12.5486L26.5564 12.549Z" fill="#E8BDA8"/>
<path d="M25.5118 12.2953C25.3214 12.2622 25.0253 12.3633 24.9406 12.548C24.8733 12.6943 24.9186 12.9386 25.02 13.0587C25.2446 13.3239 25.6033 13.3433 25.8728 13.1518C26.0696 13.012 26.236 12.6669 26.0305 12.4575C25.9127 12.3378 25.7268 12.3177 25.5121 12.2957L25.5118 12.2953Z" fill="#E8BDA8"/>
<path d="M25.4217 13.4255C25.5334 13.2571 25.5608 12.9311 25.4198 12.7726C25.3081 12.6469 25.055 12.5876 24.8977 12.6343C24.5496 12.7381 24.3801 13.0732 24.4504 13.4114C24.5017 13.6584 24.7624 13.9632 25.0493 13.8537C25.2134 13.7914 25.3107 13.6216 25.4221 13.4255H25.4217Z" fill="#E8BDA8"/>
<path d="M24.7297 13.6655C24.8566 13.5063 24.9125 13.1818 24.7848 13.0104C24.6837 12.8743 24.4352 12.7926 24.2729 12.8257C23.9146 12.899 23.7155 13.2205 23.7561 13.5659C23.7858 13.8183 24.0206 14.1466 24.3178 14.0626C24.488 14.0143 24.6005 13.8528 24.7293 13.6655H24.7297Z" fill="#E8BDA8"/>
<path d="M23.7706 13.7676C23.9469 13.716 24.1571 13.5054 24.1521 13.3124C24.1483 13.1596 24.0073 12.97 23.8701 12.91C23.5677 12.7777 23.253 12.9119 23.1037 13.1881C22.9946 13.3899 22.9969 13.7543 23.2602 13.8467C23.4107 13.8995 23.5779 13.8387 23.7706 13.7676Z" fill="#E8BDA8"/>
<path d="M23.2979 13.4173C23.3404 13.249 23.2697 12.9769 23.1098 12.8884C22.9832 12.8184 22.7613 12.842 22.6469 12.9252C22.3942 13.1084 22.3524 13.4287 22.5059 13.683C22.618 13.8688 22.9163 14.0413 23.1177 13.8711C23.2329 13.7738 23.2637 13.6081 23.2979 13.4173Z" fill="#E8BDA8"/>
<path d="M22.5207 12.6934C22.3779 12.5555 22.0678 12.4707 21.8892 12.579C21.7478 12.6645 21.6452 12.8982 21.6623 13.059C21.7003 13.4139 21.9941 13.6373 22.3338 13.6297C22.5815 13.6244 22.9224 13.4268 22.8684 13.13C22.8373 12.9602 22.6906 12.8359 22.5211 12.6934H22.5207Z" fill="#E8BDA8"/>
<path d="M21.73 13.9042C21.9279 13.8852 22.1947 13.7043 22.2289 13.498C22.2559 13.3346 22.1449 13.1039 22.0112 13.0123C21.7163 12.8101 21.3545 12.888 21.1387 13.1514C20.9813 13.3437 20.9095 13.732 21.171 13.884C21.3203 13.9711 21.5107 13.9403 21.73 13.9042Z" fill="#E8BDA8"/>
<path d="M21.3135 13.4396C21.1675 13.3108 20.8597 13.2416 20.6899 13.3553C20.555 13.4453 20.4649 13.679 20.4889 13.8356C20.5417 14.1814 20.8396 14.3877 21.1717 14.3653C21.4142 14.349 21.7398 14.1404 21.6733 13.8519C21.6353 13.687 21.4864 13.5719 21.3135 13.4396Z" fill="#E8BDA8"/>
<path d="M20.3209 13.4973C20.1309 13.4742 19.8432 13.5889 19.7687 13.7755C19.7095 13.9233 19.7661 14.1627 19.8729 14.2764C20.1081 14.5272 20.4638 14.5287 20.7207 14.3261C20.9084 14.1779 21.0558 13.8283 20.8419 13.6315C20.7195 13.519 20.5345 13.5084 20.3213 13.497L20.3209 13.4973Z" fill="#E8BDA8"/>
<path d="M20.037 14.0723C20.1575 13.94 20.2255 13.6581 20.1233 13.5C20.0424 13.375 19.8288 13.2887 19.6844 13.3085C19.3656 13.3522 19.1718 13.6231 19.1877 13.929C19.1991 14.1525 19.3865 14.4542 19.6525 14.3976C19.8045 14.3649 19.9128 14.2296 20.0367 14.0727L20.037 14.0723Z" fill="#E8BDA8"/>
<path d="M19.1159 13.4854C18.9316 13.3901 18.5957 13.3984 18.4494 13.5599C18.3335 13.688 18.3008 13.9529 18.3662 14.1087C18.5106 14.4526 18.8719 14.5882 19.2094 14.4792C19.456 14.3994 19.7383 14.0995 19.5947 13.8187C19.5126 13.658 19.3287 13.5778 19.1159 13.4854Z" fill="#E8BDA8"/>
<path d="M18.2259 13.3305C18.0546 13.3183 17.8015 13.4346 17.743 13.6056C17.6966 13.7409 17.7585 13.9533 17.8592 14.0506C18.0819 14.2653 18.4011 14.2501 18.6227 14.0566C18.7842 13.9153 18.9008 13.5946 18.6998 13.4277C18.5847 13.3324 18.4182 13.3312 18.2263 13.3308L18.2259 13.3305Z" fill="#E8BDA8"/>
<path d="M17.7414 12.7587C17.556 12.7428 17.2805 12.8644 17.2147 13.0487C17.1627 13.1946 17.2261 13.4253 17.3333 13.5317C17.5704 13.7673 17.9162 13.7559 18.1587 13.5499C18.3358 13.3994 18.4669 13.0544 18.2522 12.8708C18.1294 12.7659 17.9493 12.7621 17.7414 12.7587Z" fill="#E8BDA8"/>
<path d="M17.5313 13.0999C17.556 12.9266 17.4564 12.6614 17.2869 12.5896C17.1528 12.5326 16.9328 12.5801 16.8268 12.6754C16.5927 12.886 16.5847 13.2112 16.7656 13.4503C16.8974 13.6247 17.2147 13.7664 17.3987 13.5741C17.5039 13.4643 17.5169 13.2952 17.5313 13.1003V13.0999Z" fill="#E8BDA8"/>
<path d="M16.8329 13.7027C16.9564 13.5693 17.0282 13.2839 16.9256 13.1228C16.8446 12.9951 16.6288 12.9055 16.4821 12.9241C16.158 12.9655 15.9592 13.2387 15.9722 13.5492C15.9817 13.776 16.169 14.0842 16.4396 14.0287C16.5942 13.9972 16.7052 13.8604 16.8325 13.7023L16.8329 13.7027Z" fill="#E8BDA8"/>
<path d="M16.2264 13.3977C16.2982 13.2142 16.2572 12.898 16.0899 12.7756C15.9577 12.6787 15.7042 12.6742 15.5636 12.7513C15.2532 12.9216 15.1608 13.2761 15.2973 13.5843C15.3968 13.8092 15.708 14.046 15.9588 13.883C16.1025 13.7895 16.1602 13.6078 16.226 13.3977H16.2264Z" fill="#E8BDA8"/>
<path d="M15.4743 13.5624C15.5697 13.4024 15.5807 13.1011 15.4439 12.9608C15.3356 12.8499 15.1 12.8062 14.9568 12.8563C14.6406 12.9669 14.4992 13.2835 14.579 13.5916C14.6372 13.817 14.8903 14.086 15.1498 13.9732C15.2984 13.9086 15.3805 13.7478 15.4743 13.5624Z" fill="#E8BDA8"/>
<path d="M14.8758 12.9774C14.8865 12.8038 14.7664 12.5488 14.5927 12.4914C14.4552 12.4458 14.2408 12.5104 14.1436 12.6134C13.9285 12.8406 13.9471 13.164 14.1451 13.386C14.2899 13.5482 14.6155 13.663 14.7824 13.4578C14.8777 13.3404 14.8774 13.172 14.8758 12.9774Z" fill="#E8BDA8"/>
<path d="M13.7598 12.2493C13.5759 12.2315 13.3007 12.3497 13.2335 12.5317C13.1799 12.6761 13.2407 12.9056 13.3463 13.0128C13.5797 13.2491 13.9232 13.2419 14.1664 13.0397C14.3438 12.8923 14.478 12.5507 14.2663 12.366C14.1455 12.2604 13.9665 12.2547 13.7602 12.2493H13.7598Z" fill="#E8BDA8"/>
<path d="M13.7461 11.7911C13.6317 11.6186 13.3349 11.4628 13.129 11.5327C12.9659 11.5882 12.8086 11.8029 12.7904 11.9705C12.7493 12.3403 12.9982 12.634 13.3456 12.7024C13.599 12.7526 13.9904 12.6279 14.0018 12.3137C14.0083 12.1339 13.8871 11.9743 13.7461 11.7911Z" fill="#E8BDA8"/>
<path d="M13.2745 11.9502C13.4558 11.9088 13.6811 11.7089 13.6879 11.5136C13.6933 11.3589 13.5625 11.1583 13.4276 11.0895C13.1297 10.9375 12.8041 11.0534 12.6357 11.3232C12.513 11.5205 12.4928 11.8891 12.7535 11.9985C12.9025 12.0612 13.0754 12.0099 13.2741 11.9499L13.2745 11.9502Z" fill="#E8BDA8"/>
<path d="M13.2342 10.5203C13.1327 10.3459 12.8527 10.1772 12.6479 10.2334C12.486 10.2779 12.3207 10.4782 12.2929 10.6404C12.2318 10.998 12.4575 11.2982 12.7919 11.3848C13.0358 11.4483 13.4242 11.3495 13.4531 11.044C13.4698 10.8692 13.3608 10.7069 13.2338 10.5203H13.2342Z" fill="#E8BDA8"/>
<path d="M13.3615 9.7749C13.2259 9.64228 12.9298 9.55982 12.7588 9.66204C12.6232 9.74298 12.524 9.96605 12.5396 10.1196C12.5742 10.4589 12.8538 10.674 13.178 10.6687C13.4147 10.6649 13.7419 10.4779 13.6914 10.194C13.6625 10.0318 13.523 9.91208 13.3615 9.7749Z" fill="#E8BDA8"/>
<path d="M14.8351 17.6721C15.1749 17.3323 15.175 16.7814 14.8352 16.4416C14.4954 16.1018 13.9445 16.1019 13.6047 16.4417L13.0831 16.9633C12.7433 17.3031 12.7432 17.8541 13.083 18.1938C13.4227 18.5336 13.9737 18.5335 14.3135 18.1937L14.8351 17.6721Z" fill="#EFC1A9"/>
<path d="M25.2109 18.1937C25.5507 18.5335 26.1016 18.5336 26.4414 18.1938C26.7812 17.854 26.7811 17.3031 26.4413 16.9633L25.9197 16.4417C25.5799 16.1019 25.029 16.1018 24.6892 16.4416C24.3494 16.7814 24.3495 17.3323 24.6893 17.6721L25.2109 18.1937Z" fill="#EFC1A9"/>
<path d="M19.7623 27.1208C24.8661 27.1208 29.0036 25.9828 29.0036 24.579C29.0036 23.1751 24.8661 22.0371 19.7623 22.0371C14.6585 22.0371 10.521 23.1751 10.521 24.579C10.521 25.9828 14.6585 27.1208 19.7623 27.1208Z" fill="#EFC1A9"/>
<path d="M8.6301 28.6234C8.66582 28.9844 8.81858 29.3044 9.04583 29.5533C8.91891 29.8136 8.85848 30.1104 8.88926 30.4197C8.95615 31.0961 9.43039 31.6327 10.0449 31.8132C10.1699 32.6629 10.9398 33.2735 11.8035 33.188C11.9133 33.1774 12.0194 33.1554 12.1212 33.1242C12.4533 33.5202 12.9686 33.7508 13.5215 33.6965C13.9604 33.6532 14.3404 33.4377 14.603 33.1242C14.6201 33.1295 14.638 33.1329 14.6551 33.1375C14.8542 33.2823 15.0772 33.394 15.317 33.4643C15.4846 34.6028 16.5163 35.4209 17.6738 35.3069C17.8209 35.2925 17.9634 35.2632 18.0994 35.2214C18.5444 35.7519 19.2349 36.0612 19.9759 35.9883C20.5641 35.9301 21.0733 35.6417 21.4252 35.2214C21.6931 35.3043 21.9815 35.3362 22.2779 35.3069C23.2895 35.207 24.0674 34.4265 24.2087 33.4639C24.4515 33.3929 24.6742 33.2808 24.8718 33.1367C24.8882 33.1322 24.9053 33.1291 24.9216 33.1242C25.2537 33.5202 25.769 33.7508 26.3219 33.6965C26.7608 33.6532 27.1408 33.4377 27.4034 33.1242C27.6033 33.1861 27.8188 33.2101 28.0399 33.188C28.795 33.1136 29.3753 32.531 29.4809 31.8128C30.2132 31.5985 30.7136 30.8883 30.6357 30.1013C30.6163 29.9048 30.5609 29.7209 30.4792 29.5529C30.7771 29.2257 30.9416 28.7796 30.8949 28.305C30.8436 27.7874 30.5533 27.3519 30.1444 27.0947C30.163 26.967 30.1683 26.8355 30.155 26.7014C30.0726 25.8665 29.3696 25.2425 28.548 25.2418C28.2698 24.6269 27.6238 24.2279 26.9151 24.2982C26.6354 24.326 26.3793 24.4233 26.1627 24.5715C25.8598 24.3651 25.4859 24.2595 25.093 24.2982C24.6336 24.3435 24.2395 24.5775 23.9765 24.915C23.671 24.7512 23.3237 24.6592 22.9593 24.6589C22.5861 23.835 21.7208 23.3003 20.7712 23.3942C20.3961 23.4311 20.0534 23.5618 19.7627 23.7601C19.3568 23.4835 18.856 23.3421 18.3289 23.3942C17.5298 23.4732 16.8769 23.9771 16.5672 24.6592C16.4985 24.6592 16.4289 24.6623 16.359 24.6691C16.0664 24.698 15.7935 24.7843 15.5496 24.915C15.2194 24.4924 14.6877 24.2416 14.1147 24.2982C13.835 24.326 13.5789 24.4233 13.3623 24.5715C13.0594 24.3651 12.6855 24.2595 12.2926 24.2982C11.6964 24.3571 11.2088 24.7333 10.9781 25.2422C10.9268 25.2422 10.8752 25.2444 10.8227 25.2498C9.93313 25.3375 9.28295 26.1302 9.37073 27.0198C9.37339 27.0453 9.37833 27.0696 9.38175 27.0947C8.879 27.4112 8.56854 27.9922 8.63086 28.6238L8.6301 28.6234Z" fill="#FFF5E4"/>
<path d="M17.8403 27.2421C18.7435 28.1731 19.7623 28.132 19.7623 28.132C19.7623 28.132 20.7811 28.1731 21.6844 27.2421C22.5876 26.3111 22.284 25.4758 22.1571 25.2292C22.0302 24.9826 21.7125 24.5513 20.8518 24.5513C20.4269 24.5513 20.2381 24.6296 20.0439 24.6915C19.8607 24.75 19.6639 24.75 19.4811 24.6915C19.2869 24.6296 19.0981 24.5513 18.6732 24.5513C17.8121 24.5513 17.4948 24.9826 17.3679 25.2292C17.241 25.4758 16.9374 26.3111 17.8406 27.2421H17.8403Z" fill="#FF3855"/>
<path d="M13.9589 23.9503C14.7447 23.9503 15.3816 23.1907 15.3816 22.2536C15.3816 21.3165 14.7447 20.5569 13.9589 20.5569C13.1732 20.5569 12.5362 21.3165 12.5362 22.2536C12.5362 23.1907 13.1732 23.9503 13.9589 23.9503Z" fill="#1F1F20"/>
<path d="M25.5653 23.9503C26.3511 23.9503 26.9881 23.1907 26.9881 22.2536C26.9881 21.3165 26.3511 20.5569 25.5653 20.5569C24.7796 20.5569 24.1426 21.3165 24.1426 22.2536C24.1426 23.1907 24.7796 23.9503 25.5653 23.9503Z" fill="#1F1F20"/>
<path d="M21.0178 30.9323C20.9555 30.9323 20.8921 30.9197 20.8313 30.8931L19.7562 30.4257L18.6953 30.8924C18.4585 30.9965 18.1823 30.889 18.0781 30.6522C17.974 30.4155 18.0816 30.1392 18.3183 30.0351L19.5666 29.4856C19.6859 29.4332 19.822 29.4328 19.942 29.4849L21.2048 30.0343C21.4419 30.1373 21.5506 30.4136 21.4476 30.6507C21.3709 30.827 21.1987 30.9323 21.0178 30.9323Z" fill="#1F1F20"/>
<path d="M11.3243 23.0859C11.1389 22.8952 10.8334 22.8952 10.6479 23.0859C9.99432 23.7589 8.62175 25.4195 8.62175 27.4921C8.62175 29.1352 9.68006 29.8565 10.9861 29.8565C12.2922 29.8565 13.3505 29.1356 13.3505 27.4921C13.3505 25.4195 11.9779 23.7593 11.3243 23.0859Z" fill="#00D1FF"/>
</svg>
