<svg width="28" height="28" viewBox="0 0 28 28" fill="none" xmlns="http://www.w3.org/2000/svg">
<path fill-rule="evenodd" clip-rule="evenodd" d="M23 14C23 18.9706 18.9706 23 14 23C9.02944 23 5 18.9706 5 14C5 9.02944 9.02944 5 14 5C18.9706 5 23 9.02944 23 14ZM11.1174 15.2564C10.8184 14.862 10.2566 14.7828 9.86018 15.0801C9.46254 15.3784 9.38195 15.9425 9.68018 16.3401L10.4002 15.8001C9.68018 16.3401 9.6804 16.3404 9.68062 16.3407L9.68109 16.3413L9.68213 16.3427L9.6846 16.346L9.69108 16.3544L9.71025 16.379C9.72577 16.3986 9.74679 16.4246 9.77321 16.456C9.82599 16.5189 9.90068 16.6041 9.99649 16.7041C10.1874 16.9033 10.4663 17.1656 10.8271 17.428C11.5452 17.9503 12.6272 18.5001 14.0002 18.5001C15.3732 18.5001 16.4551 17.9503 17.1733 17.428C17.5341 17.1656 17.813 16.9033 18.0039 16.7041C18.0997 16.6041 18.1744 16.5189 18.2272 16.456C18.2536 16.4246 18.2746 16.3986 18.2901 16.379L18.3093 16.3544L18.3158 16.346L18.3182 16.3427L18.3193 16.3413L18.3197 16.3407C18.32 16.3404 18.3202 16.3401 17.6002 15.8001L18.3202 16.3401C18.6184 15.9425 18.5378 15.3784 18.1402 15.0801C17.7438 14.7828 17.182 14.862 16.883 15.2564L16.8788 15.2617C16.8735 15.2685 16.8633 15.2811 16.8484 15.2989C16.8186 15.3344 16.7702 15.3899 16.7043 15.4587C16.5717 15.597 16.3725 15.7847 16.1146 15.9723C15.5952 16.35 14.8772 16.7001 14.0002 16.7001C13.1232 16.7001 12.4051 16.35 11.8858 15.9723C11.6278 15.7847 11.4286 15.597 11.2961 15.4587C11.2302 15.3899 11.1818 15.3344 11.152 15.2989C11.1371 15.2811 11.1269 15.2685 11.1215 15.2617L11.1174 15.2564ZM11.8774 12.6627C12.4609 12.3483 12.6791 11.6205 12.3647 11.0371C12.0504 10.4536 11.3226 10.2354 10.7391 10.5498L10.731 10.5541C10.1476 10.8684 9.92941 11.5962 10.2437 12.1797C10.5581 12.7632 11.2859 12.9813 11.8693 12.667L11.8774 12.6627ZM17.6374 12.6627C18.2209 12.3483 18.4391 11.6205 18.1248 11.0371C17.8104 10.4536 17.0826 10.2354 16.4992 10.5497L16.4911 10.5541C15.9076 10.8684 15.6894 11.5962 16.0038 12.1797C16.3181 12.7632 17.0459 12.9813 17.6293 12.667L17.6374 12.6627Z" fill="white"/>
</svg>
