<svg width="24" height="24" viewBox="0 0 24 24" fill="none" xmlns="http://www.w3.org/2000/svg">
<path fill-rule="evenodd" clip-rule="evenodd" d="M21.75 12C21.75 17.3848 17.3848 21.75 12 21.75C6.61522 21.75 2.25 17.3848 2.25 12C2.25 6.61522 6.61522 2.25 12 2.25C17.3848 2.25 21.75 6.61522 21.75 12ZM7.51499 13.381C7.94442 13.0589 8.55305 13.1447 8.87693 13.5719L8.88146 13.5777C8.88726 13.5851 8.89829 13.5988 8.91442 13.618C8.94674 13.6565 8.99912 13.7166 9.07053 13.7911C9.21415 13.941 9.42996 14.1443 9.7094 14.3475C10.272 14.7567 11.0499 15.136 12 15.136C12.9501 15.136 13.728 14.7567 14.2906 14.3475C14.57 14.1443 14.7858 13.941 14.9295 13.7911C15.0009 13.7166 15.0532 13.6565 15.0856 13.618C15.1017 13.5988 15.1127 13.5851 15.1185 13.5777L15.1231 13.5719C15.4469 13.1447 16.0556 13.0589 16.485 13.381C16.9158 13.7041 17.0031 14.3152 16.68 14.746L16.6784 14.7514L16.6392 14.7985C16.6234 14.8182 16.6034 14.8428 16.5792 14.8716C16.522 14.9397 16.4411 15.032 16.3373 15.1403C16.1306 15.3561 15.8284 15.6403 15.4375 15.9245C14.6595 16.4903 13.4874 17.086 12 17.086C10.5126 17.086 9.34045 16.4903 8.56246 15.9245C8.17159 15.6403 7.86943 15.3561 7.66265 15.1403C7.55887 15.032 7.47795 14.9397 7.42077 14.8716C7.39215 14.8375 7.36938 14.8093 7.35257 14.7881L7.3318 14.7615L7.32477 14.7523L7.3221 14.7488L7.32098 14.7473L7.31999 14.746C6.9969 14.3152 7.08421 13.7041 7.51499 13.381ZM9.50093 10.762C10.133 10.4215 10.3694 9.63304 10.0289 9.00095C9.68834 8.36887 8.89989 8.13251 8.26781 8.47303L8.25904 8.47775C7.62695 8.81827 7.39059 9.60672 7.73111 10.2388C8.07163 10.8709 8.86008 11.1072 9.49216 10.7667L9.50093 10.762ZM15.741 10.762C16.3731 10.4215 16.6094 9.63302 16.2689 9.00094C15.9284 8.36886 15.1399 8.13251 14.5078 8.47303L14.4991 8.47776C13.867 8.81828 13.6306 9.60673 13.9711 10.2388C14.3117 10.8709 15.1001 11.1072 15.7322 10.7667L15.741 10.762Z" fill="white"/>
</svg>
