<svg width="28" height="28" viewBox="0 0 28 28" fill="none" xmlns="http://www.w3.org/2000/svg">
<path d="M12.9797 14.4175L13.5474 12.8579H14.8486L14.2809 14.4175H12.9797Z" fill="white"/>
<path fill-rule="evenodd" clip-rule="evenodd" d="M14 24C19.5228 24 24 19.5228 24 14C24 8.47715 19.5228 4 14 4C8.47715 4 4 8.47715 4 14C4 15.537 4.34677 16.9931 4.96633 18.2941L4.07085 22.7715C3.94646 23.3935 4.49483 23.9419 5.1168 23.8175L9.51154 22.9385C10.8613 23.6176 12.386 24 14 24ZM10.9753 10.8579C10.423 10.8579 9.97531 11.3056 9.97531 11.8579C9.97531 12.4102 10.423 12.8579 10.9753 12.8579H11.4355L10.8678 14.4175H10.1111C9.55883 14.4175 9.11111 14.8653 9.11111 15.4175C9.11111 15.9698 9.55883 16.4175 10.1111 16.4175H10.1398L9.91702 17.0298C9.72812 17.5487 9.97347 18.1736 10.465 18.4254C10.9566 18.6772 11.5082 18.4606 11.697 17.9416L12.2518 16.4175H13.553L13.3301 17.0298C13.1412 17.5487 13.3866 18.1736 13.8781 18.4254C14.3697 18.6772 14.9213 18.4606 15.1102 17.9416L15.6649 16.4175H17.0247C17.577 16.4175 18.0247 15.9698 18.0247 15.4175C18.0247 14.8653 17.577 14.4175 17.0247 14.4175H16.3928L16.9605 12.8579H17.8889C18.4412 12.8579 18.8889 12.4102 18.8889 11.8579C18.8889 11.3056 18.4412 10.8579 17.8889 10.8579H17.6884L17.7539 10.6782C17.9427 10.1592 17.6974 9.53434 17.2059 9.28253C16.7143 9.03072 16.1627 9.24731 15.9738 9.76629L15.5765 10.8579H14.2753L14.3407 10.6782C14.5296 10.1592 14.2843 9.53434 13.7927 9.28253C13.3012 9.03072 12.7496 9.24731 12.5607 9.76629L12.1634 10.8579H10.9753Z" fill="white"/>
</svg>
