<svg width="32" height="32" viewBox="0 0 32 32" fill="none" xmlns="http://www.w3.org/2000/svg">
<path fill-rule="evenodd" clip-rule="evenodd" d="M10.6665 2.6665C6.24823 2.6665 2.6665 6.24823 2.6665 10.6665L2.6665 19.9998C2.66651 24.4181 6.24823 27.9998 10.6665 27.9998H21.3332C25.7514 27.9998 29.3332 24.4181 29.3332 19.9998V10.6665C29.3332 6.24823 25.7514 2.66651 21.3332 2.66651L10.6665 2.6665ZM8.39984 7.99984C7.66346 7.99984 7.0665 8.59679 7.0665 9.33317C7.0665 10.0696 7.66346 10.6665 8.39984 10.6665H23.5998C24.3362 10.6665 24.9332 10.0696 24.9332 9.33317C24.9332 8.59679 24.3362 7.99984 23.5998 7.99984H8.39984Z" fill="#1F1F20"/>
</svg>
