<svg width="24" height="26" viewBox="0 0 24 26" fill="none" xmlns="http://www.w3.org/2000/svg" fill="#1F1F20">
<path fill-rule="evenodd" clip-rule="evenodd" d="M0.300049 10.4C0.300049 5.4977 0.300049 3.0459 1.82365 1.5236C3.34595 -1.54972e-07 5.79775 0 10.7 0H13.3C18.2023 0 20.6541 -1.54972e-07 22.1764 1.5236C23.7 3.0459 23.7 5.4977 23.7 10.4V15.6C23.7 20.5023 23.7 22.9541 22.1764 24.4764C20.6541 26 18.2023 26 13.3 26H10.7C5.79775 26 3.34595 26 1.82365 24.4764C0.300049 22.9541 0.300049 20.5023 0.300049 15.6V10.4ZM4.20005 13C4.20005 11.1618 4.20005 10.2427 4.77205 9.672C5.34145 9.1 6.26055 9.1 8.10005 9.1H15.9C17.7382 9.1 18.6573 9.1 19.228 9.672C19.8 10.2427 19.8 11.1618 19.8 13V18.2C19.8 20.0382 19.8 20.9573 19.228 21.528C18.6573 22.1 17.7382 22.1 15.9 22.1H8.10005C6.26185 22.1 5.34275 22.1 4.77205 21.528C4.20005 20.9586 4.20005 20.0395 4.20005 18.2V13ZM5.50005 4.225C5.24146 4.225 4.99347 4.32772 4.81062 4.51057C4.62777 4.69342 4.52505 4.94141 4.52505 5.2C4.52505 5.45859 4.62777 5.70658 4.81062 5.88943C4.99347 6.07228 5.24146 6.175 5.50005 6.175H12C12.2586 6.175 12.5066 6.07228 12.6895 5.88943C12.8723 5.70658 12.975 5.45859 12.975 5.2C12.975 4.94141 12.8723 4.69342 12.6895 4.51057C12.5066 4.32772 12.2586 4.225 12 4.225H5.50005Z" />
</svg>
