<svg width="48" height="48" viewBox="0 0 48 48" fill="none" xmlns="http://www.w3.org/2000/svg">
  <rect width="48" height="48" rx="12" fill="white" />
  <path fill-rule="evenodd" clip-rule="evenodd"
    d="M24.5165 7.65895L14.2305 10.4151C12.2545 10.9446 11.0819 12.9756 11.6114 14.9515L16.6058 33.5909L14.85 36.5435L22.8002 41.1335L25.6132 36.2743L32.4791 40.2384L38.5636 29.6997L35.7097 27.9654L31.3212 11.5875C31.3212 11.5875 31.3212 11.5875 31.3212 11.5875C28.3573 12.3817 25.3108 10.6228 24.5165 7.65895ZM26.3054 7.17962C26.8349 9.15552 28.8659 10.3281 30.8418 9.79864C30.8419 9.79864 30.8419 9.79863 30.8419 9.79863C30.3124 7.82274 28.2814 6.65017 26.3055 7.17961L26.3054 7.17962Z"
    fill="#FFEFFA" />
  <path
    d="M24.5165 7.65906L14.2304 10.4152C13.5669 10.593 12.994 10.94 12.5457 11.3975L22.5053 17.1477L26.3417 10.5027C25.482 9.79281 24.827 8.81806 24.5165 7.65906Z"
    fill="url(#paint0_linear_421_7340)" />
  <path
    d="M27.9456 11.4287L24.1092 18.0736L34.697 24.1865L31.3211 11.5877C30.162 11.8983 28.9903 11.8184 27.9456 11.4287Z"
    fill="url(#paint1_linear_421_7340)" />
  <path
    d="M23.4801 43.6147C22.9686 44.5005 21.836 44.804 20.9502 44.2926L13.5701 40.0317C12.6843 39.5203 12.3809 38.3877 12.8923 37.5019L23.1832 19.6775L33.771 25.7904L23.4801 43.6147Z"
    fill="url(#paint2_linear_421_7340)" />
  <path
    d="M28.7956 38.1119L33.6206 40.8976C34.5064 41.409 35.6391 41.1055 36.1505 40.2197L40.8777 32.032C41.3891 31.1462 41.0856 30.0135 40.1998 29.5021L35.3748 26.7164L28.7956 38.1119Z"
    fill="url(#paint3_linear_421_7340)" />
  <path
    d="M21.5793 18.7515L15.4664 29.3393L11.6113 14.9516C11.4335 14.2881 11.4476 13.6183 11.6197 13.0013L21.5793 18.7515Z"
    fill="url(#paint4_linear_421_7340)" />
  <path
    d="M33.5872 6.22107C33.5872 8.26673 31.9288 9.92506 29.8832 9.92506C27.8375 9.92506 26.1792 8.26673 26.1792 6.22107C26.1792 4.17542 27.8375 2.51709 29.8832 2.51709C31.9288 2.51709 33.5872 4.17542 33.5872 6.22107Z"
    fill="#FF47C2" />
  <defs>
    <linearGradient id="paint0_linear_421_7340" x1="19.9494" y1="8.88281" x2="29.0092" y2="42.6948"
      gradientUnits="userSpaceOnUse">
      <stop stop-color="#FF8DD9" />
      <stop offset="1" stop-color="#FFA8E2" />
    </linearGradient>
    <linearGradient id="paint1_linear_421_7340" x1="19.9494" y1="8.88281" x2="29.0092" y2="42.6948"
      gradientUnits="userSpaceOnUse">
      <stop stop-color="#FF8DD9" />
      <stop offset="1" stop-color="#FFA8E2" />
    </linearGradient>
    <linearGradient id="paint2_linear_421_7340" x1="19.9494" y1="8.88281" x2="29.0092" y2="42.6948"
      gradientUnits="userSpaceOnUse">
      <stop stop-color="#FF8DD9" />
      <stop offset="1" stop-color="#FFA8E2" />
    </linearGradient>
    <linearGradient id="paint3_linear_421_7340" x1="19.9494" y1="8.88281" x2="29.0092" y2="42.6948"
      gradientUnits="userSpaceOnUse">
      <stop stop-color="#FF8DD9" />
      <stop offset="1" stop-color="#FFA8E2" />
    </linearGradient>
    <linearGradient id="paint4_linear_421_7340" x1="19.9494" y1="8.88281" x2="29.0092" y2="42.6948"
      gradientUnits="userSpaceOnUse">
      <stop stop-color="#FF8DD9" />
      <stop offset="1" stop-color="#FFA8E2" />
    </linearGradient>
  </defs>
</svg>