<svg width="22" height="22" viewBox="0 0 22 22" fill="none" xmlns="http://www.w3.org/2000/svg">
<rect x="1" y="1" width="20" height="20" rx="10" fill="#36DBBF"/>
<rect x="1" y="1" width="20" height="20" rx="10" stroke="white" stroke-width="2"/>
<path d="M14.6381 13.7073C14.613 15.5694 13.7512 16.0625 12.6577 16.0625C11.5642 16.0625 11.5556 15.4738 10.9602 15.4738C10.3648 15.4738 10.3668 16.0625 9.0947 16.0625C8.02355 16.0625 7.36194 14.8777 7.36194 13.7359C7.36194 12.0496 8.79669 10.0596 10.9883 10.0596C13.2361 10.0596 14.6381 12.136 14.6381 13.7073Z" fill="white"/>
<ellipse cx="9.34867" cy="7.62526" rx="1.27332" ry="1.68752" fill="white"/>
<ellipse cx="12.6513" cy="7.62502" rx="1.27332" ry="1.68752" fill="white"/>
<ellipse cx="1.27341" cy="1.6874" rx="1.27341" ry="1.6874" transform="matrix(0.996124 0.0879566 -0.086362 0.996264 14.4132 8.23877)" fill="white"/>
<ellipse cx="1.27341" cy="1.6874" rx="1.27341" ry="1.6874" transform="matrix(0.996124 -0.0879566 0.086362 0.996264 5.04984 8.46289)" fill="white"/>
</svg>
