<svg width="28" height="28" viewBox="0 0 28 28" fill="none" xmlns="http://www.w3.org/2000/svg">
  <path fill-rule="evenodd" clip-rule="evenodd"
    d="M20.9919 20.8427C20.9919 23.5773 16.8535 24.5 11.7469 24.5C6.64029 24.5 2.49927 23.5773 2.49927 20.8427C2.49927 18.1081 6.63899 15.1835 11.7456 15.1835C16.8522 15.1835 20.9919 18.1081 20.9919 20.8427ZM23.0347 9.67286C23.0347 9.1574 22.6168 8.73953 22.1014 8.73953C21.5859 8.73953 21.168 9.1574 21.168 9.67286L21.168 11.2051L19.6358 11.2051C19.1203 11.2051 18.7025 11.623 18.7025 12.1385C18.7025 12.6539 19.1203 13.0718 19.6358 13.0718L21.168 13.0718L21.168 14.6042C21.168 15.1197 21.5859 15.5376 22.1014 15.5376C22.6168 15.5376 23.0347 15.1197 23.0347 14.6042L23.0347 13.0718L24.5672 13.0718C25.0826 13.0718 25.5005 12.6539 25.5005 12.1385C25.5005 11.623 25.0826 11.2051 24.5672 11.2051L23.0347 11.2051L23.0347 9.67286ZM11.7457 13.4568C14.4954 13.4568 16.7244 11.2277 16.7244 8.478C16.7244 5.72829 14.4954 3.49921 11.7457 3.49921C8.99596 3.49921 6.76689 5.72829 6.76689 8.478C6.76689 11.2277 8.99596 13.4568 11.7457 13.4568Z"
    fill="#8D959A" />
</svg>