<svg width="48" height="48" viewBox="0 0 48 48" fill="none" xmlns="http://www.w3.org/2000/svg">
<g clip-path="url(#clip0_1018_10293)">
<rect width="48" height="48" fill="#FFF4EC"/>
<path d="M10.0214 23.6261C8.70947 28.2541 2.5 45.5 -1.5 49.5001L28.984 53.3948C35.1983 42.5916 40.4828 26.9902 39.4075 22.0971C38.5473 18.1825 35.9272 17.8952 34.7246 18.2409C34.8767 17.0331 34.6375 14.3187 32.4643 13.123C30.2911 11.9273 28.63 12.5299 28.0711 12.9806C27.5169 12.0034 25.8262 10.1478 23.4974 10.5431C21.1687 10.9383 19.3946 13.1239 18.7987 14.1673C18.4196 13.9873 16.7101 13.5664 15.0588 14.6253C12.0205 16.5737 11.0988 19.8254 10.029 23.5992L10.0214 23.6261Z" fill="#F2D2B9"/>
<path d="M28.731 32.5129C27.6407 35.4701 26.0033 35.7683 24.2788 35.1483C22.5543 34.5283 22.8731 33.5839 21.9341 33.2463C20.9951 32.9087 20.6661 33.8494 18.66 33.1281C16.9708 32.5208 16.596 30.255 17.2404 28.4329C18.1919 25.7422 21.5775 23.3802 25.0337 24.6228C28.5785 25.8973 29.6177 30.0056 28.731 32.5129Z" fill="#D09D83"/>
<ellipse cx="2.13387" cy="2.85621" rx="2.13387" ry="2.85621" transform="matrix(0.941025 0.338336 -0.333402 0.942785 22.7659 16.394)" fill="#D09D83"/>
<ellipse cx="2.13387" cy="2.85621" rx="2.13387" ry="2.85621" transform="matrix(0.941025 0.338336 -0.333402 0.942785 27.9743 18.2666)" fill="#D09D83"/>
<ellipse cx="2.13418" cy="2.8558" rx="2.13418" ry="2.8558" transform="matrix(0.90769 0.420744 -0.412653 0.910398 31.4622 23.6602)" fill="#D09D83"/>
<ellipse cx="2.13418" cy="2.8558" rx="2.13418" ry="2.8558" transform="matrix(0.966921 0.253254 -0.251709 0.968264 16.5696 18.7087)" fill="#D09D83"/>
</g>
<defs>
<clipPath id="clip0_1018_10293">
<rect width="48" height="48" fill="white"/>
</clipPath>
</defs>
</svg>
