<svg width="48" height="48" viewBox="0 0 48 48" fill="none" xmlns="http://www.w3.org/2000/svg">
  <circle cx="24" cy="24" r="20" fill="url(#paint0_linear_519_8109)" />
  <path fill-rule="evenodd" clip-rule="evenodd"
    d="M7.56616 35.4019C7.77152 34.3856 7.98674 33.327 8.2025 32.2657C8.92879 28.6934 9.66104 25.0917 10.0427 22.9762L10.0473 22.9504C10.701 19.3269 11.2642 16.2048 13.949 14.1019C15.4081 12.959 17.062 13.1924 17.4369 13.325C17.9011 12.2951 19.3697 10.0888 21.5312 9.50228C23.6927 8.91576 25.4644 10.4904 26.08 11.351C26.5652 10.878 28.0767 10.1602 30.2416 11.0736C32.4065 11.987 32.8887 14.4991 32.8592 15.641C33.962 15.2059 36.463 15.2295 37.645 18.804C38.9021 22.6059 37.0559 32.2469 33.4912 41.609C30.6673 43.1343 27.4348 44.0002 24 44.0002C17.1919 44.0002 11.1783 40.5984 7.56616 35.4019Z"
    fill="#F8DFCB" />
  <path
    d="M28.5478 29.5263C27.7976 32.3892 26.2797 32.8205 24.5929 32.4027C22.906 31.9849 23.1178 31.0734 22.1993 30.8459C21.2808 30.6183 21.059 31.5273 19.0967 31.0413C17.4444 30.632 16.8765 28.5515 17.3128 26.7901C17.9571 24.1889 20.9307 21.6674 24.3115 22.5048C27.7789 23.3637 29.1482 27.1024 28.5478 29.5263Z"
    fill="#DFB39C" />
  <ellipse cx="22.7125" cy="18.1234" rx="2.02355" ry="2.6818" transform="rotate(13.9124 22.7125 18.1234)"
    fill="#DFB39C" />
  <ellipse cx="27.8072" cy="19.3856" rx="2.02355" ry="2.6818" transform="rotate(13.9124 27.8072 19.3856)"
    fill="#DFB39C" />
  <ellipse cx="2.0237" cy="2.68161" rx="2.0237" ry="2.68161"
    transform="matrix(0.945754 0.324883 -0.323369 0.946273 30.2905 21.0054)" fill="#DFB39C" />
  <ellipse cx="2.0237" cy="2.68161" rx="2.0237" ry="2.68161"
    transform="matrix(0.988051 0.15413 -0.155712 0.987803 15.761 17.7734)" fill="#DFB39C" />
  <defs>
    <linearGradient id="paint0_linear_519_8109" x1="24" y1="4" x2="24" y2="44" gradientUnits="userSpaceOnUse">
      <stop stop-color="#FF8900" />
      <stop offset="1" stop-color="#FFA338" />
    </linearGradient>
  </defs>
</svg>