<svg width="32" height="32" viewBox="0 0 32 32" fill="none" xmlns="http://www.w3.org/2000/svg" fill="#1F1F20">
<path fill-rule="evenodd" clip-rule="evenodd" d="M6.10408 10.9364C4.6527 12.0462 3.33325 13.8497 3.33325 15.6532V24.1156C3.33325 26.1965 4.91659 28 7.0277 28H11.6458C12.5694 28 13.361 27.6378 13.361 26.6667V22.7283C13.361 21.0636 14.5485 19.6763 15.9999 19.6763C17.4513 19.6763 18.6388 21.0636 18.6388 22.7283V26.6667C18.6388 27.6378 19.4305 28 20.3541 28H24.9721C26.9513 28 28.6666 26.3353 28.6666 24.1156V15.6532C28.6666 13.711 27.8749 12.0462 26.4235 10.9364L18.6388 4.83237C17.1874 3.72254 15.2083 3.72254 13.8888 4.83237L6.10408 10.9364Z" />
</svg>
