<svg width="26" height="27" viewBox="0 0 26 27" fill="none" xmlns="http://www.w3.org/2000/svg">
<path d="M13.9191 0.793712L25.6192 12.4938C26.4382 13.3128 25.8584 14.713 24.7001 14.713H23.4001V22.513C23.4001 23.5474 22.9892 24.5394 22.2578 25.2708C21.5264 26.0022 20.5344 26.4131 19.5 26.4131H18.2V17.313C18.2001 16.3182 17.82 15.361 17.1375 14.6372C16.4551 13.9134 15.5219 13.4778 14.5288 13.4194L14.3 13.4129H11.7C10.6656 13.4129 9.67361 13.8238 8.94221 14.5552C8.21081 15.2866 7.79991 16.2786 7.79991 17.313V26.4131H6.4999C5.46555 26.4131 4.47355 26.0022 3.74215 25.2708C3.01075 24.5394 2.59986 23.5474 2.59986 22.513V14.713H1.29984C0.142832 14.713 -0.438274 13.3128 0.380735 12.4938L12.0809 0.793712C12.3246 0.549997 12.6553 0.413086 13 0.413086C13.3447 0.413086 13.6753 0.549997 13.9191 0.793712ZM14.3 16.013C14.6448 16.013 14.9754 16.1499 15.2192 16.3937C15.463 16.6375 15.6 16.9682 15.6 17.313V26.4131H10.3999V17.313C10.4 16.9946 10.5169 16.6872 10.7285 16.4493C10.9401 16.2113 11.2316 16.0593 11.5479 16.0221L11.7 16.013H14.3Z" fill="#1F1F20"/>
</svg>
