<svg width="24" height="24" viewBox="0 0 24 24" fill="none" xmlns="http://www.w3.org/2000/svg">
<path fill-rule="evenodd" clip-rule="evenodd" d="M6.66848 4.49643C4.53994 5.18249 3 7.17955 3 9.53628L3 16.6883C3 19.6122 5.37026 21.9824 8.29412 21.9824L16.6152 21.9824C19.539 21.9824 21.9093 19.6122 21.9093 16.6883L21.9093 9.53628C21.9093 7.17954 20.3693 5.18247 18.2408 4.49642L18.2408 3.05894C18.2408 2.47416 17.7667 2.00011 17.182 2.00011C16.5972 2.00011 16.1231 2.47416 16.1231 3.05894L16.1231 4.24216L8.78612 4.24216L8.78612 3.05894C8.78612 2.47416 8.31207 2.00011 7.7273 2.00011C7.14253 2.00011 6.66848 2.47416 6.66848 3.05894L6.66848 4.49643ZM14.2211 8.8C14.2211 8.35817 13.8629 8 13.4211 8L12.2769 8C12.1268 8 11.9798 8.04221 11.8526 8.12181L9.97566 9.2962C9.74195 9.44243 9.6 9.6987 9.6 9.97439L9.6 10.7269C9.6 11.3523 10.2853 11.7358 10.8183 11.4088L11.8183 10.7954C11.825 10.7912 11.8327 10.7891 11.8406 10.7891C11.8641 10.7891 11.8832 10.8082 11.8832 10.8317L11.8832 17.7C11.8832 18.1418 12.2414 18.5 12.6832 18.5L13.4211 18.5C13.8629 18.5 14.2211 18.1418 14.2211 17.7L14.2211 8.8Z" fill="white"/>
</svg>
