<svg width="351" height="56" viewBox="0 0 351 56" fill="none" xmlns="http://www.w3.org/2000/svg">
  <rect x="0.431152" width="350" height="56" rx="12" fill="#FEE500" />
  <g clip-path="url(#clip0_368_5117)">
    <path opacity="0.902" fill-rule="evenodd" clip-rule="evenodd"
      d="M125.431 19.944C120.721 19.944 116.431 23.73 116.431 26.933C116.431 29.333 117.989 31.45 120.362 32.708L119.364 36.374C119.275 36.699 119.644 36.957 119.927 36.77L124.304 33.865C124.673 33.901 125.049 33.922 125.431 33.922C130.401 33.922 134.431 30.793 134.431 26.933C134.431 23.73 130.401 19.944 125.431 19.944Z"
      fill="black" />
  </g>
  <path
    d="M149.565 22.176C149.551 26.6275 147.332 29.484 143.765 31.282L142.968 30.296C144.969 29.3825 146.564 28.0195 147.463 26.236L143.403 26.671L143.171 25.54L147.883 25.1775C148.072 24.583 148.188 23.945 148.217 23.2635H143.678V22.176H149.565ZM152.77 20.842V25.946H154.785V27.0045H152.77V33.515H151.494V20.842H152.77ZM162.111 22.176C162.097 26.6275 159.878 29.484 156.311 31.282L155.514 30.296C157.515 29.3825 159.11 28.0195 160.009 26.236L155.949 26.671L155.717 25.54L160.429 25.1775C160.618 24.583 160.734 23.945 160.763 23.2635H156.224V22.176H162.111ZM165.316 20.842V25.946H167.331V27.0045H165.316V33.515H164.04V20.842H165.316ZM178.514 25.1485C178.514 27.1205 176.904 28.4835 174.425 28.672V30.818H179.514V31.8765H168.074V30.818H173.134V28.6575C170.669 28.4545 169.074 27.1205 169.074 25.1485C169.074 23.0315 170.959 21.625 173.787 21.625C176.643 21.625 178.514 23.0315 178.514 25.1485ZM177.194 25.1485C177.194 23.713 175.846 22.698 173.787 22.698C171.742 22.698 170.394 23.713 170.394 25.1485C170.394 26.5985 171.742 27.599 173.787 27.599C175.831 27.599 177.194 26.5985 177.194 25.1485ZM192.06 31.9055H180.62V30.8615H185.666V28.8605H181.997V24.786H189.363V22.93H181.968V21.886H190.639V25.83H183.273V27.8165H190.987V28.8605H186.956V30.8615H192.06V31.9055ZM208.415 31.9055H196.975V30.8615H202.021V28.8605H198.352V24.786H205.718V22.93H198.323V21.886H206.994V25.83H199.628V27.8165H207.342V28.8605H203.311V30.8615H208.415V31.9055ZM220.961 31.6735H209.521V30.6295H220.961V31.6735ZM219.439 22.2775C219.439 25.163 219.221 28.0775 218.844 29.716L217.597 29.5565C217.916 28.3385 218.134 25.221 218.134 23.307H210.71V22.2775H219.439ZM232.463 30.0495H231.173V20.842H232.463V30.0495ZM232.753 33.1235H224.126V29.1795H225.416V32.094H232.753V33.1235ZM225.735 21.6975C227.693 21.6975 229.128 23.046 229.128 24.8585C229.128 26.6855 227.693 27.947 225.735 27.947C223.792 27.947 222.357 26.6855 222.357 24.873C222.357 23.046 223.792 21.6975 225.735 21.6975ZM225.735 22.7995C224.546 22.7995 223.705 23.6695 223.705 24.844C223.705 26.004 224.546 26.874 225.735 26.874C226.982 26.874 227.765 26.0185 227.765 24.8585C227.765 23.655 226.982 22.7995 225.735 22.7995Z"
    fill="black" />
  <defs>
    <clipPath id="clip0_368_5117">
      <rect width="18" height="18" fill="white" transform="translate(116.431 19)" />
    </clipPath>
  </defs>
</svg>