<svg width="351" height="46" viewBox="0 0 351 46" fill="none" xmlns="http://www.w3.org/2000/svg">
  <rect x="0.431152" y="0.5" width="350" height="45" rx="6" fill="#FEE500" />
  <g clip-path="url(#clip0_368_5117)">
    <path opacity="0.902" fill-rule="evenodd" clip-rule="evenodd"
      d="M29.4312 14.944C24.7212 14.944 20.4312 18.73 20.4312 21.933C20.4312 24.333 21.9892 26.45 24.3622 27.708L23.3642 31.374C23.2752 31.699 23.6442 31.957 23.9272 31.77L28.3042 28.865C28.6732 28.901 29.0492 28.922 29.4312 28.922C34.4012 28.922 38.4312 25.793 38.4312 21.933C38.4312 18.73 34.4012 14.944 29.4312 14.944Z"
      fill="black" />
  </g>
  <path
    d="M146.58 17.147C146.493 21.729 144.274 24.455 140.794 26.137L140.113 25.3105C142.201 24.4115 143.81 22.9905 144.695 21.1055L140.417 21.4825L140.185 20.482L145.043 20.192C145.246 19.525 145.376 18.8145 145.42 18.0605H140.722V17.147H146.58ZM149.726 15.842V21.033H151.8V21.9755H149.726V28.515H148.624V15.842H149.726ZM159.126 17.147C159.039 21.729 156.82 24.455 153.34 26.137L152.659 25.3105C154.747 24.4115 156.356 22.9905 157.241 21.1055L152.963 21.4825L152.731 20.482L157.589 20.192C157.792 19.525 157.922 18.8145 157.966 18.0605H153.268V17.147H159.126ZM162.272 15.842V21.033H164.346V21.9755H162.272V28.515H161.17V15.842H162.272ZM175.354 20.0905C175.354 22.0335 173.759 23.353 171.323 23.5125V25.9195H176.514V26.8475H165.074V25.9195H170.221V23.5125C167.8 23.3385 166.219 22.0335 166.219 20.0905C166.219 18.0025 168.046 16.6395 170.772 16.6395C173.542 16.6395 175.354 18.0025 175.354 20.0905ZM174.296 20.105C174.296 18.5825 172.918 17.5675 170.772 17.5675C168.67 17.5675 167.292 18.5825 167.292 20.105C167.292 21.6275 168.67 22.628 170.772 22.628C172.904 22.628 174.296 21.6275 174.296 20.105ZM189.06 26.9055H177.62V25.9775H182.767V23.817H179.026V19.8585H186.537V17.8285H179.012V16.9005H187.639V20.772H180.128V22.889H188.002V23.817H183.869V25.9775H189.06V26.9055ZM204.415 28.515H203.298V15.842H204.415V28.515ZM201.689 24.629L200.993 25.47C199.847 24.687 198.354 23.121 197.861 21.5985C197.397 23.179 196.092 24.7305 194.627 25.7745L193.902 24.948C195.758 23.788 197.281 21.4825 197.281 19.235V16.944H198.397V19.1915C198.397 21.5115 199.934 23.585 201.689 24.629ZM206.593 17.6835V16.7555H213.51V17.6835H210.624C210.624 18.0025 210.624 18.249 210.639 18.3795C210.74 20.0035 212.248 21.3955 213.698 21.874L213.089 22.7585C211.871 22.2655 210.581 21.12 210.059 19.9745C209.711 21.1635 208.232 22.5265 206.869 23.1065L206.231 22.251C207.826 21.642 209.435 20.047 209.493 18.365C209.493 18.249 209.508 18.0025 209.508 17.6835H206.593ZM208.087 24.0345H216.265V28.5295H215.163V24.948H208.087V24.0345ZM218.179 20.192H216.25V23.3675H215.148V15.842H216.25V19.264H218.179V20.192ZM230.87 22.1205H228.811V28.515H227.709V15.842H228.811V21.1925H230.87V22.1205ZM224.62 17.6545H220.894V16.712H224.62V17.6545ZM226.491 19.8005H219.009V18.887H226.491V19.8005ZM225.737 23.237C225.737 24.7015 224.548 25.847 222.779 25.847C221.01 25.847 219.821 24.716 219.821 23.237C219.821 21.758 221.01 20.6125 222.779 20.6125C224.548 20.6125 225.737 21.7435 225.737 23.237ZM224.635 23.237C224.635 22.2365 223.852 21.5405 222.779 21.5405C221.72 21.5405 220.923 22.2365 220.923 23.237C220.923 24.223 221.72 24.9335 222.779 24.9335C223.866 24.9335 224.635 24.223 224.635 23.237ZM241.966 28.515H240.864V15.842H241.966V28.515ZM238.239 17.1905C238.181 21.3085 235.658 24.455 232.381 26.0065L231.743 25.1365C234.948 23.73 236.833 20.975 237.065 18.1185H232.207V17.1905H238.239Z"
    fill="black" />
  <defs>
    <clipPath id="clip0_368_5117">
      <rect width="18" height="18" fill="white" transform="translate(20.4312 14)" />
    </clipPath>
  </defs>
</svg>