<svg width="24" height="24" viewBox="0 0 24 24" fill="none" xmlns="http://www.w3.org/2000/svg">
<path fill-rule="evenodd" clip-rule="evenodd" d="M10.7896 4.34456C13.2405 1.89361 17.2108 1.89361 19.6618 4.34456C22.1127 6.79552 22.1127 10.7658 19.6618 13.2168L18.3349 14.5437C17.9438 14.9348 17.3097 14.9348 16.9187 14.5437C16.5276 14.1526 16.5276 13.5186 16.9187 13.1275L18.2456 11.8006C19.9144 10.1318 19.9144 7.42958 18.2456 5.76077C16.5768 4.09196 13.8746 4.09196 12.2058 5.76077L10.8789 7.08769C10.4878 7.47876 9.85372 7.47876 9.46265 7.08769C9.07157 6.69661 9.07157 6.06256 9.46265 5.67148L10.7896 4.34456ZM7.08134 9.45636C7.47241 9.84743 7.47241 10.4815 7.08134 10.8726L5.75442 12.1995C4.08561 13.8683 4.08561 16.5705 5.75442 18.2393C7.42323 19.9081 10.1254 19.9081 11.7942 18.2393L13.1211 16.9124C13.5122 16.5213 14.1463 16.5213 14.5374 16.9124C14.9284 17.3034 14.9284 17.9375 14.5374 18.3286L13.2104 19.6555C10.7595 22.1064 6.78917 22.1064 4.33822 19.6555C1.88726 17.2045 1.88726 13.2342 4.33822 10.7833L5.66513 9.45636C6.05621 9.06528 6.69027 9.06528 7.08134 9.45636Z" fill="white"/>
<path fill-rule="evenodd" clip-rule="evenodd" d="M15.8581 8.12312C16.2491 8.51419 16.2491 9.14825 15.8581 9.53932L9.5394 15.858C9.14833 16.2491 8.51427 16.2491 8.1232 15.858C7.73212 15.4669 7.73212 14.8328 8.1232 14.4418L14.4419 8.12312C14.8329 7.73204 15.467 7.73204 15.8581 8.12312Z" fill="white"/>
</svg>
