<svg width="100" height="16" viewBox="0 0 100 16" fill="none" xmlns="http://www.w3.org/2000/svg">
<path d="M82.1158 15.0331L77.5142 0.96698H80.89L84.8888 13.4255H83.2009L87.3805 0.96698H90.3947L94.4135 13.4255H92.7859L96.8852 0.96698H99.9998L95.3982 15.0331H91.9017L88.345 4.10171H89.2694L85.6122 15.0331H82.1158Z" fill="#36DBBF"/>
<path d="M62.5129 15.0331L68.7824 0.96698H71.9975L78.287 15.0331H74.871L69.7268 2.61472H71.0129L65.8486 15.0331H62.5129ZM65.6477 12.0189L66.5117 9.54729H73.7457L74.6299 12.0189H65.6477Z" fill="#36DBBF"/>
<path d="M50.7878 15.0331V0.96698H56.8764C58.1357 0.96698 59.2208 1.17462 60.1317 1.58991C61.0427 1.99179 61.746 2.57453 62.2416 3.33812C62.7373 4.10171 62.9851 5.01265 62.9851 6.07096C62.9851 7.11586 62.7373 8.02011 62.2416 8.7837C61.746 9.54728 61.0427 10.1367 60.1317 10.552C59.2208 10.9539 58.1357 11.1548 56.8764 11.1548H52.5963L54.0431 9.68795V15.0331H50.7878ZM54.0431 10.0496L52.5963 8.50238H56.6956C57.7003 8.50238 58.4505 8.28804 58.9462 7.85936C59.4418 7.43068 59.6897 6.83454 59.6897 6.07096C59.6897 5.29397 59.4418 4.69114 58.9462 4.26246C58.4505 3.83378 57.7003 3.61944 56.6956 3.61944H52.5963L54.0431 2.07217V10.0496Z" fill="#36DBBF"/>
<path d="M31.3279 15.0331L26.7263 0.96698H30.1022L34.101 13.4255H32.413L36.5927 0.96698H39.6068L43.6257 13.4255H41.9981L46.0973 0.96698H49.2119L44.6103 15.0331H41.1139L37.5572 4.10171H38.4815L34.8244 15.0331H31.3279Z" fill="#36DBBF"/>
<path d="M11.7249 15.0331L17.9943 0.96698H21.2094L27.4989 15.0331H24.0829L18.9387 2.61472H20.2248L15.0605 15.0331H11.7249ZM14.8596 12.0189L15.7236 9.54729H22.9576L23.8418 12.0189H14.8596Z" fill="#36DBBF"/>
<path d="M-0.000244141 15.0331V0.96698H6.08836C7.3476 0.96698 8.4327 1.17462 9.34365 1.58991C10.2546 1.99179 10.9579 2.57453 11.4536 3.33812C11.9492 4.10171 12.1971 5.01265 12.1971 6.07096C12.1971 7.11586 11.9492 8.02011 11.4536 8.7837C10.9579 9.54728 10.2546 10.1367 9.34365 10.552C8.4327 10.9539 7.3476 11.1548 6.08836 11.1548H1.80825L3.25505 9.68795V15.0331H-0.000244141ZM3.25505 10.0496L1.80825 8.50238H5.90751C6.91223 8.50238 7.66242 8.28804 8.15808 7.85936C8.65374 7.43068 8.90157 6.83454 8.90157 6.07096C8.90157 5.29397 8.65374 4.69114 8.15808 4.26246C7.66242 3.83378 6.91223 3.61944 5.90751 3.61944H1.80825L3.25505 2.07217V10.0496Z" fill="#36DBBF"/>
</svg>
