<svg width="116" height="20" viewBox="0 0 116 20" fill="none" xmlns="http://www.w3.org/2000/svg">
  <path
    d="M13.6548 12.8361C14.0085 11.3053 14.8376 10.1791 16.0643 9.50418C16.1194 9.31459 16.169 9.12076 16.21 8.92127C16.2567 8.68924 16.2935 8.45014 16.3189 8.20679C16.3444 7.96202 16.3585 7.7116 16.3614 7.45551C16.3642 7.19943 16.3543 6.93769 16.3331 6.67029C16.3218 6.5373 16.309 6.40147 16.2921 6.26565C16.2751 6.13407 16.2567 6.00532 16.2355 5.87799C16.2284 5.83554 16.2199 5.79593 16.2128 5.7549C16.1973 5.67001 16.1817 5.58512 16.1647 5.50306C16.1548 5.45496 16.1421 5.40685 16.1322 5.35875C16.1152 5.28518 16.0982 5.21019 16.0798 5.13803C16.0671 5.08852 16.0529 5.039 16.0388 4.98948C16.0204 4.92015 16.0006 4.85224 15.9794 4.78433C15.9638 4.73481 15.9482 4.68529 15.9327 4.63577C15.9115 4.57069 15.8902 4.50561 15.8662 4.44053C15.8492 4.39242 15.8308 4.34432 15.8124 4.29622C15.7884 4.23396 15.7643 4.17171 15.7389 4.10946C15.719 4.06277 15.7007 4.01608 15.6808 3.96939C15.654 3.90855 15.6271 3.84913 15.6002 3.78829C15.579 3.74302 15.5592 3.69916 15.5379 3.6553C15.5097 3.59588 15.4785 3.53787 15.4488 3.47986C15.4262 3.43742 15.405 3.39497 15.3823 3.35394C15.3498 3.29452 15.3158 3.23651 15.2819 3.17992C15.2592 3.14172 15.238 3.10352 15.2154 3.06532C15.1772 3.00448 15.139 2.94364 15.0994 2.88422C15.0781 2.85168 15.0583 2.81914 15.0371 2.78801C14.9862 2.71444 14.9352 2.64229 14.8829 2.57154C14.8716 2.55598 14.8602 2.539 14.8489 2.52344C14.7838 2.43714 14.7174 2.35366 14.6494 2.2716C14.631 2.24896 14.6112 2.22774 14.5928 2.20652C14.5419 2.1471 14.4924 2.08909 14.44 2.0325C14.4132 2.0042 14.3863 1.9759 14.3594 1.94761C14.3141 1.8995 14.2674 1.8514 14.2207 1.80612C14.191 1.77641 14.1599 1.74812 14.1288 1.71841C14.0835 1.67596 14.0382 1.63352 13.993 1.59249C13.9604 1.56278 13.9265 1.53448 13.8939 1.50618C13.8486 1.46798 13.8034 1.42837 13.7567 1.39158C13.7227 1.36329 13.6874 1.3364 13.652 1.30952C13.6053 1.27415 13.5586 1.23737 13.5105 1.20341C13.4751 1.17794 13.4383 1.15106 13.4016 1.12559C13.3535 1.09164 13.3039 1.0591 13.2558 1.02656C13.2191 1.00251 13.1823 0.978454 13.1455 0.955817C13.096 0.92469 13.045 0.893563 12.9941 0.863852C12.9573 0.842629 12.9205 0.819993 12.8823 0.798771C12.83 0.76906 12.7762 0.740763 12.7224 0.712467C12.6857 0.692659 12.6489 0.674265 12.6121 0.655872C12.5541 0.627576 12.4961 0.600694 12.4381 0.573812C12.4041 0.558249 12.3702 0.541273 12.3362 0.527125C12.2683 0.497414 12.199 0.469117 12.1296 0.442235C12.1042 0.432331 12.0787 0.421012 12.0532 0.411109C11.9584 0.374323 11.8622 0.340367 11.766 0.309241C11.7476 0.303582 11.7292 0.297923 11.7123 0.292264C11.633 0.266797 11.5538 0.242745 11.4746 0.221523C11.4392 0.211619 11.4038 0.204544 11.3699 0.194641C11.3062 0.177663 11.2425 0.1621 11.1775 0.147951C11.1378 0.139462 11.0968 0.130974 11.0558 0.122485C10.9964 0.109752 10.9355 0.0984335 10.8747 0.0871149C10.8322 0.0800408 10.7898 0.0729667 10.7459 0.0673074C10.6865 0.0588185 10.6285 0.0489136 10.5691 0.0418395C10.5252 0.0361802 10.48 0.0319356 10.4361 0.0262764C10.3781 0.0206171 10.3187 0.0149585 10.2592 0.00929916C10.214 0.00646951 10.1687 0.00222539 10.1234 0.000810564C10.064 -0.00201908 10.006 -0.00484916 9.94656 -0.00626399C9.90129 -0.00626399 9.85602 -0.00909424 9.80933 -0.00909424C9.76264 -0.00909424 9.71453 -0.00909424 9.66643 -0.00909424C9.57447 -0.00909424 9.48109 -0.00485011 9.38771 -0.000605642C9.34809 0.000809182 9.30989 0.00222521 9.27028 0.00505486C9.14153 0.0135438 9.01137 0.0248616 8.8812 0.0418395C8.77651 0.0545729 8.67322 0.0701356 8.57136 0.0856987C8.36904 0.11824 8.17521 0.15644 7.98845 0.200299C7.89507 0.222936 7.80452 0.246988 7.71539 0.27104C7.44799 0.347441 7.19898 0.436575 6.96695 0.541272C6.6571 0.679925 6.37979 0.844044 6.13078 1.03363C6.06853 1.08032 6.0077 1.12984 5.94969 1.18077C5.71624 1.38309 5.51109 1.61088 5.33565 1.86555C5.33565 1.86555 5.33565 1.86413 5.33565 1.86272C5.33141 1.82593 5.32434 1.79056 5.31726 1.75519C5.31443 1.74246 5.31019 1.73114 5.30736 1.71982C5.3017 1.69718 5.29462 1.67313 5.28755 1.65049C5.28331 1.63635 5.27765 1.62361 5.27199 1.61088C5.26491 1.59107 5.25642 1.57126 5.24794 1.55146C5.24228 1.53731 5.2352 1.52458 5.22813 1.51043C5.21964 1.49203 5.20974 1.47364 5.19983 1.45666C5.19276 1.44393 5.18427 1.42978 5.17578 1.41705C5.16587 1.40007 5.15456 1.38309 5.14324 1.36753C5.13475 1.3548 5.12485 1.34206 5.11636 1.33074C5.10504 1.31518 5.0923 1.29962 5.07957 1.28405C5.06967 1.27274 5.05976 1.26142 5.04986 1.2501C5.03713 1.23595 5.02298 1.2218 5.00883 1.20765C4.99751 1.19775 4.98761 1.18643 4.97629 1.17653C4.96214 1.1638 4.94658 1.14965 4.93102 1.13833C4.9197 1.12842 4.90838 1.11994 4.89564 1.11003C4.88008 1.0973 4.8631 1.08598 4.84613 1.07466C4.83481 1.06617 4.82207 1.05768 4.80934 1.05061C4.79095 1.03929 4.77255 1.02939 4.75416 1.01948C4.74284 1.01241 4.73011 1.00533 4.71879 0.999676C4.69757 0.989772 4.67635 0.979869 4.65512 0.97138C4.64522 0.967135 4.6339 0.961475 4.624 0.957231C4.59287 0.945912 4.56175 0.934594 4.5292 0.92469C4.52779 0.92469 4.52637 0.924689 4.52496 0.923274C4.491 0.91337 4.45705 0.906296 4.42168 0.899222C4.41036 0.897807 4.39904 0.896393 4.38772 0.894978C4.36367 0.890734 4.33962 0.887905 4.31557 0.885075C4.30142 0.885075 4.28727 0.885074 4.27312 0.883659C4.2519 0.883659 4.23068 0.882245 4.20946 0.882245C4.16701 0.882245 4.12457 0.885074 4.08071 0.890734L0.985071 1.27557C0.869056 1.28971 0.760114 1.32084 0.659662 1.36753C0.324348 1.51891 0.0824133 1.82876 0.0173314 2.19096C-0.00247616 2.2999 -0.00530546 2.41308 0.00884278 2.5291L2.01365 18.6482C2.01789 18.685 2.02497 18.7218 2.03346 18.7571C2.03628 18.7684 2.03911 18.7798 2.04336 18.7911C2.04902 18.8151 2.05609 18.8392 2.06317 18.8618C2.06741 18.8746 2.07307 18.8887 2.07732 18.9014C2.08439 18.9212 2.09288 18.9425 2.10137 18.9623C2.10703 18.9764 2.1141 18.9892 2.12117 19.0019C2.12966 19.0203 2.13957 19.0387 2.14947 19.0571C2.15654 19.0698 2.16503 19.0825 2.17211 19.0953C2.18201 19.1122 2.19333 19.1292 2.20465 19.1462C2.21314 19.1589 2.22163 19.1703 2.23153 19.183C2.24285 19.1986 2.25558 19.2141 2.26832 19.2297C2.27822 19.241 2.28812 19.2523 2.29803 19.2636C2.31076 19.2778 2.32491 19.2919 2.33906 19.3061C2.35038 19.316 2.36028 19.3273 2.3716 19.3372C2.38575 19.3499 2.40131 19.3641 2.41687 19.3754C2.42819 19.3853 2.43951 19.3938 2.45083 19.4037C2.46639 19.4164 2.48337 19.4278 2.50035 19.4391C2.51167 19.4476 2.5244 19.456 2.53572 19.4631C2.55411 19.4744 2.5725 19.4843 2.5909 19.4942C2.60221 19.5013 2.61495 19.5084 2.62627 19.5141C2.64749 19.524 2.66871 19.5339 2.68993 19.5424C2.69984 19.5466 2.71116 19.5523 2.72106 19.5565C2.75219 19.5678 2.78331 19.5791 2.81585 19.589C2.81727 19.589 2.81868 19.589 2.8201 19.5905C2.85405 19.6004 2.88801 19.6074 2.92338 19.6145C2.9347 19.6159 2.94602 19.6173 2.95733 19.6188C2.98139 19.623 3.00544 19.6258 3.02949 19.6287C3.04364 19.6287 3.05779 19.6287 3.07194 19.6301C3.09316 19.6301 3.11438 19.6315 3.1356 19.6315C3.17805 19.6315 3.22191 19.6287 3.26435 19.623L6.63163 19.2042C6.93865 19.166 7.20181 19.0061 7.37866 18.7798C7.44516 18.6949 7.49892 18.6001 7.53853 18.4996C7.55127 18.4657 7.564 18.4317 7.5739 18.3963C7.61352 18.2563 7.62625 18.1049 7.60786 17.9521L7.32207 15.6488L7.03627 13.3454C7.1155 13.4048 7.19756 13.46 7.28104 13.5138C7.29943 13.5265 7.31924 13.5378 7.33905 13.5492C7.42252 13.6001 7.50741 13.6482 7.59371 13.6921C7.60503 13.6977 7.61635 13.7034 7.62767 13.709C7.70831 13.7487 7.78896 13.784 7.87243 13.818C7.89224 13.8265 7.91205 13.835 7.93186 13.842C8.02382 13.8774 8.1172 13.9099 8.21199 13.9397C8.23038 13.9453 8.25019 13.951 8.26858 13.9552C8.35489 13.9807 8.44261 14.0019 8.53174 14.0217C8.55013 14.026 8.56711 14.0302 8.58551 14.0344C8.68596 14.0557 8.78924 14.0726 8.89394 14.0882C8.91799 14.091 8.94204 14.0939 8.96609 14.0981C9.06513 14.1108 9.167 14.1207 9.26887 14.1278C9.28018 14.1278 9.29009 14.1292 9.30141 14.1307C9.41318 14.1377 9.52636 14.1406 9.64238 14.142C9.66785 14.142 9.69331 14.142 9.71878 14.142C9.84894 14.142 9.98194 14.1377 10.1178 14.1292C10.1376 14.1292 10.1588 14.1264 10.1786 14.125C10.3229 14.1151 10.4686 14.1009 10.6186 14.0826C10.729 14.0684 10.8393 14.0528 10.9483 14.0344C11.1393 14.0019 11.326 13.9595 11.5114 13.9114C11.5609 13.8986 11.6118 13.8845 11.6613 13.8703C11.8184 13.8251 11.974 13.7755 12.1268 13.7189C12.2541 13.6723 12.3801 13.6241 12.5032 13.5704C12.6475 13.5081 12.7875 13.4374 12.9262 13.3652C13.1695 13.2379 13.403 13.0964 13.6265 12.9394C13.6336 12.904 13.6407 12.8672 13.6492 12.8318L13.6548 12.8361ZM9.59144 9.6202C9.46553 9.69235 9.33253 9.75177 9.19105 9.79705C9.04957 9.84232 8.90101 9.87486 8.74679 9.89467C8.67747 9.90316 8.60956 9.9074 8.54306 9.91023C8.52608 9.91023 8.5091 9.91023 8.49213 9.91165C8.47515 9.91165 8.45958 9.91306 8.44261 9.91306C8.41431 9.91306 8.38601 9.91024 8.3563 9.90882C8.32659 9.90882 8.29546 9.90741 8.26575 9.90458C8.22331 9.90175 8.18087 9.89609 8.13842 9.88901C8.11154 9.88477 8.08324 9.88194 8.05636 9.87769C8.00967 9.86921 7.9644 9.85789 7.91912 9.84657C7.89648 9.84091 7.87385 9.83666 7.85263 9.83101C7.78613 9.81261 7.71963 9.78998 7.65596 9.76451C7.65172 9.76309 7.64748 9.76026 7.64465 9.75885C7.58522 9.7348 7.5258 9.7065 7.46921 9.67679C7.44799 9.66547 7.42818 9.65274 7.40696 9.64C7.36734 9.61737 7.32773 9.59473 7.28953 9.56785C7.26689 9.55228 7.24425 9.53389 7.22161 9.51691C7.18766 9.49145 7.1537 9.46598 7.12116 9.4391C7.09852 9.41929 7.07589 9.39807 7.05325 9.37685C7.02212 9.34855 6.99241 9.32025 6.9627 9.28913C6.94006 9.26649 6.91884 9.24102 6.89762 9.21697C6.86932 9.18585 6.84244 9.1533 6.81556 9.11793C6.79434 9.09105 6.77453 9.06417 6.75472 9.03587C6.72926 9.0005 6.7052 8.96372 6.68115 8.92552C6.66276 8.89581 6.64437 8.86609 6.62597 8.83497C6.60334 8.79535 6.5807 8.75432 6.55948 8.71188C6.5425 8.67934 6.52694 8.6468 6.51137 8.61426C6.49015 8.56898 6.47176 8.52229 6.45336 8.4756C6.43922 8.44165 6.42507 8.40769 6.41234 8.37232C6.39394 8.32139 6.37697 8.26762 6.3614 8.21386C6.35008 8.17849 6.33876 8.14454 6.32886 8.10917C6.31188 8.04833 6.29773 7.98325 6.28359 7.91958C6.27651 7.88845 6.26802 7.85732 6.26236 7.82478C6.24256 7.72575 6.22699 7.6253 6.21284 7.51918C6.06287 6.31092 6.41799 5.44364 7.0575 4.96826C7.23152 4.83951 7.42676 4.73906 7.63899 4.66973C7.78047 4.62304 7.92903 4.5905 8.08324 4.57069C8.15257 4.5622 8.22048 4.55796 8.28698 4.55513C8.30254 4.55513 8.3181 4.55513 8.33508 4.55371C8.35064 4.55371 8.36479 4.5523 8.38036 4.5523C8.41148 4.5523 8.44119 4.55513 8.47232 4.55654C8.50203 4.55654 8.53174 4.55796 8.56145 4.56079C8.60531 4.56503 8.64917 4.57069 8.69303 4.57635C8.71991 4.58059 8.74679 4.58342 8.77226 4.58767C8.82178 4.59616 8.8713 4.60889 8.9194 4.62162C8.9378 4.62587 8.9576 4.63011 8.976 4.63577C9.04249 4.65558 9.10899 4.67822 9.17266 4.7051C9.18539 4.71076 9.19812 4.71783 9.21227 4.72349C9.2632 4.74613 9.31272 4.76877 9.36224 4.79565C9.38488 4.80838 9.4061 4.82253 9.42733 4.83526C9.46552 4.8579 9.50373 4.88054 9.54193 4.906C9.56598 4.92298 9.58862 4.94137 9.61125 4.95835C9.64521 4.98382 9.67916 5.00928 9.7117 5.03758C9.73576 5.05739 9.75698 5.08003 9.77962 5.10125C9.81074 5.12954 9.84045 5.15926 9.87017 5.19038C9.8928 5.21443 9.91402 5.23849 9.93525 5.26395C9.96354 5.29649 9.99042 5.32903 10.0173 5.36441C10.0385 5.39129 10.0583 5.41817 10.0781 5.44647C10.1036 5.48325 10.1277 5.52004 10.1517 5.55824C10.1701 5.58795 10.1885 5.61766 10.2069 5.64879C10.2295 5.68982 10.2522 5.73084 10.2734 5.77329C10.2904 5.80583 10.3059 5.83837 10.3215 5.87233C10.3427 5.9176 10.3611 5.96429 10.3795 6.01239C10.3936 6.04635 10.4078 6.08031 10.4205 6.11709C10.4389 6.16803 10.4559 6.22179 10.4715 6.27697C10.4828 6.31234 10.4941 6.34629 10.504 6.38308C10.521 6.44533 10.5351 6.509 10.5493 6.57408C10.5564 6.60521 10.5648 6.63633 10.5705 6.66887C10.5903 6.76791 10.6059 6.86978 10.62 6.97589C10.7841 8.29451 10.3441 9.19292 9.59144 9.62444V9.6202Z"
    fill="#36DBBF" />
  <path
    d="M26.5609 5.96431C25.7898 5.57524 24.8928 5.26398 23.8742 5.02912C23.7482 4.9994 23.6209 4.97252 23.4922 4.94706C23.4511 4.93857 23.4087 4.93149 23.3677 4.92442C23.2799 4.90744 23.1922 4.89188 23.1031 4.87632C23.0521 4.86783 23.0012 4.86075 22.9503 4.85226C22.8696 4.83953 22.789 4.8268 22.7069 4.81548C22.6518 4.8084 22.5966 4.80133 22.5414 4.79426C22.4636 4.78435 22.3843 4.77445 22.3065 4.76596C22.2485 4.7603 22.1905 4.75464 22.1325 4.74898C22.0561 4.74191 21.9797 4.73483 21.9019 4.72776C21.8425 4.72351 21.783 4.71927 21.7236 4.71503C21.6472 4.70937 21.5722 4.70512 21.4958 4.70088C21.435 4.69805 21.3756 4.69522 21.3147 4.6938C21.2398 4.69097 21.1662 4.68814 21.0912 4.68673C21.0304 4.68673 20.9681 4.68531 20.9073 4.6839C20.8365 4.6839 20.7658 4.6839 20.695 4.6839C20.6186 4.6839 20.5422 4.68531 20.4658 4.68814C20.4008 4.68956 20.3371 4.69097 20.272 4.6938C20.1956 4.69663 20.1178 4.70088 20.0414 4.70512C19.9791 4.70937 19.9155 4.7122 19.8532 4.71644C19.7768 4.7221 19.7004 4.72917 19.624 4.73625C19.5632 4.74191 19.5024 4.74757 19.4415 4.75323C19.3651 4.76172 19.2887 4.77162 19.2123 4.78152C19.1543 4.7886 19.0949 4.79567 19.0383 4.80416C18.9619 4.81548 18.8855 4.82821 18.8105 4.84094C18.7553 4.85085 18.7001 4.85934 18.645 4.86924C18.5672 4.88339 18.4908 4.90037 18.4129 4.91735C18.3634 4.92866 18.3125 4.93857 18.263 4.94989C18.1795 4.96969 18.0974 4.99092 18.0168 5.01355C17.9772 5.02487 17.9347 5.03336 17.8951 5.04468C17.7749 5.07864 17.6574 5.11542 17.5428 5.15504L18.1922 8.01439C18.2007 8.04977 18.2092 8.08372 18.2205 8.11626C18.2234 8.12758 18.229 8.13749 18.2318 8.14739C18.2403 8.17003 18.2488 8.19125 18.2573 8.21388C18.263 8.22662 18.2686 8.23794 18.2743 8.24925C18.2828 8.26906 18.2927 8.28746 18.3026 8.30585C18.3097 8.31858 18.3167 8.3299 18.3238 8.34122C18.3337 8.3582 18.345 8.37659 18.3563 8.39357C18.3634 8.40489 18.3719 8.4162 18.3804 8.42752C18.3931 8.4445 18.4059 8.46006 18.4186 8.47563C18.4271 8.48553 18.4356 8.49544 18.4441 8.50534C18.4582 8.5209 18.4738 8.53646 18.4879 8.55203C18.4964 8.56052 18.5049 8.56901 18.5134 8.57749C18.5318 8.59589 18.5516 8.61145 18.5714 8.62843C18.5771 8.63267 18.5827 8.63833 18.5884 8.64258C18.6138 8.6638 18.6407 8.68219 18.669 8.70058C18.6761 8.70483 18.6832 8.70907 18.6888 8.71332C18.7101 8.72605 18.7313 8.7402 18.7539 8.75152C18.7638 8.75718 18.7751 8.76284 18.7865 8.76708C18.8063 8.77698 18.8247 8.78547 18.8445 8.79396C18.8572 8.79962 18.8685 8.80387 18.8812 8.80811C18.8996 8.81519 18.9194 8.82226 18.9378 8.82933C18.9506 8.83358 18.9633 8.83782 18.9775 8.84065C18.9973 8.84631 19.0157 8.85056 19.0355 8.85621C19.0482 8.85904 19.0623 8.86187 19.0751 8.8647C19.0949 8.86895 19.1161 8.87178 19.1373 8.87461C19.1501 8.87602 19.1628 8.87885 19.1769 8.88027C19.1996 8.8831 19.2236 8.8831 19.2463 8.88451C19.2576 8.88451 19.2689 8.88451 19.2788 8.88592C19.3029 8.88592 19.3255 8.88593 19.3496 8.8831C19.3623 8.8831 19.3736 8.8831 19.3863 8.88168C19.4217 8.87885 19.4585 8.87319 19.4939 8.86753C19.5943 8.84914 19.6962 8.83358 19.7981 8.81943C19.832 8.81519 19.8645 8.81236 19.8985 8.80811C19.9678 8.79962 20.0386 8.79255 20.1079 8.78547C20.1489 8.78264 20.1885 8.77981 20.2296 8.77699C20.2932 8.77274 20.3583 8.7685 20.4234 8.76708C20.4673 8.76567 20.5097 8.76425 20.5536 8.76425C20.5904 8.76425 20.6271 8.76142 20.6639 8.76142C20.6851 8.76142 20.7064 8.76284 20.7276 8.76284C20.7969 8.76284 20.8648 8.76567 20.9327 8.7685C20.9808 8.76991 21.0289 8.77274 21.0785 8.77557C21.1492 8.77981 21.22 8.78689 21.2907 8.79255C21.336 8.79679 21.3812 8.79962 21.4265 8.80528C21.5043 8.81377 21.5807 8.82509 21.6557 8.83782C21.6925 8.84348 21.7307 8.84773 21.7675 8.8548C21.8807 8.87461 21.991 8.89583 22.1 8.9213C22.3914 8.98921 22.6518 9.06844 22.881 9.1604C23.0338 9.22124 23.1738 9.28915 23.2997 9.36131C23.3634 9.39809 23.4228 9.43488 23.4794 9.47449C24.0454 9.86498 24.2859 10.3927 24.2448 11.0548L22.0321 10.5441C21.9019 10.5144 21.7746 10.4861 21.6486 10.4606C21.5963 10.4493 21.5454 10.4408 21.493 10.4309C21.4209 10.4168 21.3473 10.4012 21.2751 10.3885C21.22 10.3786 21.1648 10.3701 21.1096 10.3602C21.0445 10.3489 20.978 10.3375 20.9129 10.3262C20.8535 10.3163 20.7969 10.3092 20.7389 10.3007C20.6795 10.2923 20.6201 10.2838 20.5621 10.2753C20.504 10.2682 20.4489 10.2625 20.3909 10.2555C20.3343 10.2484 20.2763 10.2413 20.2211 10.2357C20.1673 10.23 20.115 10.2272 20.0626 10.2215C20.006 10.2173 19.948 10.2116 19.8928 10.2074C19.8419 10.2045 19.7924 10.2017 19.7429 10.1989C19.6863 10.1961 19.6297 10.1918 19.5745 10.1904C19.5264 10.189 19.4783 10.189 19.4302 10.1876C19.375 10.1876 19.3198 10.1847 19.2661 10.1847C19.2548 10.1847 19.2449 10.1847 19.2335 10.1847C19.1104 10.1847 18.9902 10.189 18.8713 10.1946C18.8402 10.1961 18.8077 10.1975 18.7765 10.2003C18.652 10.2088 18.529 10.2187 18.4101 10.2328C18.4016 10.2328 18.3945 10.2357 18.3875 10.2357C18.2757 10.2498 18.1668 10.2668 18.0592 10.2866C18.0309 10.2923 18.0041 10.2965 17.9772 10.3022C17.8654 10.3248 17.7565 10.3489 17.6503 10.3772C17.6447 10.3772 17.6404 10.38 17.6348 10.3814C17.5343 10.4083 17.4367 10.4394 17.3405 10.4734C17.3164 10.4818 17.2924 10.4903 17.2698 10.4988C17.1721 10.5356 17.0745 10.5724 16.9826 10.6148C16.9797 10.6148 16.9769 10.6177 16.9741 10.6191C16.8849 10.6601 16.7986 10.7054 16.7151 10.7521C16.6953 10.7634 16.6741 10.7747 16.6543 10.786C16.5694 10.8356 16.4874 10.8879 16.4081 10.9445C16.4067 10.9445 16.4053 10.9473 16.4039 10.9473C16.3275 11.0025 16.2539 11.0605 16.1832 11.1213C16.1662 11.1355 16.1492 11.1511 16.1322 11.1652C16.0615 11.2289 15.9922 11.294 15.9271 11.3633C15.9271 11.3633 15.9271 11.3647 15.9257 11.3661C15.862 11.434 15.8012 11.5062 15.7432 11.5812C15.729 11.5996 15.7149 11.6165 15.7007 11.6349C15.6427 11.7113 15.5875 11.7906 15.5366 11.8726C15.5366 11.8726 15.5366 11.874 15.5366 11.8754C15.4857 11.9575 15.439 12.0424 15.3937 12.1287C15.3824 12.1499 15.3711 12.1711 15.3612 12.1938C15.3173 12.2829 15.2749 12.3735 15.2367 12.4683C15.2367 12.4683 15.2367 12.4697 15.2367 12.4711C15.1985 12.5645 15.1659 12.6621 15.1334 12.7625C15.1249 12.788 15.1178 12.8135 15.1093 12.8389C15.0782 12.9408 15.0499 13.0427 15.0258 13.1502C14.982 13.3398 14.9523 13.5294 14.9325 13.7175C14.8646 14.3797 14.9494 15.0263 15.1942 15.6233C15.2381 15.7294 15.2876 15.8341 15.3414 15.9374C15.3852 16.0209 15.4291 16.1029 15.48 16.1822C15.538 16.277 15.6031 16.3689 15.671 16.4609C15.7092 16.5118 15.7474 16.5613 15.7884 16.6109C15.8606 16.6986 15.9342 16.7835 16.0148 16.8669C16.0728 16.9264 16.1337 16.9858 16.1959 17.0438C16.302 17.1414 16.4138 17.2362 16.5326 17.3268C16.5963 17.3749 16.6614 17.4216 16.7279 17.4682C16.8368 17.5432 16.9528 17.6154 17.0731 17.6833C17.1254 17.713 17.1792 17.7441 17.233 17.7724C17.4353 17.8814 17.6489 17.9818 17.8781 18.0738C18.2234 18.211 18.5983 18.3285 19.0057 18.4233C19.1274 18.4516 19.2477 18.4756 19.3651 18.4968C19.4047 18.5039 19.4429 18.5096 19.4825 18.5152C19.5604 18.528 19.6382 18.5407 19.7146 18.5506C19.7599 18.5562 19.8037 18.5605 19.849 18.5647C19.9169 18.5718 19.9848 18.5789 20.0513 18.5845C20.098 18.5874 20.1433 18.5888 20.19 18.5916C20.2522 18.5944 20.3159 18.5973 20.3767 18.5973C20.4531 18.5973 20.5281 18.5973 20.6017 18.5944C20.613 18.5944 20.6243 18.5944 20.6342 18.5944C20.7219 18.5902 20.8097 18.5831 20.8945 18.5746C20.9186 18.5718 20.9412 18.569 20.9653 18.5661C21.0304 18.5577 21.094 18.5492 21.1563 18.5379C21.1803 18.5336 21.203 18.5294 21.2256 18.5251C21.3077 18.5096 21.3869 18.4926 21.4661 18.4714C21.4746 18.4699 21.4817 18.4671 21.4888 18.4643C21.5595 18.4445 21.6302 18.4233 21.6982 18.4006C21.7208 18.3935 21.7434 18.3851 21.7661 18.3766C21.8241 18.3553 21.8807 18.3327 21.9373 18.3087C21.9557 18.3002 21.9741 18.2931 21.9924 18.2846C22.0646 18.2521 22.1339 18.2181 22.2033 18.1799C22.2174 18.1714 22.233 18.1629 22.2471 18.1544C22.3023 18.1233 22.3561 18.0908 22.4084 18.0568C22.4282 18.0441 22.448 18.0313 22.4678 18.0172C22.5216 17.9804 22.5754 17.9422 22.6277 17.9012C22.639 17.8927 22.6503 17.8842 22.6617 17.8757C22.7239 17.8262 22.7833 17.7738 22.8428 17.7201C22.8583 17.7059 22.8739 17.6904 22.8894 17.6748C22.9347 17.6324 22.9786 17.5871 23.0224 17.5418C23.0394 17.5248 23.055 17.5064 23.072 17.4895C23.1271 17.4286 23.1823 17.365 23.2347 17.2985L23.0833 17.9549C23.0479 18.1063 23.0465 18.2563 23.0705 18.4006C23.0946 18.5449 23.1484 18.6808 23.2248 18.8024C23.263 18.8633 23.3068 18.9213 23.3563 18.9736C23.386 19.0047 23.4172 19.0345 23.4511 19.0628C23.4907 19.0967 23.5346 19.1278 23.5799 19.1561C23.6053 19.1717 23.6322 19.1873 23.6591 19.2014C23.7412 19.2439 23.8303 19.2792 23.9251 19.3004L26.8425 19.9739C26.8835 19.9838 26.9231 19.9895 26.9627 19.9951C26.9755 19.9965 26.9896 19.9965 27.0023 19.9979C27.0292 20.0008 27.0561 20.0022 27.083 20.0022C27.107 20.0022 27.1297 20.0022 27.1537 20.0008C27.1636 20.0008 27.1749 20.0008 27.1848 20.0008C27.2188 19.998 27.2528 19.9937 27.2867 19.988C27.2924 19.988 27.2966 19.9852 27.3023 19.9852C27.3306 19.9796 27.3589 19.9739 27.3858 19.9668C27.3971 19.964 27.4084 19.9598 27.4197 19.9569C27.4409 19.9498 27.4622 19.9442 27.482 19.9357C27.4947 19.9315 27.506 19.9258 27.5187 19.9216C27.5386 19.9131 27.5569 19.906 27.5753 19.8961C27.5881 19.8904 27.5994 19.8848 27.6107 19.8777C27.6291 19.8678 27.6475 19.8579 27.6659 19.8466C27.6772 19.8395 27.6885 19.8338 27.6984 19.8268C27.7182 19.814 27.7366 19.8013 27.755 19.7871C27.7635 19.7815 27.772 19.7744 27.7805 19.7687C27.8074 19.7475 27.8328 19.7263 27.8569 19.7037C27.8597 19.7008 27.8611 19.698 27.864 19.6966C27.8852 19.6754 27.9064 19.6541 27.9276 19.6315C27.9347 19.623 27.9418 19.6145 27.9503 19.6046C27.9644 19.5877 27.9786 19.5707 27.9927 19.5523C28.0012 19.5424 28.0083 19.5311 28.0153 19.5197C28.0281 19.5028 28.0394 19.4844 28.0507 19.466C28.0578 19.4547 28.0649 19.4433 28.0719 19.4306C28.0818 19.4122 28.0917 19.3924 28.1017 19.3726C28.1073 19.3613 28.113 19.3485 28.1186 19.3372C28.1285 19.316 28.137 19.2934 28.1455 19.2707C28.1498 19.2594 28.154 19.2495 28.1568 19.2382C28.1681 19.2042 28.1781 19.1703 28.1865 19.1349L29.5844 13.0809C29.5999 13.0158 29.6113 12.9521 29.6254 12.8885L26.6529 6.22889C26.6133 6.14117 26.5807 6.05062 26.551 5.96007L26.5609 5.96431ZM23.4497 14.6372C23.4214 14.6825 23.3931 14.7263 23.3634 14.7688C23.3535 14.7815 23.3436 14.7942 23.3351 14.8084C23.3139 14.8367 23.2927 14.865 23.27 14.8919C23.2587 14.9046 23.2474 14.9187 23.2375 14.9315C23.2149 14.9583 23.1908 14.9838 23.1682 15.0093C23.1583 15.0192 23.1484 15.0305 23.1385 15.0404C23.1045 15.0744 23.0705 15.1069 23.0352 15.1366C23.0323 15.1394 23.0281 15.1423 23.0253 15.1451C22.9941 15.172 22.9616 15.1975 22.9291 15.2215C22.9177 15.23 22.905 15.2385 22.8937 15.247C22.8682 15.2654 22.8428 15.2823 22.8159 15.2979C22.8031 15.3064 22.7904 15.3135 22.7777 15.322C22.7494 15.3389 22.7225 15.3531 22.6942 15.3686C22.6829 15.3743 22.673 15.38 22.6617 15.3856C22.6235 15.404 22.5838 15.4224 22.5442 15.438C22.5372 15.4408 22.5315 15.4422 22.5244 15.445C22.4905 15.4578 22.4579 15.4691 22.424 15.4804C22.4112 15.4847 22.3971 15.4875 22.3843 15.4917C22.3561 15.5002 22.3278 15.5073 22.2995 15.513C22.2853 15.5158 22.2712 15.52 22.257 15.5229C22.2259 15.5285 22.1948 15.5342 22.1636 15.5384C22.1523 15.5398 22.1424 15.5427 22.1311 15.5427C22.0887 15.5483 22.0476 15.5526 22.0052 15.554C21.9953 15.554 21.9868 15.554 21.9769 15.554C21.9514 15.554 21.9259 15.5568 21.9005 15.5568C21.8962 15.5568 21.8906 15.5568 21.8863 15.5568C21.8198 15.5568 21.7519 15.5526 21.6854 15.5455C21.6713 15.5441 21.6585 15.5427 21.6444 15.5398C21.5751 15.5314 21.5057 15.52 21.4364 15.5031C21.2299 15.455 21.0516 15.3842 20.9016 15.2937C20.7149 15.1805 20.5734 15.039 20.4786 14.8791C20.4404 14.8155 20.4107 14.749 20.3894 14.6796C20.3343 14.507 20.3272 14.3203 20.3711 14.1307C20.3852 14.0698 20.4036 14.0147 20.4234 13.9595C20.4291 13.9453 20.4333 13.9326 20.439 13.9185C20.4602 13.8675 20.4828 13.818 20.5097 13.7727C20.5097 13.7727 20.5111 13.7699 20.5125 13.7685C20.5408 13.7232 20.572 13.6808 20.6059 13.6411C20.6144 13.6312 20.6229 13.6213 20.6328 13.6114C20.6668 13.5761 20.7021 13.5421 20.7432 13.5124C20.746 13.511 20.7474 13.5082 20.7502 13.5067C20.7927 13.4756 20.8394 13.4487 20.8875 13.4247C20.9002 13.419 20.9129 13.4134 20.9257 13.4063C20.9724 13.3851 21.0219 13.3667 21.0756 13.3511C21.0799 13.3511 21.0841 13.3483 21.0884 13.3469C21.145 13.3313 21.2072 13.32 21.2709 13.3115C21.2864 13.3087 21.3034 13.3073 21.3204 13.3058C21.3812 13.2988 21.4449 13.2959 21.5114 13.2945C21.5171 13.2945 21.5213 13.2945 21.527 13.2945C21.5284 13.2945 21.5312 13.2945 21.5326 13.2945C21.5652 13.2945 21.5991 13.2973 21.6317 13.2988C21.6571 13.2988 21.6812 13.2988 21.7066 13.3016C21.742 13.3044 21.7802 13.3087 21.8184 13.3129C21.8439 13.3157 21.8679 13.3172 21.8948 13.3214C21.9373 13.3271 21.9811 13.3341 22.0264 13.3426C22.0505 13.3469 22.0717 13.3497 22.0957 13.3539C22.1636 13.3667 22.233 13.3808 22.3051 13.3978C22.3065 13.3978 22.3079 13.3978 22.3094 13.3978L23.6704 13.7119L23.4568 14.6358L23.4497 14.6372Z"
    fill="#36DBBF" />
  <path
    d="M50.2407 8.63409L50.4543 7.7951L49.8219 2.70739C49.8035 2.5645 49.8021 2.42443 49.8077 2.28436L47.7817 2.45839C47.5115 2.48102 47.2681 2.6027 47.0856 2.78521C47.0418 2.82907 47.0021 2.87576 46.9654 2.92669C46.9173 2.99319 46.8748 3.06393 46.8423 3.14175C46.8196 3.19551 46.8012 3.2521 46.7871 3.31152L45.975 6.65334L45.1629 9.99515L42.4959 3.68928C42.4733 3.63552 42.4464 3.58317 42.4153 3.53507C42.4054 3.51809 42.3927 3.50394 42.3813 3.48838C42.3601 3.45725 42.3375 3.42613 42.3134 3.39641C42.2993 3.37944 42.2823 3.36387 42.2667 3.34831C42.2427 3.32426 42.22 3.29879 42.1932 3.27757C42.1748 3.262 42.1564 3.24927 42.1366 3.23371C42.1111 3.2139 42.0842 3.19409 42.0573 3.17712C42.0361 3.16438 42.0149 3.15306 41.9937 3.14175C41.9654 3.12618 41.9385 3.11203 41.9088 3.0993C41.8861 3.0894 41.8621 3.08091 41.8395 3.07242C41.8097 3.0611 41.78 3.0512 41.7503 3.04412C41.7263 3.03705 41.7008 3.0328 41.6767 3.02715C41.6456 3.02149 41.6145 3.01583 41.5834 3.013C41.5579 3.01017 41.5324 3.00875 41.507 3.00734C41.4603 3.00592 41.4136 3.00451 41.3655 3.00734L38.2062 3.27898C38.0859 3.28889 37.9713 3.3186 37.8652 3.36387C37.6516 3.45442 37.4705 3.60864 37.3488 3.8053C37.3078 3.87038 37.2767 3.94253 37.2498 4.01611C37.2356 4.05289 37.2215 4.08968 37.213 4.12929L35.5859 10.7422L34.2687 7.62532L32.9515 4.50847C32.9289 4.4547 32.902 4.40235 32.8709 4.35425C32.861 4.33869 32.8482 4.32454 32.8383 4.30898C32.8171 4.27785 32.7945 4.24531 32.7704 4.21701C32.7563 4.20003 32.7393 4.18447 32.7237 4.16891C32.6997 4.14485 32.6771 4.11939 32.6502 4.09817C32.6318 4.0826 32.6134 4.06987 32.5936 4.05431C32.5681 4.0345 32.5412 4.01469 32.5144 3.99771C32.4931 3.98498 32.4719 3.97366 32.4507 3.96234C32.4224 3.94678 32.3941 3.93263 32.3658 3.9199C32.3432 3.90999 32.3191 3.90151 32.2965 3.89302C32.2668 3.8817 32.237 3.87179 32.2073 3.86472C32.1833 3.85765 32.1578 3.8534 32.1338 3.84774C32.1026 3.84208 32.0715 3.83642 32.0404 3.83359C32.0149 3.83076 31.9895 3.82935 31.964 3.82793C31.9173 3.82652 31.8706 3.8251 31.8225 3.82793L28.8882 4.07977C28.5769 4.10666 28.3166 4.25521 28.1341 4.46743C28.1015 4.50422 28.0718 4.54384 28.0449 4.58487C28.0124 4.6358 27.9813 4.68815 27.9572 4.74332C27.9402 4.78294 27.9247 4.82397 27.9119 4.865C27.8907 4.93291 27.878 5.00365 27.8695 5.07581C27.8624 5.13523 27.8596 5.19466 27.8624 5.25549C27.8695 5.3899 27.9006 5.52431 27.96 5.6573L32.8808 16.6802C32.9048 16.7325 32.9317 16.7835 32.9629 16.8302C32.9728 16.8457 32.9855 16.8599 32.9968 16.8754C33.018 16.9052 33.0407 16.9363 33.0647 16.9646C33.0789 16.9816 33.0958 16.9957 33.1114 17.0113C33.1355 17.0353 33.1581 17.0594 33.1836 17.0806C33.202 17.0962 33.2204 17.1089 33.2402 17.123C33.2656 17.1414 33.2911 17.1612 33.318 17.1782C33.3378 17.1909 33.3604 17.2023 33.3816 17.2136C33.4085 17.2277 33.4368 17.2419 33.4651 17.2546C33.4878 17.2645 33.5104 17.273 33.5344 17.2801C33.5642 17.29 33.5924 17.2999 33.6222 17.3084C33.6462 17.314 33.6703 17.3197 33.6957 17.3239C33.7254 17.3296 33.7566 17.3338 33.7877 17.3381C33.8132 17.3409 33.8386 17.3423 33.8641 17.3437C33.9108 17.3452 33.9561 17.3466 34.0042 17.3437L37.8765 17.0113C37.9968 17.0014 38.1114 16.9716 38.2175 16.9264C38.3236 16.8811 38.4227 16.8203 38.5104 16.7453C38.6844 16.5967 38.8131 16.3944 38.8712 16.161L40.2775 10.4691L42.5624 15.8341C42.5851 15.8879 42.6134 15.9388 42.6431 15.9883C42.653 16.0053 42.6657 16.0195 42.677 16.035C42.6983 16.0662 42.7209 16.0973 42.7449 16.1256C42.7591 16.1426 42.7761 16.1581 42.7916 16.1737C42.8157 16.1977 42.8383 16.2218 42.8638 16.2444C42.8822 16.26 42.902 16.2741 42.9204 16.2883C42.9458 16.3081 42.9713 16.3265 42.9996 16.3449C43.0208 16.3576 43.0421 16.3689 43.0633 16.3802C43.0916 16.3958 43.1185 16.41 43.1482 16.4227C43.1708 16.4326 43.1949 16.4411 43.2175 16.4496C43.2472 16.4595 43.2769 16.4694 43.3066 16.4779C43.3307 16.4849 43.3561 16.4892 43.3802 16.4949C43.4113 16.5005 43.4425 16.5062 43.4736 16.509C43.499 16.5118 43.5245 16.5132 43.5514 16.5147C43.5981 16.5161 43.6448 16.5175 43.6915 16.5147L47.5553 16.1836C47.7591 16.1666 47.9472 16.0916 48.1057 15.9784C48.226 15.8936 48.3307 15.7874 48.4099 15.6615C48.441 15.6134 48.4679 15.5611 48.4905 15.5073C48.5132 15.4535 48.533 15.3984 48.5471 15.3404L50.2492 8.63975L50.2407 8.63409Z"
    fill="#36DBBF" />
  <path
    d="M64.8475 12.9436C64.8546 12.9082 64.8616 12.8729 64.8701 12.8361C65.2238 11.3067 66.0515 10.179 67.2782 9.50558C67.5597 8.54209 67.6517 7.45409 67.5045 6.26564C67.5045 6.26281 67.5045 6.25998 67.5045 6.25573C67.489 6.1284 67.4706 6.00248 67.4494 5.87798C67.4423 5.83412 67.4338 5.79309 67.4253 5.75064C67.4097 5.66717 67.3956 5.58369 67.3772 5.50305C67.3673 5.45353 67.3546 5.40543 67.3432 5.35591C67.3263 5.28234 67.3093 5.21018 67.2909 5.13802C67.2782 5.08709 67.264 5.03757 67.2499 4.98805C67.2315 4.92014 67.2117 4.85223 67.1919 4.78432C67.1763 4.7348 67.1607 4.68528 67.1437 4.63576C67.1225 4.57068 67.1013 4.5056 67.0787 4.44193C67.0617 4.39241 67.0433 4.34431 67.0249 4.29621C67.0009 4.23395 66.9768 4.1717 66.9527 4.11086C66.9329 4.06417 66.9145 4.01748 66.8947 3.9708C66.8693 3.90996 66.841 3.85053 66.8141 3.79111C66.7929 3.74584 66.7731 3.70056 66.7504 3.6567C66.7221 3.59728 66.691 3.53927 66.6613 3.48127C66.6387 3.43882 66.6174 3.39638 66.5948 3.35535C66.5623 3.29592 66.5283 3.23792 66.4943 3.18132C66.4717 3.14312 66.4505 3.10492 66.4278 3.06672C66.3896 3.00589 66.3514 2.94505 66.3118 2.88563C66.2906 2.85308 66.2708 2.82054 66.2496 2.78942C66.2001 2.71585 66.1477 2.64369 66.0954 2.57295C66.084 2.55739 66.0727 2.54041 66.0614 2.52485C65.9963 2.43854 65.9298 2.35507 65.8619 2.27301C65.8435 2.25037 65.8237 2.22915 65.8053 2.20792C65.7544 2.1485 65.7049 2.09049 65.6525 2.0339C65.6256 2.0056 65.5988 1.97731 65.5719 1.94901C65.5266 1.90091 65.4799 1.8528 65.4332 1.80753C65.4035 1.77782 65.3724 1.74952 65.3413 1.71981C65.296 1.67737 65.2507 1.63492 65.2054 1.59389C65.1729 1.56418 65.1389 1.53588 65.1064 1.50759C65.0611 1.46939 65.0159 1.42977 64.9692 1.39299C64.9352 1.36469 64.8998 1.33781 64.8645 1.31093C64.8178 1.27556 64.7711 1.23877 64.723 1.20481C64.6876 1.17935 64.6508 1.15247 64.614 1.127C64.5659 1.09304 64.5178 1.0605 64.4683 1.02796C64.4315 1.00391 64.3947 0.979858 64.358 0.95722C64.3084 0.926094 64.2575 0.894969 64.2066 0.865258C64.1698 0.844035 64.133 0.821397 64.0948 0.800175C64.0425 0.770464 63.9887 0.742167 63.9349 0.713871C63.8981 0.694063 63.8614 0.675671 63.8246 0.657278C63.7666 0.628982 63.7086 0.6021 63.6505 0.575218C63.6166 0.559655 63.5826 0.542677 63.5487 0.528529C63.4808 0.498818 63.4114 0.471935 63.3435 0.443639C63.3181 0.433735 63.2926 0.422416 63.2671 0.412512C63.1723 0.375727 63.0761 0.341771 62.9799 0.310645C62.9615 0.304986 62.9431 0.299327 62.9247 0.293668C62.8455 0.268201 62.7677 0.244149 62.687 0.222927C62.6517 0.213023 62.6163 0.205948 62.5809 0.196045C62.5173 0.180481 62.4536 0.163503 62.3899 0.149355C62.3503 0.140866 62.3093 0.132378 62.2683 0.123889C62.2088 0.111156 62.148 0.0998373 62.0872 0.0885187C62.0447 0.0814446 62.0009 0.0743706 61.9584 0.0687113C61.899 0.0602223 61.841 0.0503174 61.7816 0.0432433C61.7377 0.037584 61.6924 0.0333395 61.6486 0.0276802C61.5906 0.0220209 61.5311 0.0163623 61.4717 0.010703C61.4264 0.00787332 61.3812 0.0036292 61.3359 0.00221437C61.2765 -0.000615275 61.2185 -0.00344535 61.159 -0.00486018C61.1138 -0.00486018 61.0685 -0.00769043 61.0218 -0.00769043C60.9751 -0.00769043 60.927 -0.00769043 60.8789 -0.00769043C60.7869 -0.00769043 60.6936 -0.00344414 60.6002 0.000800326C60.5606 0.00221515 60.5224 0.00362902 60.4828 0.00645867C60.354 0.0149476 60.2238 0.0262654 60.0937 0.0432433C59.989 0.0559767 59.8857 0.0715416 59.7838 0.0871047C59.4811 0.135209 59.1953 0.19746 58.9279 0.27386C58.6605 0.350261 58.4115 0.439395 58.1794 0.544092C57.9474 0.648789 57.7323 0.766219 57.5357 0.899212C57.3376 1.03221 57.1579 1.17793 56.9924 1.34064C56.8268 1.50334 56.6797 1.67878 56.5481 1.86837C56.5439 1.83158 56.5368 1.7948 56.5283 1.75943C56.5255 1.74811 56.5213 1.73679 56.5184 1.72405C56.5128 1.7 56.5057 1.67736 56.4986 1.65473C56.4944 1.64058 56.4887 1.62785 56.4845 1.61511C56.4774 1.5953 56.4689 1.57408 56.4604 1.55428C56.4548 1.54013 56.4477 1.52739 56.4406 1.51466C56.4321 1.49627 56.4222 1.47788 56.4123 1.45948C56.4052 1.44675 56.3967 1.43402 56.3897 1.41987C56.3798 1.40289 56.3684 1.38591 56.3571 1.36893C56.3486 1.3562 56.3387 1.34488 56.3302 1.33215C56.3189 1.31658 56.3062 1.30102 56.2935 1.28546C56.2836 1.27414 56.2737 1.26282 56.2638 1.2515C56.251 1.23736 56.2369 1.22321 56.2227 1.20906C56.2114 1.19916 56.2015 1.18784 56.1902 1.17793C56.176 1.1652 56.1605 1.15105 56.1449 1.13973C56.1336 1.12983 56.1223 1.12134 56.1095 1.11144C56.094 1.0987 56.077 1.08738 56.06 1.07607C56.0487 1.06758 56.036 1.05909 56.0232 1.05201C56.0048 1.04069 55.9864 1.03079 55.9681 1.02089C55.9553 1.01381 55.944 1.00674 55.9313 1.00108C55.91 0.991176 55.8888 0.981272 55.8676 0.972784C55.8563 0.968539 55.8464 0.962879 55.8351 0.958634C55.8039 0.947316 55.7728 0.935997 55.7403 0.927508C55.7389 0.927508 55.736 0.927509 55.7346 0.926094C55.7007 0.91619 55.6667 0.909116 55.6313 0.902042C55.62 0.900627 55.6087 0.899213 55.5974 0.897798C55.5733 0.893554 55.5493 0.890723 55.5252 0.887893C55.5111 0.887893 55.4969 0.887894 55.4828 0.886479C55.4615 0.886479 55.4403 0.885065 55.4191 0.885065C55.3767 0.885065 55.3342 0.887894 55.2904 0.893554L52.1947 1.27839C51.6175 1.35054 51.1973 1.84714 51.21 2.4159C51.21 2.4541 51.2142 2.4923 51.2185 2.5305L51.2241 2.57861V2.58144L51.4038 4.02456L51.8835 7.88278L53.2219 18.6496C53.2261 18.6864 53.2332 18.7232 53.2417 18.7585C53.2445 18.7699 53.2473 18.7812 53.2516 18.7925C53.2572 18.8165 53.2643 18.8392 53.2714 18.8632C53.2756 18.876 53.2813 18.8901 53.2855 18.9028C53.2926 18.9227 53.3011 18.9439 53.3096 18.9637C53.3153 18.9778 53.3223 18.9906 53.3294 19.0033C53.3379 19.0217 53.3478 19.0401 53.3577 19.0585C53.3648 19.0712 53.3733 19.0839 53.3803 19.0967C53.3902 19.1137 53.4016 19.1306 53.4129 19.1476C53.4214 19.1603 53.4299 19.1717 53.4398 19.1844C53.4511 19.2 53.4638 19.2155 53.4765 19.2311C53.4865 19.2424 53.4964 19.2537 53.5063 19.265C53.519 19.2792 53.5331 19.2933 53.5473 19.3075C53.5586 19.3174 53.5685 19.3287 53.5798 19.3386C53.594 19.3513 53.6095 19.3641 53.6251 19.3768C53.6364 19.3867 53.6477 19.3952 53.6605 19.4051C53.676 19.4178 53.693 19.4292 53.71 19.4405C53.7213 19.449 53.734 19.4575 53.7454 19.4645C53.7638 19.4758 53.7821 19.4858 53.8005 19.4957C53.8119 19.5027 53.8246 19.5098 53.8359 19.5155C53.8571 19.5254 53.8784 19.5353 53.8996 19.5438C53.9109 19.548 53.9208 19.5537 53.9307 19.5579C53.9618 19.5692 53.993 19.5805 54.0255 19.5905C54.0269 19.5905 54.0283 19.5904 54.0297 19.5919C54.0637 19.6018 54.0977 19.6088 54.133 19.6159C54.1443 19.6173 54.1557 19.6187 54.167 19.6202C54.191 19.6244 54.2151 19.6272 54.2391 19.6301C54.2533 19.6301 54.2674 19.6301 54.2816 19.6315C54.3028 19.6315 54.324 19.6329 54.3452 19.6329C54.3877 19.6329 54.4316 19.6301 54.474 19.6244L57.8413 19.2056C57.8795 19.2014 57.9177 19.1943 57.9545 19.1858C58.028 19.1688 58.0988 19.1448 58.1667 19.1151C58.6025 18.917 58.8798 18.4529 58.8175 17.9535L58.2445 13.3482C58.3237 13.4077 58.4058 13.4628 58.4893 13.5166C58.5091 13.5293 58.5275 13.5407 58.5473 13.552C58.6308 13.6029 58.7156 13.651 58.8019 13.6949C58.8133 13.7005 58.8246 13.7062 58.8359 13.7119C58.9151 13.7515 58.9972 13.7868 59.0807 13.8208C59.1005 13.8293 59.1203 13.8378 59.1401 13.8448C59.2321 13.8802 59.3254 13.9128 59.4202 13.9425C59.4386 13.9481 59.4584 13.9538 59.4768 13.958C59.5631 13.9835 59.6508 14.0047 59.74 14.0245C59.7584 14.0288 59.7753 14.033 59.7937 14.0373C59.8942 14.0585 59.9975 14.0755 60.1022 14.091C60.1262 14.0939 60.1503 14.0967 60.1743 14.1009C60.2734 14.1137 60.3752 14.1236 60.4771 14.1306C60.4884 14.1306 60.4983 14.1321 60.5096 14.1335C60.6214 14.1405 60.7346 14.1434 60.8506 14.1448C60.8761 14.1448 60.9015 14.1448 60.927 14.1448C61.0572 14.1448 61.1902 14.1405 61.326 14.1321C61.3458 14.1321 61.367 14.1292 61.3868 14.1278C61.5311 14.1179 61.6769 14.1038 61.8268 14.0854C61.9598 14.0684 62.09 14.0472 62.2202 14.0245C62.373 13.9962 62.5229 13.9637 62.6729 13.9255C62.7635 13.9029 62.8526 13.8788 62.9417 13.8519C63.0648 13.8151 63.1879 13.7755 63.3082 13.7317C63.4454 13.6821 63.5798 13.6312 63.7128 13.5732C63.8571 13.511 63.9972 13.4402 64.1358 13.3681C64.2787 13.2931 64.4202 13.2138 64.5575 13.1289C64.6466 13.0724 64.7343 13.0143 64.822 12.9549C64.8277 12.9507 64.8333 12.9464 64.839 12.9422L64.8475 12.9436ZM59.9593 9.89466C59.8899 9.90315 59.822 9.90739 59.7555 9.91022C59.7386 9.91022 59.7216 9.91022 59.7046 9.91164C59.6876 9.91164 59.6706 9.91305 59.6551 9.91305C59.6268 9.91305 59.5985 9.91022 59.5688 9.90881C59.5391 9.90881 59.5079 9.9074 59.4782 9.90457C59.4358 9.90174 59.3933 9.89608 59.3509 9.889C59.324 9.88476 59.2957 9.88193 59.2688 9.87768C59.2221 9.86919 59.1769 9.85788 59.1316 9.84656C59.109 9.8409 59.0863 9.83665 59.0651 9.83099C58.9986 9.8126 58.9321 9.78996 58.8684 9.7645C58.8642 9.76308 58.86 9.76025 58.8571 9.75884C58.7977 9.73479 58.7383 9.70649 58.6817 9.67678C58.6605 9.66546 58.6407 9.65273 58.6194 9.63999C58.5798 9.61736 58.5402 9.59472 58.502 9.56784C58.478 9.55227 58.4567 9.53388 58.4341 9.5169C58.4001 9.49144 58.3662 9.46597 58.3336 9.43909C58.311 9.41928 58.2884 9.39806 58.2657 9.37683C58.2346 9.34854 58.2049 9.32024 58.1752 9.28912C58.1525 9.26648 58.1313 9.24101 58.1101 9.21696C58.0818 9.18584 58.0549 9.15329 58.0295 9.11934C58.0082 9.09246 57.9884 9.06557 57.9686 9.03728C57.9431 9.00191 57.9191 8.96512 57.895 8.92692C57.8766 8.89721 57.8583 8.8675 57.8399 8.83637C57.8172 8.79676 57.796 8.75573 57.7748 8.71328C57.7578 8.68074 57.7422 8.6482 57.7267 8.61425C57.7069 8.56897 57.6871 8.5237 57.6687 8.47559C57.6545 8.44164 57.6404 8.40768 57.6276 8.3709C57.6092 8.31996 57.5937 8.2662 57.5767 8.21385C57.5654 8.17848 57.5541 8.14452 57.5442 8.10774C57.5272 8.0469 57.513 7.98323 57.4989 7.91815C57.4918 7.88561 57.4833 7.8559 57.4777 7.82336C57.4579 7.72432 57.4423 7.62387 57.4282 7.51776C57.4013 7.29846 57.3899 7.08907 57.3956 6.89241C57.3999 6.69574 57.4211 6.5104 57.455 6.33638C57.506 6.07605 57.5894 5.84261 57.6998 5.63746C57.8087 5.43514 57.9431 5.2597 58.1002 5.11256C58.1016 5.11114 58.1044 5.10831 58.1059 5.1069C58.1596 5.05738 58.2148 5.01069 58.2728 4.96825C58.3888 4.88194 58.5147 4.80837 58.6477 4.74895C58.7397 4.70792 58.8373 4.67538 58.9364 4.64708C59.0538 4.61312 59.174 4.58624 59.2985 4.57068C59.3679 4.56219 59.4358 4.55795 59.5023 4.55512C59.5178 4.55512 59.5334 4.55512 59.5504 4.5537C59.566 4.5537 59.5801 4.55229 59.5957 4.55229C59.6268 4.55229 59.6565 4.55512 59.6876 4.55653C59.7173 4.55653 59.747 4.55795 59.7768 4.56078C59.8206 4.56502 59.8645 4.57068 59.9083 4.57634C59.9352 4.58058 59.9621 4.58341 59.9876 4.58766C60.0371 4.59615 60.0866 4.60888 60.1347 4.62161C60.1531 4.62586 60.1729 4.6301 60.1913 4.63576C60.2578 4.65557 60.3243 4.67821 60.388 4.70509C60.4007 4.71075 60.4134 4.71782 60.4262 4.72348C60.4771 4.74612 60.528 4.76876 60.5761 4.79564C60.5988 4.80696 60.62 4.82252 60.6412 4.83525C60.6794 4.85789 60.719 4.88053 60.7558 4.90741C60.7799 4.92297 60.8025 4.94136 60.8251 4.95976C60.8591 4.98522 60.8931 5.01069 60.9256 5.03899C60.9482 5.05879 60.9709 5.08002 60.9935 5.10124C61.0246 5.12953 61.0543 5.15925 61.0841 5.19037C61.1067 5.21442 61.1279 5.23848 61.1491 5.26253C61.1774 5.29507 61.2043 5.32761 61.2312 5.36298C61.2524 5.38986 61.2722 5.41674 61.292 5.44504C61.3175 5.48183 61.3416 5.51861 61.3656 5.55681C61.384 5.58652 61.4024 5.61623 61.4208 5.64736C61.4434 5.68839 61.4661 5.72942 61.4873 5.77187C61.5043 5.80441 61.5198 5.83695 61.5354 5.86949C61.5566 5.91476 61.575 5.96287 61.5948 6.00956C61.609 6.04351 61.6231 6.07747 61.6358 6.11284C61.6542 6.16377 61.6712 6.21895 61.6868 6.27271C61.6981 6.30808 61.7094 6.34204 61.7193 6.37741C61.7363 6.43966 61.7504 6.50333 61.7646 6.56841C61.7717 6.59954 61.7801 6.63066 61.7858 6.6632C61.8056 6.76224 61.8212 6.86411 61.8353 6.97022C61.8622 7.18952 61.8735 7.3975 61.8679 7.59416C61.8339 8.96795 61.0444 9.75884 59.9607 9.89325L59.9593 9.89466Z"
    fill="#36DBBF" />
  <path
    d="M80.8505 12.8941L77.8765 6.23313C77.8369 6.14541 77.8029 6.05486 77.7746 5.96431C77.7619 5.95724 77.7492 5.95017 77.7364 5.94451C77.6275 5.89074 77.5157 5.83698 77.4025 5.78605C76.7192 5.47903 75.9467 5.22719 75.0893 5.03053C74.9747 5.00365 74.8601 4.9796 74.7441 4.95554C74.7073 4.94847 74.6691 4.9414 74.6309 4.93432C74.5517 4.91876 74.4724 4.90461 74.3918 4.89046C74.3465 4.88198 74.3012 4.8749 74.256 4.86783C74.181 4.85509 74.106 4.84377 74.031 4.83246C73.9843 4.82538 73.9376 4.81831 73.8909 4.81265C73.8145 4.80274 73.7381 4.79284 73.6603 4.78294C73.615 4.77728 73.5698 4.77162 73.5245 4.76737C73.4382 4.75747 73.3505 4.74898 73.2628 4.74191C73.2274 4.73908 73.1934 4.73483 73.1581 4.732C73.0364 4.7221 72.9147 4.71361 72.793 4.70654C72.7662 4.70512 72.7393 4.70371 72.7124 4.70229C72.6162 4.69805 72.5214 4.69239 72.4252 4.68956C72.3813 4.68956 72.3389 4.68814 72.295 4.68673C72.2158 4.68531 72.1366 4.6839 72.0573 4.6839C72.0191 4.6839 71.9795 4.6839 71.9413 4.6839C71.78 4.6839 71.6187 4.68673 71.4589 4.6938C71.4475 4.6938 71.4362 4.6938 71.4249 4.69522C71.2721 4.70229 71.1207 4.7122 70.9693 4.72351C70.941 4.72634 70.9127 4.72776 70.883 4.73059C70.7302 4.74474 70.5788 4.7603 70.4289 4.78011C70.3992 4.78435 70.3694 4.7886 70.3383 4.79284C70.1841 4.81406 70.0313 4.83811 69.8827 4.865C69.8431 4.87207 69.8049 4.88197 69.7681 4.89188C69.6932 4.91452 69.6238 4.94281 69.5573 4.9796C69.4583 5.03336 69.3692 5.10127 69.2913 5.1805C69.2404 5.23285 69.1937 5.29086 69.1541 5.3517C69.1145 5.41253 69.0805 5.47903 69.0522 5.54694C69.0254 5.61485 69.0041 5.68701 68.99 5.76058C68.9758 5.83415 68.9702 5.90914 68.9716 5.98554C68.9716 6.06194 68.9815 6.13975 68.9999 6.21615L69.4088 8.01439C69.4173 8.04977 69.4258 8.08372 69.4371 8.11626C69.4399 8.12758 69.4456 8.13748 69.4484 8.1488C69.4569 8.17144 69.464 8.19266 69.4739 8.21388C69.4795 8.22662 69.4852 8.23794 69.4908 8.24925C69.4993 8.26906 69.5092 8.28746 69.5191 8.30585C69.5262 8.31858 69.5333 8.3299 69.5404 8.34122C69.5503 8.3582 69.5616 8.37659 69.5729 8.39357C69.58 8.40489 69.5885 8.4162 69.597 8.42752C69.6097 8.4445 69.6224 8.46006 69.6351 8.47563C69.6436 8.48553 69.6521 8.49544 69.6606 8.50534C69.6748 8.5209 69.6903 8.53646 69.7045 8.55203C69.713 8.56052 69.7215 8.56901 69.7299 8.57749C69.7483 8.59447 69.7681 8.61145 69.7879 8.62843C69.7936 8.63267 69.7993 8.63833 69.8049 8.64399C69.8304 8.66521 69.8573 8.68361 69.8856 8.702C69.8926 8.70624 69.8997 8.71049 69.9068 8.71473C69.928 8.72747 69.9492 8.74161 69.9719 8.75293C69.9818 8.75859 69.9931 8.76425 70.0044 8.7685C70.0228 8.7784 70.0426 8.78689 70.0624 8.79538C70.0752 8.80104 70.0865 8.80528 70.0992 8.80953C70.1176 8.8166 70.1374 8.82367 70.1558 8.83075C70.1685 8.83499 70.1813 8.83924 70.1954 8.84348C70.2152 8.84914 70.2336 8.85339 70.2534 8.85905C70.2662 8.86187 70.2803 8.8647 70.293 8.86753C70.3128 8.87178 70.3341 8.87461 70.3553 8.87744C70.368 8.87885 70.3808 8.88168 70.3949 8.8831C70.4176 8.88593 70.4416 8.88593 70.4642 8.88734C70.4756 8.88734 70.4869 8.88734 70.4982 8.88875C70.5222 8.88875 70.5449 8.88875 70.5689 8.88592C70.5817 8.88592 70.593 8.88593 70.6057 8.88451C70.6411 8.88168 70.6779 8.87602 70.7132 8.87036C70.8137 8.85197 70.9141 8.83641 71.0174 8.82226C71.0514 8.81801 71.0853 8.81518 71.1179 8.81094C71.1872 8.80245 71.258 8.79538 71.3273 8.7883C71.3683 8.78547 71.4079 8.78264 71.449 8.77981C71.5126 8.77557 71.5777 8.77133 71.6414 8.76991C71.6852 8.7685 71.7277 8.76708 71.7715 8.76708C71.8083 8.76708 71.8451 8.76425 71.8819 8.76425C71.9031 8.76425 71.9243 8.76567 71.9456 8.76567C72.0135 8.76567 72.0828 8.76849 72.1507 8.77132C72.1988 8.77274 72.2483 8.77557 72.2964 8.7784C72.3672 8.78264 72.4379 8.78972 72.5087 8.79538C72.5539 8.79962 72.5992 8.80245 72.6445 8.80811C72.7223 8.8166 72.7973 8.82792 72.8737 8.83924C72.9105 8.8449 72.9487 8.84914 72.9855 8.85621C73.0986 8.87602 73.209 8.89724 73.3179 8.92271C73.8046 9.03448 74.2022 9.18162 74.5177 9.36272C74.5814 9.39951 74.6408 9.43629 74.6974 9.47591C75.2633 9.8664 75.5038 10.3941 75.4628 11.0563L74.6323 10.8653L73.25 10.5455C73.2231 10.5399 73.1963 10.5342 73.1694 10.5271C73.0675 10.5045 72.9671 10.4818 72.868 10.4606C72.8114 10.4493 72.7563 10.4394 72.7011 10.4281C72.6332 10.4139 72.5638 10.3998 72.4959 10.3885C72.4337 10.3772 72.3743 10.3672 72.312 10.3573C72.2526 10.3474 72.1932 10.3361 72.1337 10.3276C72.0729 10.3177 72.0135 10.3107 71.954 10.3022C71.8975 10.2937 71.8394 10.2852 71.7829 10.2781C71.7234 10.271 71.6668 10.2654 71.6088 10.2583C71.5536 10.2526 71.4971 10.2442 71.4433 10.2399C71.3867 10.2343 71.3329 10.23 71.2763 10.2258C71.2226 10.2215 71.1674 10.2159 71.1136 10.2116C71.0613 10.2074 71.0089 10.206 70.958 10.2031C70.9042 10.2003 70.8491 10.1961 70.7953 10.1946C70.7458 10.1932 70.6977 10.1932 70.6496 10.1918C70.5958 10.1918 70.5406 10.189 70.4883 10.189C70.477 10.189 70.4671 10.189 70.4557 10.189C70.3327 10.189 70.2124 10.1932 70.0936 10.1989C70.0624 10.2003 70.0299 10.2017 69.9988 10.2045C69.8743 10.213 69.7512 10.2229 69.6323 10.2371C69.6238 10.2371 69.6168 10.2399 69.6083 10.2399C69.4965 10.2541 69.3876 10.271 69.2814 10.2908C69.2531 10.2965 69.2263 10.3007 69.198 10.3064C69.0862 10.329 68.9773 10.3531 68.8711 10.3814C68.8655 10.3814 68.8612 10.3842 68.8556 10.3856C68.7551 10.4125 68.6575 10.4436 68.5627 10.4776C68.5387 10.4861 68.5146 10.4946 68.4906 10.5031C68.3929 10.5384 68.2967 10.5766 68.2033 10.6191C68.2005 10.6191 68.1977 10.6219 68.1949 10.6233C68.1057 10.6644 68.0208 10.7096 67.9374 10.7563C67.9175 10.7676 67.8963 10.779 67.8765 10.7917C67.7916 10.8412 67.7096 10.8936 67.6303 10.9487C67.6289 10.9487 67.6275 10.9516 67.6247 10.953C67.5483 11.0082 67.4747 11.0662 67.404 11.127C67.387 11.1412 67.37 11.1567 67.353 11.1709C67.2823 11.2345 67.213 11.2996 67.1479 11.3689C67.1479 11.3689 67.1465 11.3718 67.1451 11.3718C67.0814 11.4397 67.022 11.5118 66.964 11.5854C66.9498 11.6038 66.9357 11.6222 66.9215 11.6406C66.8635 11.717 66.8083 11.7948 66.7574 11.8769C66.7574 11.8769 66.7574 11.8797 66.756 11.8811C66.705 11.9618 66.6584 12.0466 66.6145 12.1329C66.6032 12.1542 66.5919 12.1768 66.582 12.198C66.5381 12.2872 66.4957 12.3777 66.4589 12.4725V12.4753C66.4221 12.5687 66.3881 12.6663 66.357 12.7654C66.3485 12.7908 66.3414 12.8163 66.333 12.8418C66.3032 12.9422 66.2735 13.0455 66.2495 13.1516C66.2056 13.3412 66.1759 13.5308 66.1561 13.719C66.009 15.1607 66.5876 16.533 67.9529 17.4697C68.0194 17.5163 68.0887 17.5602 68.1595 17.6041C68.5853 17.8672 69.0791 18.0908 69.6422 18.2662C69.8304 18.3242 70.0256 18.3766 70.2294 18.4247C70.351 18.453 70.4699 18.477 70.5873 18.4982C70.6269 18.5053 70.6651 18.511 70.7048 18.5166C70.7826 18.5294 70.8604 18.5421 70.9354 18.552C70.9806 18.5577 71.0245 18.5619 71.0698 18.5661C71.1377 18.5732 71.2056 18.5803 71.2721 18.586C71.3188 18.5888 71.3641 18.5902 71.4093 18.593C71.4716 18.5959 71.5353 18.5987 71.5961 18.5987C71.6725 18.5987 71.7475 18.5987 71.8211 18.5959C71.8324 18.5959 71.8437 18.5959 71.8536 18.5959C71.9413 18.5916 72.029 18.5845 72.1139 18.5761C72.138 18.5732 72.1606 18.5704 72.1847 18.5676C72.2497 18.5591 72.3134 18.5506 72.3757 18.5393C72.3997 18.535 72.4224 18.5308 72.4464 18.5265C72.5285 18.511 72.6091 18.494 72.6869 18.4728C72.694 18.4714 72.7011 18.4685 72.7096 18.4657C72.7803 18.4459 72.851 18.4247 72.9204 18.4006C72.943 18.3935 72.9656 18.3851 72.9883 18.3766C73.0463 18.3553 73.1029 18.3327 73.1595 18.3087C73.1779 18.3002 73.1963 18.2931 73.2147 18.286C73.2868 18.2535 73.3561 18.2195 73.4255 18.1813C73.4396 18.1728 73.4552 18.1643 73.4693 18.1559C73.5245 18.1247 73.5783 18.0922 73.6306 18.0582C73.6504 18.0455 73.6702 18.0328 73.69 18.0186C73.7452 17.9818 73.7976 17.9422 73.8513 17.9026C73.8626 17.8941 73.874 17.8856 73.8839 17.8771C73.9461 17.8276 74.007 17.7753 74.065 17.7215C74.0805 17.7073 74.0961 17.6918 74.1117 17.6776C74.1569 17.6352 74.2008 17.5899 74.2446 17.5446C74.2616 17.5277 74.2772 17.5107 74.2928 17.4923C74.3479 17.4315 74.4031 17.3678 74.4555 17.3013L74.3875 17.5956L74.3041 17.9578C74.2871 18.0328 74.2772 18.1092 74.2758 18.1827C74.2715 18.3313 74.2984 18.477 74.3508 18.6114C74.3635 18.6454 74.3776 18.6779 74.3946 18.7105C74.5389 19.0005 74.8077 19.2255 75.1473 19.3033L78.0647 19.9767C78.1057 19.9866 78.1453 19.9923 78.1849 19.9979C78.1977 19.9994 78.2118 19.9994 78.2245 20.0008C78.2514 20.0036 78.2783 20.005 78.3052 20.005C78.3292 20.005 78.3519 20.005 78.3759 20.0036C78.3858 20.0036 78.3957 20.0036 78.4071 20.0036C78.441 20.0008 78.475 19.9965 78.5089 19.9909C78.5146 19.9909 78.5188 19.988 78.5245 19.988C78.5528 19.9824 78.5811 19.9767 78.6094 19.9697C78.6207 19.9668 78.632 19.9626 78.6433 19.9598C78.6646 19.9527 78.6858 19.947 78.707 19.9385C78.7197 19.9343 78.731 19.9286 78.7438 19.9244C78.7636 19.9159 78.782 19.9074 78.8018 19.8989C78.8145 19.8933 78.8258 19.8876 78.8372 19.8805C78.8556 19.8706 78.874 19.8607 78.8923 19.8494C78.9037 19.8423 78.915 19.8367 78.9249 19.8296C78.9447 19.8169 78.9631 19.8041 78.9815 19.79C78.99 19.7829 78.9999 19.7772 79.0084 19.7716C79.0352 19.7504 79.0607 19.7291 79.0848 19.7065C79.0876 19.7037 79.089 19.7023 79.0918 19.6994C79.1145 19.6782 79.1357 19.657 79.1555 19.6343C79.1626 19.6259 79.1696 19.6174 79.1781 19.6075C79.1923 19.5905 79.2064 19.5735 79.2206 19.5551C79.2291 19.5438 79.2361 19.5339 79.2432 19.5226C79.256 19.5056 79.2673 19.4872 79.2786 19.4688C79.2857 19.4575 79.2927 19.4448 79.2998 19.4334C79.3097 19.415 79.3196 19.3952 79.3295 19.3754C79.3352 19.3627 79.3408 19.3514 79.3465 19.3386C79.3564 19.3174 79.3649 19.2948 79.3734 19.2721C79.3776 19.2608 79.3819 19.2509 79.3861 19.2396C79.3974 19.2057 79.4073 19.1717 79.4158 19.1377L79.9209 16.9518L80.8137 13.0837C80.8292 13.0186 80.8406 12.9564 80.8533 12.8927L80.8505 12.8941ZM74.6649 14.6372C74.6366 14.6839 74.6068 14.7277 74.5771 14.7688C74.5672 14.7815 74.5587 14.7942 74.5488 14.807C74.5276 14.8353 74.5064 14.8636 74.4837 14.8904C74.4724 14.9032 74.4611 14.9173 74.4512 14.9301C74.4286 14.9569 74.4045 14.9824 74.3819 15.0065C74.372 15.0164 74.3621 15.0277 74.3522 15.0376C74.3182 15.0715 74.2843 15.1041 74.2489 15.1338C74.2461 15.1366 74.2418 15.1394 74.239 15.1423C74.2079 15.1692 74.1753 15.1946 74.1428 15.2187C74.1315 15.2272 74.1187 15.2357 74.1074 15.2441C74.0819 15.2625 74.0565 15.2795 74.0296 15.2965C74.0169 15.305 74.0041 15.3121 73.9914 15.3205C73.9631 15.3375 73.9348 15.3517 73.9065 15.3672C73.8966 15.3729 73.8853 15.3786 73.8754 15.3842C73.8372 15.4026 73.7976 15.421 73.7579 15.4366C73.7509 15.4394 73.7452 15.4408 73.7381 15.4436C73.7042 15.4564 73.6702 15.4677 73.6363 15.479C73.6235 15.4832 73.6094 15.4861 73.5967 15.4903C73.5684 15.4988 73.5401 15.5059 73.5118 15.5115C73.4976 15.5144 73.4835 15.5172 73.4693 15.52C73.4382 15.5257 73.4071 15.5314 73.3745 15.5356C73.3646 15.537 73.3533 15.5384 73.3434 15.5398C73.301 15.5455 73.2599 15.5497 73.2175 15.5512C73.209 15.5512 73.1991 15.5512 73.1906 15.5512C73.1651 15.5512 73.1397 15.554 73.1128 15.554C73.1085 15.554 73.1029 15.554 73.0986 15.554C73.0321 15.554 72.9642 15.5497 72.8977 15.5427C72.8836 15.5413 72.8709 15.5398 72.8567 15.537C72.7874 15.5285 72.7181 15.5172 72.6487 15.5002C72.5454 15.4762 72.4492 15.4465 72.3601 15.4111C72.3148 15.3941 72.2724 15.3743 72.2314 15.3545C72.1493 15.3149 72.0743 15.2696 72.0064 15.2201C71.8041 15.0715 71.6668 14.8848 71.6003 14.6768C71.5565 14.5381 71.5423 14.391 71.5621 14.241C71.5664 14.2028 71.5735 14.166 71.5819 14.1278C71.5961 14.067 71.6145 14.0118 71.6343 13.9567C71.64 13.9425 71.6442 13.9298 71.6499 13.917C71.6711 13.8661 71.6937 13.8166 71.7206 13.7713C71.7206 13.7713 71.7206 13.7685 71.7234 13.7671C71.7517 13.7218 71.7829 13.6793 71.8168 13.6397C71.8253 13.6298 71.8338 13.6199 71.8437 13.61C71.8776 13.5747 71.9144 13.5407 71.954 13.5096C71.9569 13.5082 71.9583 13.5053 71.9597 13.5039C72.0022 13.4728 72.0488 13.4459 72.0969 13.4219C72.1097 13.4162 72.1224 13.4105 72.1351 13.4049C72.1818 13.3836 72.2314 13.3653 72.2851 13.3497C72.2894 13.3497 72.2936 13.3469 72.2978 13.3454C72.3544 13.3299 72.4167 13.3186 72.4804 13.3101C72.4959 13.3072 72.5129 13.3058 72.5299 13.3044C72.5907 13.2973 72.653 13.2945 72.7209 13.2931C72.7265 13.2931 72.7308 13.2931 72.7364 13.2931C72.7379 13.2931 72.7407 13.2931 72.7421 13.2931C72.7732 13.2931 72.8072 13.2959 72.8397 13.2959C72.8652 13.2959 72.8892 13.2959 72.9161 13.2988C72.9515 13.3016 72.9897 13.3058 73.0279 13.3101C73.0534 13.3129 73.0774 13.3143 73.1043 13.3186C73.1467 13.3242 73.192 13.3313 73.2359 13.3398C73.2585 13.344 73.2811 13.3469 73.3052 13.3511C73.3745 13.3638 73.4453 13.378 73.5188 13.395L74.8799 13.7091L74.6663 14.6329L74.6649 14.6372Z"
    fill="#36DBBF" />
  <path
    d="M102.749 3.49825C102.751 3.48269 102.751 3.46854 102.752 3.45298C102.755 3.42326 102.758 3.39214 102.758 3.36243C102.758 3.34403 102.756 3.32706 102.755 3.31008C102.755 3.2832 102.753 3.25632 102.751 3.23085C102.749 3.21246 102.745 3.19406 102.742 3.17567C102.738 3.15162 102.734 3.12615 102.728 3.1021C102.724 3.08371 102.718 3.06531 102.712 3.04834C102.705 3.0257 102.7 3.00165 102.691 2.97901C102.684 2.96062 102.677 2.94364 102.67 2.92666C102.661 2.90544 102.651 2.8828 102.642 2.86158C102.633 2.8446 102.623 2.82762 102.615 2.81065C102.603 2.79084 102.592 2.76962 102.579 2.74981C102.569 2.73425 102.558 2.71868 102.547 2.70312C102.533 2.68473 102.52 2.66633 102.506 2.64794C102.493 2.63238 102.48 2.61823 102.468 2.60408C102.452 2.5871 102.436 2.57012 102.421 2.55456C102.407 2.54041 102.393 2.52768 102.378 2.51495C102.361 2.49938 102.344 2.48524 102.326 2.47109C102.311 2.45835 102.295 2.44704 102.279 2.43572C102.261 2.42298 102.241 2.41025 102.221 2.39752C102.204 2.38761 102.187 2.37771 102.17 2.36781C102.151 2.35649 102.129 2.34658 102.108 2.33668C102.09 2.32819 102.071 2.3197 102.053 2.31263C102.032 2.30414 102.009 2.29707 101.988 2.28858C101.968 2.28292 101.95 2.27584 101.93 2.2716C101.907 2.26594 101.883 2.26028 101.861 2.25603C101.841 2.25179 101.821 2.24755 101.8 2.24472C101.776 2.24189 101.752 2.23906 101.728 2.23764C101.706 2.23623 101.687 2.23481 101.665 2.2334C101.626 2.2334 101.585 2.2334 101.544 2.23623L98.9984 2.45411C98.8782 2.46401 98.7636 2.49372 98.656 2.539C98.4424 2.62955 98.2613 2.78518 98.1396 2.98184C98.0788 3.08088 98.0321 3.18982 98.0038 3.30725L96.381 9.99088L94.6026 5.78743L93.7141 3.68501C93.6914 3.63124 93.6645 3.58031 93.6348 3.53221C93.6249 3.51523 93.6122 3.50108 93.6009 3.48552C93.5796 3.45439 93.5584 3.42326 93.533 3.39497C93.5188 3.37799 93.5018 3.36243 93.4863 3.34686C93.4622 3.32281 93.4396 3.29735 93.4141 3.27612C93.3957 3.26056 93.3773 3.24783 93.3575 3.23226C93.3321 3.21246 93.3052 3.19265 93.2783 3.17567C93.2571 3.16294 93.2358 3.15162 93.2146 3.1403C93.1863 3.12474 93.1594 3.11059 93.1297 3.09786C93.1071 3.08795 93.083 3.07946 93.0604 3.07097C93.0307 3.05966 93.001 3.04975 92.9713 3.04268C92.9472 3.0356 92.9218 3.03136 92.8977 3.0257C92.8666 3.02004 92.8354 3.01438 92.8043 3.01155C92.7789 3.00872 92.7534 3.00731 92.7265 3.00589C92.6798 3.00448 92.6331 3.00306 92.585 3.00589L89.4257 3.27754C89.3055 3.28744 89.1909 3.31715 89.0848 3.36243C88.765 3.49825 88.5188 3.77839 88.4325 4.12785L86.8055 10.7407L84.1697 4.50702C84.147 4.45326 84.1201 4.40091 84.089 4.3528C84.0791 4.33724 84.0664 4.32309 84.0565 4.30753C84.0352 4.2764 84.0126 4.24386 83.9886 4.21557C83.9744 4.19859 83.9574 4.18303 83.9419 4.16746C83.9178 4.14341 83.8952 4.11794 83.8683 4.09672C83.8499 4.08116 83.8315 4.06842 83.8117 4.05286C83.7862 4.03305 83.7594 4.01325 83.7325 3.99627C83.7112 3.98353 83.69 3.97222 83.6688 3.9609C83.6405 3.94533 83.6136 3.93119 83.5839 3.91845C83.5613 3.90855 83.5372 3.90006 83.5146 3.89157C83.4849 3.88025 83.4552 3.87035 83.4255 3.86327C83.4014 3.8562 83.3759 3.85196 83.3519 3.8463C83.3208 3.84064 83.2896 3.83498 83.2585 3.83215C83.233 3.82932 83.2076 3.8279 83.1807 3.82649C83.134 3.82507 83.0873 3.82366 83.0392 3.82649L80.1049 4.07833C80.0568 4.08257 80.0101 4.08965 79.9648 4.09955C79.4781 4.20283 79.1385 4.6103 79.0862 5.07436C79.065 5.26395 79.0904 5.46344 79.1753 5.65586L80.2775 8.12472L80.8335 9.37118L82.329 12.7229L84.0947 16.6787C84.1187 16.7311 84.1456 16.782 84.1767 16.8287C84.1866 16.8443 84.1994 16.8584 84.2107 16.874C84.2319 16.9051 84.2545 16.9348 84.2786 16.9631C84.2927 16.9801 84.3097 16.9943 84.3253 17.0098C84.3493 17.0339 84.372 17.0579 84.3974 17.0791C84.4158 17.0947 84.4342 17.1074 84.4526 17.1216C84.4781 17.14 84.5036 17.1598 84.5304 17.1768C84.5502 17.1895 84.5729 17.2008 84.5941 17.2121C84.621 17.2263 84.6493 17.2404 84.6776 17.2532C84.7002 17.2631 84.7228 17.2716 84.7469 17.2786C84.7766 17.2885 84.8049 17.2984 84.8346 17.3069C84.8587 17.3126 84.8827 17.3182 84.9082 17.3225C84.9379 17.3282 84.969 17.3324 85.0002 17.3366C85.0256 17.3395 85.0511 17.3409 85.0766 17.3423C85.1232 17.3437 85.1685 17.3451 85.2166 17.3423L89.089 17.0098C89.2687 16.9943 89.437 16.9362 89.5842 16.8457C89.8289 16.6943 90.0115 16.4524 90.0836 16.1595L91.49 10.4677L93.7749 15.8327C93.7975 15.8864 93.8258 15.9374 93.8555 15.9869C93.8654 16.0025 93.8782 16.018 93.8881 16.0336C93.9093 16.0647 93.9319 16.0958 93.956 16.1241C93.9701 16.1411 93.9871 16.1567 94.0027 16.1722C94.0267 16.1963 94.0494 16.2218 94.0748 16.243C94.0932 16.2585 94.113 16.2727 94.1314 16.2868C94.1569 16.3067 94.1824 16.325 94.2107 16.3434C94.2319 16.3562 94.2531 16.3675 94.2743 16.3788C94.3026 16.3944 94.3295 16.4085 94.3592 16.4213C94.3818 16.4312 94.4059 16.4396 94.4285 16.4481C94.4583 16.458 94.488 16.4679 94.5177 16.4764C94.5417 16.4835 94.5672 16.4877 94.5912 16.4934C94.6224 16.4991 94.6535 16.5047 94.6846 16.5076C94.7101 16.5104 94.7356 16.5118 94.7624 16.5132C94.8091 16.5146 94.8558 16.516 94.9039 16.5132L97.4789 16.2925L98.7664 16.1821C98.8258 16.1765 98.8838 16.1666 98.9404 16.1538C98.997 16.1397 99.0522 16.1213 99.106 16.0987C99.3182 16.0095 99.4979 15.8567 99.6209 15.6615C99.6521 15.6134 99.6789 15.561 99.7016 15.5073C99.7101 15.4875 99.7143 15.4662 99.7228 15.4464C99.0593 13.668 98.9418 11.6689 99.5134 9.71074C100.021 7.96768 101.009 6.49202 102.288 5.3828L102.731 3.64115C102.742 3.59587 102.751 3.54918 102.756 3.50391L102.749 3.49825Z"
    fill="#36DBBF" />
  <path
    d="M110.439 4.85221C109.72 4.64281 108.994 4.54236 108.28 4.54236C104.935 4.54236 101.846 6.73392 100.863 10.1026C99.6718 14.19 102.026 18.4854 106.114 19.6767C108.093 20.254 110.18 20.0262 111.988 19.0344C113.796 18.0426 115.11 16.4057 115.688 14.4263C116.265 12.447 116.037 10.3601 115.045 8.55197C114.054 6.74382 112.417 5.42945 110.437 4.85221H110.439ZM106.706 8.84342C106.926 8.08932 107.567 7.61253 108.135 7.77806C108.704 7.9436 108.987 8.68921 108.768 9.44472C108.548 10.1988 107.908 10.6756 107.339 10.5101C106.77 10.3446 106.487 9.59894 106.706 8.84342ZM103.782 10.2017C103.936 9.43199 104.532 8.90002 105.113 9.01603C105.695 9.13063 106.041 9.84936 105.887 10.619C105.733 11.3887 105.137 11.9207 104.556 11.8046C103.974 11.69 103.628 10.9713 103.782 10.2017ZM110.582 15.3134C110.122 16.8145 109.308 17.0098 108.424 16.7523C107.54 16.4948 107.671 16.0152 107.189 15.8751C106.706 15.735 106.569 16.2118 105.541 15.9119C104.673 15.6586 104.419 14.5437 104.687 13.6199C105.085 12.256 106.716 10.9841 108.489 11.5005C110.308 12.031 110.952 14.0415 110.582 15.3134ZM110.011 11.2882C109.443 11.1227 109.16 10.3771 109.379 9.62158C109.598 8.86748 110.239 8.39068 110.808 8.55621C111.377 8.72175 111.66 9.46736 111.44 10.2229C111.221 10.977 110.58 11.4538 110.011 11.2882ZM113.176 12.9408C112.892 13.6736 112.214 14.0924 111.661 13.8759C111.109 13.6609 110.891 12.8926 111.176 12.1598C111.46 11.4269 112.138 11.0081 112.691 11.2246C113.243 11.4396 113.461 12.2079 113.176 12.9408Z"
    fill="#36DBBF" />
</svg>