<svg width="28" height="28" viewBox="0 0 28 28" fill="none" xmlns="http://www.w3.org/2000/svg">
  <path
    d="M23.2077 6.24421C23.2077 7.11541 22.5014 7.82167 21.6302 7.82167C20.759 7.82167 20.0527 7.11541 20.0527 6.24421C20.0527 5.373 20.759 4.66675 21.6302 4.66675C22.5014 4.66675 23.2077 5.373 23.2077 6.24421Z"
    fill="#8D959A" />
  <path
    d="M23.2077 13.9998C23.2077 14.871 22.5014 15.5773 21.6302 15.5773C20.759 15.5773 20.0527 14.871 20.0527 13.9998C20.0527 13.1286 20.759 12.4224 21.6302 12.4224C22.5014 12.4224 23.2077 13.1286 23.2077 13.9998Z"
    fill="#8D959A" />
  <path
    d="M23.2077 21.7559C23.2077 22.6271 22.5014 23.3334 21.6302 23.3334C20.759 23.3334 20.0527 22.6271 20.0527 21.7559C20.0527 20.8847 20.759 20.1785 21.6302 20.1785C22.5014 20.1785 23.2077 20.8847 23.2077 21.7559Z"
    fill="#8D959A" />
</svg>