<svg width="54" height="15" viewBox="0 0 54 15" fill="none" xmlns="http://www.w3.org/2000/svg">
<path d="M13.125 7.55371H11.0312V14.7725H9.29688V0.678711H11.0312V6.13184H13.125V7.55371ZM2.1875 9.85059C4.32812 9.81413 6.33333 9.60059 8.20312 9.20996L8.39062 10.6787C6.33333 11.085 4.08854 11.2881 1.65625 11.2881H0.46875V2.05371H2.1875V9.85059ZM18.215 1.66309C18.9494 1.65788 19.6108 1.80111 20.1994 2.09277C20.7931 2.37923 21.2567 2.78288 21.59 3.30371C21.9285 3.82454 22.1004 4.41309 22.1056 5.06934C22.1004 5.73079 21.9285 6.32194 21.59 6.84277C21.2567 7.36361 20.7957 7.76986 20.2072 8.06152C19.6186 8.34798 18.9546 8.49121 18.215 8.49121C17.4806 8.49121 16.8192 8.34538 16.2306 8.05371C15.6421 7.76204 15.1785 7.3584 14.84 6.84277C14.5067 6.32194 14.34 5.73079 14.34 5.06934C14.34 4.41309 14.5067 3.82454 14.84 3.30371C15.1785 2.78288 15.6421 2.37923 16.2306 2.09277C16.8244 1.80111 17.4858 1.65788 18.215 1.66309ZM18.215 3.16309C17.8035 3.16309 17.4338 3.24121 17.1056 3.39746C16.7775 3.55371 16.5197 3.77767 16.3322 4.06934C16.1499 4.35579 16.0588 4.68913 16.0588 5.06934C16.0588 5.45475 16.1499 5.79329 16.3322 6.08496C16.5197 6.37142 16.7775 6.59277 17.1056 6.74902C17.4338 6.90007 17.8035 6.97559 18.215 6.97559C18.6317 6.97559 19.0041 6.90007 19.3322 6.74902C19.6655 6.59277 19.9259 6.37142 20.1134 6.08496C20.3061 5.79329 20.4025 5.45475 20.4025 5.06934C20.4025 4.68913 20.3061 4.35579 20.1134 4.06934C19.9259 3.77767 19.6655 3.55371 19.3322 3.39746C19.0041 3.24121 18.6317 3.16309 18.215 3.16309ZM25.4025 14.8193H23.6681V0.678711H25.4025V14.8193ZM13.6994 10.4443C15.4285 10.4443 17.0431 10.4157 18.5431 10.3584C20.0483 10.2959 21.4754 10.1683 22.8244 9.97559L22.965 11.2412C21.5692 11.512 20.1499 11.6839 18.7072 11.7568C17.2697 11.8298 15.6733 11.8662 13.9181 11.8662L13.6994 10.4443ZM32.3675 3.17871C32.3623 3.80371 32.4873 4.40527 32.7425 4.9834C33.0029 5.55632 33.3883 6.06413 33.8988 6.50684C34.4092 6.94954 35.0238 7.28809 35.7425 7.52246L34.8363 8.89746C34.0654 8.63704 33.4014 8.25423 32.8441 7.74902C32.292 7.23861 31.8571 6.63704 31.5394 5.94434C31.2165 6.70996 30.7633 7.37142 30.18 7.92871C29.6019 8.486 28.9092 8.90788 28.1019 9.19434L27.1331 7.81934C27.8883 7.57454 28.5264 7.21777 29.0472 6.74902C29.568 6.27507 29.9586 5.73079 30.2191 5.11621C30.4847 4.49642 30.6175 3.84538 30.6175 3.16309V1.55371H32.3675V3.17871ZM38.4456 4.85059H40.4144V6.31934H38.4456V11.0537H36.7113V0.678711H38.4456V4.85059ZM39.0081 14.5225H29.3988V10.0381H31.18V13.1162H39.0081V14.5225ZM45.3325 3.85059C45.3325 4.361 45.4341 4.85319 45.6372 5.32715C45.8403 5.7959 46.1424 6.21517 46.5434 6.58496C46.9497 6.94954 47.4419 7.23079 48.02 7.42871L47.2388 8.74121C46.6033 8.50684 46.0591 8.18132 45.6059 7.76465C45.158 7.34277 44.8065 6.85059 44.5513 6.28809C44.296 6.90267 43.9393 7.44173 43.4809 7.90527C43.0226 8.36361 42.4679 8.72038 41.8169 8.97559L41.0044 7.69434C41.5825 7.46517 42.0721 7.15267 42.4731 6.75684C42.8742 6.361 43.1763 5.91569 43.3794 5.4209C43.5825 4.9209 43.6867 4.39746 43.6919 3.85059V3.74121H41.3638V2.38184H43.6919V0.834961H45.3325V2.38184H47.6294V3.74121H45.3325V3.85059ZM53.0513 9.33496H51.395V5.72559H50.0356V9.27246H48.395V0.928711H50.0356V4.31934H51.395V0.694336H53.0513V9.33496ZM53.0513 14.8037H51.3169V11.3818H43.3794V9.97559H53.0513V14.8037Z" fill="#1F1F20"/>
</svg>
