<svg width="20" height="21" viewBox="0 0 20 21" fill="none" xmlns="http://www.w3.org/2000/svg">
  <rect y="0.5" width="20" height="20" rx="10" fill="#36DBBF" />
  <path fill-rule="evenodd" clip-rule="evenodd"
    d="M10.8333 6.139C10.8333 5.67876 10.4602 5.30566 10 5.30566C9.53977 5.30566 9.16668 5.67876 9.16668 6.139L9.16668 11.139C9.16668 11.5992 9.53977 11.9723 10 11.9723C10.4602 11.9723 10.8333 11.5992 10.8333 11.139L10.8333 6.139ZM10 15.6951C10.5523 15.6951 11 15.2474 11 14.6951C11 14.1429 10.5523 13.6951 10 13.6951C9.44772 13.6951 9 14.1429 9 14.6951C9 15.2474 9.44772 15.6951 10 15.6951Z"
    fill="white" />
</svg>