<svg width="22" height="23" viewBox="0 0 22 23" fill="none" xmlns="http://www.w3.org/2000/svg">
  <path
    d="M20 11.6125C20 16.5831 15.9706 20.6125 11 20.6125C6.02944 20.6125 2 16.5831 2 11.6125C2 6.64199 6.02944 2.61255 11 2.61255C15.9706 2.61255 20 6.64199 20 11.6125Z"
    fill="#36DBBF" />
  <path fill-rule="evenodd" clip-rule="evenodd"
    d="M22 11.6125C22 17.6877 17.0751 22.6125 11 22.6125C4.92487 22.6125 0 17.6877 0 11.6125C0 5.53742 4.92487 0.612549 11 0.612549C17.0751 0.612549 22 5.53742 22 11.6125ZM11 20.6125C15.9706 20.6125 20 16.5831 20 11.6125C20 6.64199 15.9706 2.61255 11 2.61255C6.02944 2.61255 2 6.64199 2 11.6125C2 16.5831 6.02944 20.6125 11 20.6125Z"
    fill="white" />
  <path
    d="M14.6394 14.3197C14.6144 16.1818 13.7525 16.675 12.659 16.675C11.5655 16.675 11.5569 16.0862 10.9615 16.0862C10.3661 16.0862 10.3681 16.675 9.09604 16.675C8.0249 16.675 7.36328 15.4901 7.36328 14.3483C7.36328 12.662 8.79803 10.672 10.9896 10.672C13.2375 10.672 14.6394 12.7484 14.6394 14.3197Z"
    fill="white" />
  <ellipse cx="9.34949" cy="8.23769" rx="1.27332" ry="1.68752" fill="white" />
  <ellipse cx="12.6522" cy="8.23757" rx="1.27332" ry="1.68752" fill="white" />
  <ellipse cx="1.27341" cy="1.6874" rx="1.27341" ry="1.6874"
    transform="matrix(0.996124 0.0879566 -0.086362 0.996264 14.4141 8.8512)" fill="white" />
  <ellipse cx="1.27341" cy="1.6874" rx="1.27341" ry="1.6874"
    transform="matrix(0.996124 -0.0879566 0.086362 0.996264 5.05078 9.07532)" fill="white" />
</svg>