<svg width="23" height="22" viewBox="0 0 23 22" fill="none" xmlns="http://www.w3.org/2000/svg">
  <path
    d="M17.4287 15.4117C17.3879 18.4463 15.9834 19.2499 14.2014 19.2499C12.4193 19.2499 12.4054 18.2904 11.4351 18.2904C10.4648 18.2904 10.4681 19.2499 8.39504 19.2499C6.64948 19.2499 5.57129 17.3191 5.57129 15.4583C5.57129 12.7103 7.9094 9.46735 11.4809 9.46729C15.1441 9.46726 17.4287 12.8511 17.4287 15.4117Z"
    fill="#1F1F20" />
  <ellipse cx="8.80893" cy="5.50028" rx="2.07504" ry="2.75003" fill="#1F1F20" />
  <ellipse cx="14.191" cy="5.50003" rx="2.07504" ry="2.75003" fill="#1F1F20" />
  <ellipse cx="2.07519" cy="2.74984" rx="2.07519" ry="2.74984"
    transform="matrix(0.996124 0.0879567 -0.086362 0.996264 17.0623 6.5)" fill="#1F1F20" />
  <ellipse cx="2.07519" cy="2.74984" rx="2.07519" ry="2.74984"
    transform="matrix(0.996124 -0.0879567 0.086362 0.996264 1.80347 6.86523)" fill="#1F1F20" />
</svg>