<svg width="14" height="15" viewBox="0 0 14 15" fill="none" xmlns="http://www.w3.org/2000/svg">
<path d="M10.892 9.93789C10.892 11.091 10.2213 12.641 7.6432 11.9887C7.18808 11.8735 6.70689 11.8735 6.25176 11.9887C3.67361 12.641 3.00293 11.091 3.00293 9.93789C3.00293 8.68723 4.7688 6.63428 6.94748 6.63428C9.12617 6.63428 10.892 8.68723 10.892 9.93789Z" fill="white"/>
<path d="M8.51694 4.67239C8.51694 5.50568 7.83769 5.87943 6.9998 5.87943C6.16191 5.87943 5.48267 5.50568 5.48267 4.67239C5.48267 3.83909 6.16191 2.86182 6.9998 2.86182C7.83769 2.86182 8.51694 3.83909 8.51694 4.67239Z" fill="white"/>
<path d="M11.6893 6.46967C11.3795 7.13049 10.7018 7.17708 10.0374 6.86894C9.37291 6.5608 8.97323 6.0146 9.28307 5.35379C9.59292 4.69297 10.495 4.16777 11.1594 4.47591C11.8239 4.78406 11.9992 5.80886 11.6893 6.46967Z" fill="white"/>
<path d="M2.31069 6.46967C2.62054 7.13049 3.29817 7.17708 3.96263 6.86894C4.62709 6.5608 5.02677 6.0146 4.71693 5.35379C4.40708 4.69297 3.50505 4.16777 2.84058 4.47591C2.17612 4.78406 2.00085 5.80886 2.31069 6.46967Z" fill="white"/>
</svg>
