<svg width="20" height="21" viewBox="0 0 20 21" fill="none" xmlns="http://www.w3.org/2000/svg">
  <circle cx="10" cy="10.6125" r="10" fill="white" />
  <path fill-rule="evenodd" clip-rule="evenodd"
    d="M6.63071 5.56192C6.89763 5.295 7.26452 5.14991 7.65067 5.15858C8.03682 5.16724 8.41059 5.32895 8.68977 5.60812L11.2001 8.11844C11.2123 7.91546 11.2473 7.71551 11.3044 7.52231C11.4969 6.89358 11.9292 6.52872 12.5284 6.2882C13.0118 6.09531 13.5248 6.39329 13.683 6.84138L14.9322 10.3787C15.2241 11.2056 15.2835 12.0872 15.1037 12.9247C14.9239 13.7622 14.512 14.5226 13.9141 15.1206L13.6428 15.392C11.9946 17.0401 8.97502 17.1654 7.19397 15.3843L6.42218 14.6125C6.25161 14.4421 6.12317 14.2346 6.04792 14.0079C5.97267 13.7811 5.95286 13.542 5.99019 13.3109C6.02752 13.0799 6.12088 12.864 6.26224 12.6816C6.40359 12.4993 6.58871 12.356 6.80167 12.2642C6.72074 11.9351 6.75483 11.5933 6.89818 11.2965C7.04153 10.9997 7.28533 10.7662 7.58834 10.6354C7.51718 10.3459 7.53486 10.0455 7.63904 9.77404C7.74322 9.50262 7.92897 9.27302 8.17164 9.11572L6.67691 7.62098C6.53867 7.48275 6.42783 7.31984 6.35069 7.14155C6.27356 6.96326 6.23165 6.77308 6.22736 6.58188C6.22307 6.39068 6.25648 6.2022 6.32569 6.02719C6.39489 5.85219 6.49854 5.69409 6.63071 5.56192Z"
    fill="#36DBBF" />
</svg>