<svg width="16" height="16" viewBox="0 0 16 16" fill="none" xmlns="http://www.w3.org/2000/svg">
  <path fill-rule="evenodd" clip-rule="evenodd"
    d="M4.62875 2.94937C4.89567 2.68245 5.26257 2.53736 5.64871 2.54603C6.03486 2.55469 6.40864 2.7164 6.68781 2.99557L9.19813 5.50589C9.21038 5.30291 9.24538 5.10296 9.30247 4.90976C9.49499 4.28103 9.92722 3.91617 10.5265 3.67565C11.0099 3.48276 11.5229 3.78074 11.6811 4.22883L12.9302 7.7662C13.2222 8.59305 13.2816 9.4746 13.1018 10.3121C12.922 11.1496 12.51 11.91 11.9121 12.5081L11.6408 12.7794C9.99267 14.4276 6.97307 14.5528 5.19202 12.7718L4.42023 12C4.24965 11.8296 4.12121 11.622 4.04596 11.3953C3.97071 11.1686 3.9509 10.9294 3.98824 10.6984C4.02557 10.4674 4.11893 10.2514 4.26029 10.0691C4.40164 9.88674 4.58676 9.7435 4.79972 9.65167C4.71879 9.32259 4.75288 8.98073 4.89622 8.68393C5.03957 8.38713 5.28338 8.15362 5.58638 8.0229C5.51522 7.73334 5.53291 7.43292 5.63709 7.16149C5.74127 6.89007 5.92702 6.66047 6.16969 6.50317L4.67495 5.00843C4.53672 4.8702 4.42587 4.70729 4.34874 4.529C4.27161 4.35071 4.2297 4.16054 4.22541 3.96933C4.22112 3.77813 4.25453 3.58965 4.32374 3.41464C4.39294 3.23964 4.49659 3.08154 4.62875 2.94937Z"
    fill="#36DBBF" />
</svg>