<svg width="14" height="15" viewBox="0 0 14 15" fill="none" xmlns="http://www.w3.org/2000/svg">
<path fill-rule="evenodd" clip-rule="evenodd" d="M4.15624 3.32545C4.38146 3.10023 4.69102 2.97781 5.01684 2.98512C5.34265 2.99244 5.65802 3.12888 5.89358 3.36443L8.01165 5.48251C8.02199 5.31124 8.05152 5.14253 8.09969 4.97952C8.26213 4.44903 8.62682 4.14118 9.13244 3.93825C9.54033 3.77549 9.97314 4.02692 10.1066 4.40499L11.1606 7.38964C11.407 8.0873 11.4571 8.83111 11.3053 9.53776C11.1536 10.2444 10.8061 10.886 10.3016 11.3906L10.0727 11.6196C8.68205 13.0102 6.13426 13.1159 4.6315 11.6131L3.9803 10.9619C3.83638 10.8181 3.72801 10.643 3.66452 10.4517C3.60102 10.2604 3.58431 10.0586 3.61581 9.86369C3.64731 9.66876 3.72608 9.48654 3.84535 9.33269C3.96462 9.17885 4.12081 9.05799 4.3005 8.98051C4.23221 8.70285 4.26097 8.4144 4.38192 8.16398C4.50287 7.91355 4.70858 7.71653 4.96424 7.60623C4.9042 7.36192 4.91912 7.10844 5.00702 6.87942C5.09493 6.65041 5.25165 6.45669 5.45641 6.32396L4.19523 5.06278C4.07859 4.94614 3.98506 4.80869 3.91998 4.65826C3.8549 4.50783 3.81954 4.34737 3.81592 4.18604C3.8123 4.02471 3.84049 3.86568 3.89888 3.71802C3.95728 3.57036 4.04473 3.43696 4.15624 3.32545Z" fill="#36DBBF"/>
</svg>
