<svg width="28" height="28" viewBox="0 0 28 28" fill="none" xmlns="http://www.w3.org/2000/svg">
<path fill-rule="evenodd" clip-rule="evenodd" d="M23.6264 7.34019C22.9164 6.11051 21.3474 5.68725 20.1218 6.39482L19.9633 6.48635C19.4803 6.76524 18.8858 6.73232 18.3961 6.4632C17.8854 6.18254 17.5257 5.66668 17.5257 5.08596L17.5257 4.89574C17.5257 3.48061 16.3747 2.33341 14.9547 2.33342L13.0454 2.33342C11.6255 2.33342 10.4744 3.48061 10.4744 4.89575L10.4744 5.33256C10.4744 5.84931 10.1666 6.31177 9.71943 6.57245C9.26606 6.83672 8.70501 6.87212 8.24977 6.60928L7.87831 6.39482C6.65277 5.68725 5.08374 6.11051 4.37378 7.34019L3.41912 8.9937C2.70917 10.2234 3.12713 11.7938 4.35267 12.5014L4.5435 12.6116C5.07726 12.9198 5.36481 13.5144 5.36481 14.1286C5.36481 14.5973 5.1386 15.0454 4.73202 15.2801L4.35267 15.4992C3.12713 16.2067 2.70916 17.7772 3.41912 19.0069L4.37377 20.6604C5.08373 21.8901 6.65277 22.3133 7.87831 21.6057L7.94105 21.5695C8.46322 21.268 9.10884 21.3196 9.62685 21.6301C10.1265 21.9296 10.4744 22.4493 10.4744 23.0299L10.4744 23.1044C10.4744 24.5196 11.6255 25.6667 13.0454 25.6667L14.9547 25.6667C16.3747 25.6667 17.5257 24.5196 17.5257 23.1044C17.5257 22.5638 17.8566 22.0852 18.3333 21.8282C18.4397 21.7708 18.5449 21.7113 18.6486 21.6498C19.1009 21.3813 19.6655 21.3423 20.1218 21.6057C21.3474 22.3133 22.9164 21.8901 23.6264 20.6604L24.581 19.0069C25.291 17.7772 24.873 16.2067 23.6475 15.4992C23.1894 15.2347 22.9392 14.7261 22.9434 14.1989L22.9437 14.1286C22.9437 14.036 22.9422 13.9437 22.9394 13.8518C22.9223 13.306 23.1738 12.7749 23.6475 12.5014C24.873 11.7938 25.291 10.2234 24.581 8.99371L23.6264 7.34019ZM14.1562 17.9747C16.2804 17.9747 18.0024 16.2527 18.0024 14.1285C18.0024 12.0044 16.2804 10.2824 14.1562 10.2824C12.0321 10.2824 10.3101 12.0044 10.3101 14.1285C10.3101 16.2527 12.0321 17.9747 14.1562 17.9747Z" fill="#8D959A"/>
</svg>
