<svg width="24" height="24" viewBox="0 0 24 24" fill="none" xmlns="http://www.w3.org/2000/svg">
<path fill-rule="evenodd" clip-rule="evenodd" d="M19.4859 6.87703C18.8773 5.82301 17.5324 5.46022 16.482 6.06671C16.1342 6.26748 15.7042 6.24316 15.3532 6.04672C15.3228 6.02968 15.2922 6.01287 15.2615 5.99628C14.8879 5.79465 14.6282 5.41935 14.6282 4.99628C14.6282 3.78331 13.6416 2.8 12.4245 2.8L11.3319 2.8C10.1148 2.8 9.12819 3.78331 9.12819 4.99629L9.12819 5.13919C9.12819 5.54228 8.88808 5.90302 8.53925 6.10635C8.18561 6.3125 7.74797 6.34011 7.39287 6.13509L7.27439 6.06669C6.22393 5.4602 4.87904 5.82299 4.2705 6.87701L3.7242 7.82322C3.11567 8.87724 3.47392 10.2233 4.52439 10.8298C4.92716 11.0624 5.14443 11.511 5.14272 11.9745L5.14267 12.0002C5.14267 12.3658 4.9662 12.7153 4.64903 12.8985L4.52439 12.9704C3.47392 13.5769 3.11567 14.923 3.72421 15.977L4.2705 16.9232C4.87904 17.9773 6.22393 18.34 7.27439 17.7336C7.60775 17.5411 8.02188 17.5737 8.34849 17.7786C8.4278 17.8283 8.50821 17.8765 8.58967 17.9231C8.91014 18.1062 9.12819 18.4358 9.12819 18.8037C9.12819 20.0167 10.1148 21 11.3319 21L12.4245 21C13.6416 21 14.6282 20.0167 14.6282 18.8037C14.6282 18.5017 14.8121 18.233 15.0825 18.0972C15.285 17.9955 15.4818 17.8841 15.6721 17.7636C15.9175 17.6082 16.23 17.588 16.482 17.7335C17.5324 18.34 18.8773 17.9772 19.4859 16.9232L20.0322 15.977C20.6407 14.923 20.2824 13.5769 19.232 12.9704C18.9787 12.8242 18.839 12.5432 18.8496 12.252C18.8527 12.1684 18.8542 12.0845 18.8542 12.0002C18.8542 11.8615 18.85 11.7238 18.8418 11.5872C18.8235 11.2813 18.9662 10.9833 19.232 10.8298C20.2824 10.2234 20.6407 8.87725 20.0322 7.82324L19.4859 6.87703ZM12 15C13.6569 15 15 13.6569 15 12C15 10.3431 13.6569 9 12 9C10.3431 9 9 10.3431 9 12C9 13.6569 10.3431 15 12 15Z" fill="white"/>
</svg>
