<svg width="28" height="28" viewBox="0 0 28 28" fill="none" xmlns="http://www.w3.org/2000/svg">
<path fill-rule="evenodd" clip-rule="evenodd" d="M24 14C24 19.5228 19.5228 24 14 24C12.386 24 10.8613 23.6176 9.5115 22.9385L4.98606 23.8436C4.42629 23.9555 3.93275 23.462 4.0447 22.9022L4.96633 18.2941C4.34676 16.993 4 15.537 4 14C4 8.47715 8.47715 4 14 4C19.5228 4 24 8.47715 24 14ZM11.7331 13.4309C12.0474 14.0143 11.8293 14.7421 11.2458 15.0564L11.2358 15.0618C10.6523 15.3762 9.92453 15.158 9.61021 14.5745C9.29589 13.9911 9.51407 13.2633 10.0975 12.9489L10.1075 12.9436C10.691 12.6292 11.4188 12.8474 11.7331 13.4309ZM18.8443 13.4309C19.1586 14.0143 18.9404 14.7421 18.3569 15.0565L18.3469 15.0618C17.7635 15.3762 17.0357 15.158 16.7214 14.5745C16.407 13.9911 16.6252 13.2633 17.2087 12.9489L17.2187 12.9435C17.8021 12.6292 18.5299 12.8474 18.8443 13.4309Z" fill="white"/>
</svg>
