<svg width="27" height="15" viewBox="0 0 27 15" fill="none" xmlns="http://www.w3.org/2000/svg">
<path d="M12.8006 0.265625V10.7031H11.0662V7.01562H9.06625V5.57812H11.0662V4.23438H9.06625V2.82812H11.0662V0.265625H12.8006ZM0.988125 7.40625C1.48031 7.40625 2.01937 7.40625 2.58187 7.39844V2.71875H1.3475V1.32812H8.86312V2.71875H7.61312V7.23438C8.14437 7.19531 8.66 7.14844 9.16 7.09375L9.23812 8.35938C6.55844 8.78906 3.42562 8.84375 1.17562 8.84375L0.988125 7.40625ZM3.51937 14.1094V9.89062H5.26937V12.7031H13.16V14.1094H3.51937ZM4.26937 7.375C4.81625 7.36719 5.37875 7.34375 5.94125 7.32031V2.71875H4.26937V7.375ZM22.9688 1.10938V2.5H20C20.0234 4.15625 21.2422 5.75 23.4688 6.375L22.5938 7.73438C20.9609 7.25 19.7812 6.22656 19.1406 4.92188C18.5 6.32812 17.2969 7.4375 15.6094 7.96875L14.7344 6.60938C16.9922 5.94531 18.2109 4.25781 18.25 2.5H15.2031V1.10938H22.9688ZM17.0625 14.2188V8.54688H18.7812V10H24.6719V8.54688H26.4062V14.2188H17.0625ZM18.7812 12.8125H24.6719V11.3438H18.7812V12.8125ZM24.6562 7.92188V0.265625H26.4062V7.92188H24.6562Z" fill="#8D959A"/>
</svg>
