<svg width="32" height="28" viewBox="0 0 32 28" fill="none" xmlns="http://www.w3.org/2000/svg">
<path d="M14.8162 7.26562V21.4062H13.0819V13.6875H10.3631V12.2656H13.0819V7.26562H14.8162ZM2.785 17.3438C5.04281 16.2734 6.37875 13.6016 6.39437 11.0156V10.0781H3.36312V8.65625H11.1912V10.0781H8.16V11.0156C8.16 13.4609 9.48031 16.0391 11.7537 17.0312L10.7225 18.4219C9.08187 17.6406 7.91 16.0703 7.29281 14.2031C6.67562 16.1953 5.4725 17.875 3.83187 18.7031L2.785 17.3438ZM21.7031 9.8125C21.7031 11.5391 22.8203 13.1641 25.0312 13.8438L24.2031 15.2031C22.6172 14.7031 21.4922 13.6953 20.875 12.4219C20.25 13.9062 19.0625 15.0859 17.3594 15.6562L16.4844 14.2812C18.7578 13.5391 19.9531 11.7031 19.9531 9.82812V9.65625H16.9688V8.25H24.6406V9.65625H21.7031V9.8125ZM18.4062 18.6719C18.4062 16.9844 20.2344 16 23.1875 16C26.1172 16 27.9141 16.9844 27.9219 18.6719C27.9141 20.375 26.1172 21.375 23.1875 21.375C20.2344 21.375 18.4062 20.375 18.4062 18.6719ZM20.1406 18.6719C20.1406 19.5469 21.25 20.0078 23.1875 20.0156C25.1172 20.0078 26.2031 19.5469 26.2031 18.6719C26.2031 17.8125 25.1172 17.3594 23.1875 17.3594C21.25 17.3594 20.1406 17.8125 20.1406 18.6719ZM26.0469 15.6875V7.26562H27.7812V10.6562H29.75V12.0781H27.7812V15.6875H26.0469Z" fill="#36DBBF"/>
</svg>
