<svg width="24" height="24" viewBox="0 0 24 24" fill="none" xmlns="http://www.w3.org/2000/svg">
<rect width="24" height="24" rx="12" fill="#36DBBF"/>
<path fill-rule="evenodd" clip-rule="evenodd" d="M13.6264 6.35359C12.7281 5.45538 11.2719 5.45538 10.3737 6.35359L6.36361 10.3636C6.01214 10.7151 6.01214 11.285 6.36361 11.6364C6.71508 11.9879 7.28493 11.9879 7.6364 11.6364L11.163 8.10984L11.163 17.6066C11.163 18.1037 11.5659 18.5066 12.063 18.5066C12.56 18.5066 12.963 18.1037 12.963 17.6066L12.963 8.23581L16.3636 11.6364C16.7151 11.9879 17.2849 11.9879 17.6364 11.6364C17.9879 11.285 17.9879 10.7151 17.6364 10.3636L13.6264 6.35359Z" fill="white"/>
</svg>
