<svg width="48" height="48" viewBox="0 0 48 48" fill="none" xmlns="http://www.w3.org/2000/svg">
<rect width="48" height="48" fill="#E4EBF0"/>
<path d="M15.945 27.108C18.5822 27.108 20.7202 24.9701 20.7202 22.3328C20.7202 19.6955 18.5822 17.5576 15.945 17.5576C13.3077 17.5576 11.1698 19.6955 11.1698 22.3328C11.1698 24.9701 13.3077 27.108 15.945 27.108Z" fill="#E8EBEF"/>
<path d="M35.1871 27.108C37.8244 27.108 39.9623 24.9701 39.9623 22.3328C39.9623 19.6955 37.8244 17.5576 35.1871 17.5576C32.5498 17.5576 30.4119 19.6955 30.4119 22.3328C30.4119 24.9701 32.5498 27.108 35.1871 27.108Z" fill="#E8EBEF"/>
<path d="M30.4398 22.5101C33.0771 22.5101 35.215 20.3722 35.215 17.7349C35.215 15.0976 33.0771 12.9597 30.4398 12.9597C27.8026 12.9597 25.6646 15.0976 25.6646 17.7349C25.6646 20.3722 27.8026 22.5101 30.4398 22.5101Z" fill="#E8EBEF"/>
<path d="M22.2037 24.1301C26.1056 24.1301 29.2687 20.967 29.2687 17.065C29.2687 13.1631 26.1056 10 22.2037 10C18.3017 10 15.1386 13.1631 15.1386 17.065C15.1386 20.967 18.3017 24.1301 22.2037 24.1301Z" fill="#E8EBEF"/>
<path d="M15.9449 20.6531V27.1073H35.1103V22.0703L15.9449 20.6531Z" fill="#E8EBEF"/>
<path fill-rule="evenodd" clip-rule="evenodd" d="M11.1574 27.1078C11.1451 27.1079 11.1327 27.108 11.1203 27.108C9.41783 27.108 8.03772 25.7279 8.03772 24.0254C8.03772 22.4955 9.15228 21.2259 10.6137 20.9843C10.6045 20.8656 10.5998 20.7457 10.5998 20.6247C10.5998 18.1059 12.6417 16.064 15.1605 16.064C16.8323 16.064 18.2941 16.9635 19.0881 18.3049C19.5055 18.0938 19.9775 17.9749 20.4773 17.9749C22.1414 17.9749 23.4975 19.2935 23.5578 20.9429C25.2529 20.9515 26.6244 22.3283 26.6244 24.0254C26.6244 25.7279 25.2443 27.108 23.5418 27.108C23.5253 27.108 23.5088 27.1078 23.4923 27.1076V27.1078H11.1574Z" fill="url(#paint0_linear_1018_10351)"/>
<path d="M15.5808 14.5992C16.5813 11.9132 19.1691 10 22.2037 10C24.7933 10 27.0575 11.3933 28.2876 13.4711C28.9343 13.144 29.6656 12.9597 30.4398 12.9597C33.0177 12.9597 35.1184 15.0024 35.2118 17.5574C37.8377 17.5707 39.9622 19.7035 39.9622 22.3326C39.9622 24.9698 37.8243 27.1077 35.1871 27.1077C35.1614 27.1077 35.1358 27.1075 35.1103 27.1071L26.9054 27.1073C27.6496 26.2955 28.1038 25.2135 28.1038 24.0254C28.1038 21.9481 26.7154 20.1952 24.8158 19.6438C24.2206 17.8161 22.5034 16.4956 20.4773 16.4956C20.1917 16.4956 19.9115 16.5221 19.6395 16.5727C18.6233 15.4503 17.1891 14.7098 15.5808 14.5992Z" fill="white"/>
<path d="M11.1647 27.1076C11.1499 27.1078 11.1351 27.1079 11.1203 27.1079C9.41783 27.1079 8.03772 25.7278 8.03772 24.0253C8.03772 22.4954 9.15229 21.2258 10.6138 20.9842C10.6045 20.8656 10.5998 20.7457 10.5998 20.6247C10.5998 18.1059 12.6417 16.064 15.1606 16.064C16.8323 16.064 18.294 16.9634 19.0881 18.3048C19.5055 18.0937 19.9775 17.9748 20.4773 17.9748C22.1414 17.9748 23.4976 19.2934 23.5578 20.9428C25.2529 20.9514 26.6244 22.3282 26.6244 24.0253C26.6244 25.7278 25.2443 27.1079 23.5419 27.1079C23.5253 27.1079 23.5088 27.1078 23.4923 27.1075L11.1647 27.1076Z" fill="white"/>
<path fill-rule="evenodd" clip-rule="evenodd" d="M21.6885 37.8265C21.0694 37.469 20.8573 36.6774 21.2147 36.0583L24.5432 30.2932C24.9007 29.6741 25.6923 29.4619 26.3114 29.8194C26.9305 30.1768 27.1427 30.9685 26.7852 31.5876L23.4567 37.3527C23.0993 37.9718 22.3076 38.1839 21.6885 37.8265ZM11.0906 37.8266C10.4715 37.4691 10.2593 36.6775 10.6168 36.0584L13.9453 30.2933C14.3027 29.6741 15.0944 29.462 15.7135 29.8195C16.3326 30.1769 16.5447 30.9686 16.1873 31.5877L12.8588 37.3528C12.5013 37.9719 11.7097 38.184 11.0906 37.8266ZM27.9935 33.496C27.636 34.1151 27.8481 34.9068 28.4672 35.2642C29.0863 35.6217 29.878 35.4095 30.2354 34.7904L32.0846 31.5876C32.442 30.9685 32.2299 30.1768 31.6108 29.8194C30.9917 29.4619 30.2001 29.6741 29.8426 30.2932L27.9935 33.496ZM32.2865 37.8265C31.6674 37.469 31.4553 36.6774 31.8128 36.0583L35.1412 30.2932C35.4987 29.6741 36.2903 29.4619 36.9094 29.8194C37.5285 30.1768 37.7407 30.9685 37.3832 31.5876L34.0547 37.3527C33.6973 37.9718 32.9056 38.1839 32.2865 37.8265ZM17.3956 33.496C17.0382 34.1151 17.2503 34.9068 17.8694 35.2642C18.4885 35.6217 19.2802 35.4095 19.6376 34.7904L21.4868 31.5876C21.8442 30.9685 21.6321 30.1768 21.013 29.8194C20.3939 29.4619 19.6022 29.6741 19.2448 30.2932L17.3956 33.496Z" fill="url(#paint1_linear_1018_10351)"/>
<defs>
<linearGradient id="paint0_linear_1018_10351" x1="17.3063" y1="16.064" x2="17.3063" y2="32.2077" gradientUnits="userSpaceOnUse">
<stop stop-color="#CED6DB"/>
<stop offset="1" stop-color="#E7EBEF"/>
</linearGradient>
<linearGradient id="paint1_linear_1018_10351" x1="22.5" y1="28.5" x2="22.5" y2="39.5" gradientUnits="userSpaceOnUse">
<stop stop-color="#94B9D0"/>
<stop offset="0.91" stop-color="#7CCAF7"/>
</linearGradient>
</defs>
</svg>
