<svg width="48" height="48" viewBox="0 0 48 48" fill="none" xmlns="http://www.w3.org/2000/svg">
<rect width="48" height="48" fill="#E4EBF0"/>
<path d="M15.9151 26.1712C18.5621 26.1712 20.708 24.0254 20.708 21.3783C20.708 18.7313 18.5621 16.5854 15.9151 16.5854C13.268 16.5854 11.1222 18.7313 11.1222 21.3783C11.1222 24.0254 13.268 26.1712 15.9151 26.1712Z" fill="#E8EBEF"/>
<path d="M35.2286 26.1712C37.8756 26.1712 40.0215 24.0254 40.0215 21.3783C40.0215 18.7313 37.8756 16.5854 35.2286 16.5854C32.5815 16.5854 30.4357 18.7313 30.4357 21.3783C30.4357 24.0254 32.5815 26.1712 35.2286 26.1712Z" fill="#E8EBEF"/>
<path d="M30.4637 21.5565C33.1107 21.5565 35.2566 19.4106 35.2566 16.7636C35.2566 14.1166 33.1107 11.9707 30.4637 11.9707C27.8167 11.9707 25.6708 14.1166 25.6708 16.7636C25.6708 19.4106 27.8167 21.5565 30.4637 21.5565Z" fill="#E8EBEF"/>
<path d="M22.197 23.1825C26.1134 23.1825 29.2882 20.0076 29.2882 16.0912C29.2882 12.1749 26.1134 9 22.197 9C18.2806 9 15.1057 12.1749 15.1057 16.0912C15.1057 20.0076 18.2806 23.1825 22.197 23.1825Z" fill="#E8EBEF"/>
<path d="M15.9151 19.6926V26.1707H35.1515V21.1151L15.9151 19.6926Z" fill="#E8EBEF"/>
<path fill-rule="evenodd" clip-rule="evenodd" d="M11.117 26.1711C11.1022 26.1713 11.0874 26.1714 11.0725 26.1714C9.36378 26.1714 7.97855 24.7862 7.97855 23.0774C7.97855 21.5418 9.09724 20.2675 10.5641 20.025C10.5548 19.9059 10.5501 19.7856 10.5501 19.6641C10.5501 17.1359 12.5996 15.0864 15.1278 15.0864C16.8058 15.0864 18.2729 15.9893 19.0699 17.3357C19.4889 17.1238 19.9626 17.0044 20.4643 17.0044C22.1345 17.0044 23.4957 18.3279 23.5562 19.9834C25.2576 19.9921 26.6341 21.374 26.6341 23.0774C26.6341 24.7862 25.2489 26.1714 23.5401 26.1714C23.5235 26.1714 23.507 26.1713 23.4904 26.171V26.1711H11.117Z" fill="url(#paint0_linear_1018_10375)"/>
<path d="M15.5496 13.6163C16.5538 10.9203 19.1511 9 22.197 9C24.7962 9 27.0688 10.3984 28.3035 12.484C28.9526 12.1557 29.6866 11.9707 30.4637 11.9707C33.0511 11.9707 35.1596 14.0209 35.2533 16.5854C37.889 16.5988 40.0214 18.7395 40.0214 21.3783C40.0214 24.0253 37.8756 26.1712 35.2285 26.1712C35.2028 26.1712 35.1771 26.171 35.1515 26.1706L26.9162 26.1707C27.6631 25.3559 28.119 24.2699 28.119 23.0774C28.119 20.9924 26.7254 19.233 24.8188 18.6796C24.2214 16.8451 22.4978 15.5197 20.4643 15.5197C20.1776 15.5197 19.8964 15.5463 19.6233 15.5971C18.6033 14.4705 17.1638 13.7273 15.5496 13.6163Z" fill="white"/>
<path d="M11.1171 26.171C11.1023 26.1712 11.0874 26.1713 11.0725 26.1713C9.36378 26.1713 7.97855 24.7861 7.97855 23.0773C7.97855 21.5417 9.09725 20.2674 10.5641 20.0249C10.5548 19.9058 10.5501 19.7855 10.5501 19.6641C10.5501 17.1359 12.5996 15.0864 15.1278 15.0864C16.8058 15.0864 18.2729 15.9892 19.0699 17.3356C19.4889 17.1237 19.9626 17.0043 20.4643 17.0043C22.1346 17.0043 23.4957 18.3279 23.5562 19.9834C25.2576 19.992 26.6342 21.3739 26.6342 23.0773C26.6342 24.7861 25.2489 26.1713 23.5402 26.1713C23.5236 26.1713 23.507 26.1712 23.4904 26.1709L11.1171 26.171Z" fill="white"/>
<path d="M15.0723 15.0868C15.0908 15.0865 15.1093 15.0864 15.1278 15.0864C16.8058 15.0864 18.2729 15.9892 19.0698 17.3356C19.4889 17.1237 19.9626 17.0043 20.4643 17.0043C22.1345 17.0043 23.4957 18.3279 23.5562 19.9834C25.2576 19.992 26.6342 21.3739 26.6342 23.0773C26.6342 24.7861 25.2489 26.1713 23.5402 26.1713C23.5235 26.1713 23.507 26.1712 23.4904 26.1709L15.0722 26.171C13.553 24.8084 12.5973 22.8303 12.5973 20.6289C12.5973 18.4275 13.553 16.4494 15.0723 15.0868Z" fill="white"/>
<path fill-rule="evenodd" clip-rule="evenodd" d="M23.2576 34.3504C23.2576 34.7604 23.59 35.0928 24 35.0928C24.41 35.0928 24.7424 34.7604 24.7424 34.3504V33.0317L25.8846 33.6912C26.2397 33.8962 26.6937 33.7745 26.8987 33.4195C27.1037 33.0644 26.9821 32.6103 26.627 32.4053L25.4848 31.7459L26.627 31.0864C26.9821 30.8814 27.1037 30.4274 26.8987 30.0723C26.6937 29.7172 26.2397 29.5955 25.8846 29.8005L24.7424 30.46V29.1408C24.7424 28.7308 24.41 28.3984 24 28.3984C23.59 28.3984 23.2576 28.7308 23.2576 29.1408V30.46L22.1154 29.8005C21.7603 29.5955 21.3063 29.7172 21.1012 30.0723C20.8962 30.4274 21.0179 30.8814 21.373 31.0864L22.5152 31.7459L21.373 32.4053C21.0179 32.6103 20.8962 33.0644 21.1013 33.4195C21.3063 33.7745 21.7603 33.8962 22.1154 33.6912L23.2576 33.0318V34.3504ZM14.2871 39C13.8771 39 13.5447 38.6676 13.5447 38.2576V36.939L12.4025 37.5984C12.0474 37.8034 11.5934 37.6818 11.3884 37.3267C11.1833 36.9716 11.305 36.5176 11.6601 36.3126L12.8023 35.6531L11.6601 34.9937C11.305 34.7887 11.1833 34.3346 11.3883 33.9795C11.5934 33.6244 12.0474 33.5028 12.4025 33.7078L13.5447 34.3672V33.0481C13.5447 32.6381 13.8771 32.3057 14.2871 32.3057C14.6971 32.3057 15.0295 32.6381 15.0295 33.0481V34.3672L16.1717 33.7078C16.5268 33.5028 16.9808 33.6244 17.1858 33.9795C17.3908 34.3346 17.2692 34.7887 16.9141 34.9937L15.7719 35.6531L16.9141 36.3126C17.2692 36.5176 17.3908 36.9716 17.1858 37.3267C16.9808 37.6818 16.5268 37.8034 16.1717 37.5984L15.0295 36.939V38.2576C15.0295 38.6676 14.6971 39 14.2871 39ZM33.7128 39C33.3027 39 32.9704 38.6676 32.9704 38.2576V36.939L31.8282 37.5984C31.4731 37.8034 31.019 37.6818 30.814 37.3267C30.609 36.9716 30.7307 36.5176 31.0858 36.3126L32.2279 35.6531L31.0857 34.9937C30.7307 34.7887 30.609 34.3346 30.814 33.9795C31.019 33.6244 31.4731 33.5028 31.8282 33.7078L32.9704 34.3672V33.0481C32.9704 32.6381 33.3027 32.3057 33.7128 32.3057C34.1228 32.3057 34.4552 32.6381 34.4552 33.0481V34.3672L35.5973 33.7078C35.9524 33.5028 36.4065 33.6244 36.6115 33.9795C36.8165 34.3346 36.6948 34.7887 36.3398 34.9937L35.1976 35.6531L36.3397 36.3126C36.6948 36.5176 36.8165 36.9716 36.6115 37.3267C36.4065 37.6818 35.9524 37.8034 35.5973 37.5984L34.4552 36.939V38.2576C34.4552 38.6676 34.1228 39 33.7128 39Z" fill="white"/>
<defs>
<linearGradient id="paint0_linear_1018_10375" x1="17.2815" y1="15.0864" x2="17.2815" y2="31.29" gradientUnits="userSpaceOnUse">
<stop stop-color="#CED6DB"/>
<stop offset="1" stop-color="#E7EBEF"/>
</linearGradient>
</defs>
</svg>
