<svg width="48" height="48" viewBox="0 0 48 48" fill="none" xmlns="http://www.w3.org/2000/svg">
<rect width="48" height="48" fill="#E4EBF0"/>
<path fill-rule="evenodd" clip-rule="evenodd" d="M12.9951 33.8036C12.9878 33.8037 12.9804 33.8037 12.973 33.8037C9.95035 33.8037 7.5 31.3533 7.5 28.3307C7.5 25.6144 9.47884 23.3603 12.0736 22.9313C12.0572 22.7209 12.0488 22.5082 12.0488 22.2936C12.0488 17.8215 15.6742 14.1961 20.1463 14.1961C23.1145 14.1961 25.7096 15.7931 27.1194 18.1747C27.8606 17.7998 28.6987 17.5887 29.586 17.5887C32.5404 17.5887 34.948 19.9296 35.0553 22.8578C38.0649 22.873 40.5 25.3175 40.5 28.3307C40.5 31.3533 38.0497 33.8037 35.027 33.8037C34.9976 33.8037 34.9683 33.8035 34.939 33.803V33.8036H12.9951Z" fill="white"/>
</svg>
