<svg width="48" height="48" viewBox="0 0 48 48" fill="none" xmlns="http://www.w3.org/2000/svg">
<rect width="48" height="48" fill="#FFFAE2"/>
<path fill-rule="evenodd" clip-rule="evenodd" d="M23.9988 14.7718C23.1724 14.7718 22.5009 14.1003 22.5009 13.2739V10.4979C22.5009 9.67155 23.1724 9 23.9988 9C24.8251 9 25.4966 9.67155 25.4966 10.4979V13.2739C25.4966 14.1003 24.8251 14.7718 23.9988 14.7718ZM23.9988 31.4857C28.1336 31.4857 31.4856 28.1337 31.4856 23.9988C31.4856 19.8639 28.1336 16.5119 23.9988 16.5119C19.8639 16.5119 16.5119 19.8639 16.5119 23.9988C16.5119 28.1337 19.8639 31.4857 23.9988 31.4857ZM15.356 17.4731C15.6481 17.7652 16.03 17.9125 16.4145 17.9125C16.7965 17.9125 17.1809 17.7652 17.473 17.4731C18.0572 16.8889 18.0572 15.9403 17.473 15.3561L15.5108 13.3939C14.9266 12.8097 13.978 12.8097 13.3938 13.3939C12.8096 13.9781 12.8096 14.9267 13.3938 15.5109L15.356 17.4731ZM13.2739 25.4966H10.4979C9.67155 25.4966 9 24.825 9 23.9987C9 23.1724 9.67155 22.5008 10.4979 22.5008H13.2739C14.1003 22.5008 14.7718 23.1724 14.7718 23.9987C14.7718 24.825 14.1003 25.4966 13.2739 25.4966ZM13.3938 34.6063C13.6859 34.8984 14.0678 35.0457 14.4523 35.0457C14.8342 35.0457 15.2187 34.8984 15.5108 34.6063L17.473 32.6441C18.0572 32.0599 18.0572 31.1112 17.473 30.5271C16.8888 29.9429 15.9402 29.9429 15.356 30.5271L13.3938 32.4893C12.8096 33.0735 12.8096 34.0221 13.3938 34.6063ZM23.9988 39.0001C23.1724 39.0001 22.5009 38.3286 22.5009 37.5022V34.7262C22.5009 33.8998 23.1724 33.2283 23.9988 33.2283C24.8251 33.2283 25.4966 33.8998 25.4966 34.7262V37.5022C25.4966 38.3286 24.8251 39.0001 23.9988 39.0001ZM32.4892 34.6063C32.7813 34.8984 33.1633 35.0457 33.5477 35.0457C33.9297 35.0457 34.3141 34.8984 34.6062 34.6063C35.1904 34.0221 35.1904 33.0735 34.6062 32.4893L32.644 30.5271C32.0598 29.9429 31.1112 29.9429 30.527 30.5271C29.9428 31.1112 29.9428 32.0599 30.527 32.6441L32.4892 34.6063ZM37.5021 25.4966H34.726C33.8997 25.4966 33.2282 24.825 33.2282 23.9987C33.2282 23.1724 33.8997 22.5008 34.726 22.5008H37.5021C38.3284 22.5008 39 23.1724 39 23.9987C39 24.825 38.3284 25.4966 37.5021 25.4966ZM30.5245 17.4731C30.8166 17.7652 31.1986 17.9125 31.583 17.9125C31.965 17.9125 32.3494 17.7652 32.6415 17.4731L34.6037 15.5109C35.1879 14.9267 35.1879 13.9781 34.6037 13.3939C34.0196 12.8097 33.0709 12.8097 32.4867 13.3939L30.5245 15.3561C29.9403 15.9403 29.9403 16.8889 30.5245 17.4731Z" fill="url(#paint0_linear_1018_10319)"/>
<defs>
<linearGradient id="paint0_linear_1018_10319" x1="24" y1="9" x2="24" y2="39" gradientUnits="userSpaceOnUse">
<stop stop-color="#FFB800"/>
<stop offset="1" stop-color="#FFDA00"/>
</linearGradient>
</defs>
</svg>
