<svg width="33" height="32" viewBox="0 0 33 32" fill="none" xmlns="http://www.w3.org/2000/svg">
  <path
    d="M17.192 8.44645C17.7603 7.8782 18.6816 7.8782 19.2498 8.44645L24.0536 13.2502C24.6219 13.8185 24.6219 14.7398 24.0536 15.308L12.782 26.5797C12.3988 26.9629 11.9061 27.2178 11.3719 27.3092L7.56216 27.9615C5.78117 28.2664 4.23369 26.7189 4.5386 24.9379L5.19083 21.1281C5.28229 20.5939 5.53719 20.1013 5.92041 19.7181L17.192 8.44645Z"
    fill="white" />
  <path
    d="M20.871 4.76713C21.8939 3.74429 23.5522 3.74429 24.575 4.76713L27.7326 7.92468C28.7554 8.94752 28.7554 10.6059 27.7326 11.6287L27.5085 11.8528C26.9402 12.4211 26.0189 12.4211 25.4507 11.8528L20.6469 7.04905C20.0786 6.48081 20.0786 5.5595 20.6469 4.99126L20.871 4.76713Z"
    fill="white" />
</svg>